<?xml version="1.0" encoding="UTF-8"?>
<svg id="Layer_1" data-name="Layer 1" xmlns="http://www.w3.org/2000/svg" viewBox="0 0 1546.97 690.83">
  <defs>
    <style>
      .cls-1 {
        fill: none;
      }

      .cls-2, .cls-3, .cls-4 {
        fill: #2b51a4;
      }

      .cls-5 {
        fill: #6ea1d6;
      }

      .cls-6 {
        fill: #cbd942;
      }

      .cls-6, .cls-3 {
        fill-rule: evenodd;
      }

      .cls-4 {
        stroke: #2b51a4;
        stroke-miterlimit: 10;
      }
    </style>
  </defs>
  <path class="cls-6" d="M676.04,116.73c35.34,0,63.98,28.65,63.98,63.98s-28.65,63.98-63.98,63.98-63.98-28.65-63.98-63.98,28.65-63.98,63.98-63.98h0Z"/>
  <g>
    <path class="cls-3" d="M683.09,150.72v-1.78h9.24l-16.04-7.19-16.04,7.19h9.24v1.78l-30.17,13.52h11.58v23.07h50.77v-23.07h11.58l-30.17-13.52ZM667.26,183.14h-13.76v-18.9h13.76v18.9ZM683.18,183.14h-13.76v-18.9h13.76v18.9ZM699.09,183.14h-13.76v-18.9h13.76v18.9ZM598.2,489.65h-11.14c-4.71,0-8.56,3.85-8.56,8.56s3.86,8.56,8.56,8.56h11.14c4.72,0,8.56-3.85,8.56-8.56s-3.85-8.56-8.56-8.56ZM552.15,455.39h-12.38c-4.72,0-8.56,3.86-8.56,8.56s3.85,8.56,8.56,8.56h12.38c4.71,0,8.56-3.86,8.56-8.56s-3.85-8.56-8.56-8.56ZM759.43,523.9h-8.79c-4.71,0-8.56,3.86-8.56,8.56s3.85,8.56,8.56,8.56h8.79c4.71,0,8.56-3.85,8.56-8.56s-3.86-8.56-8.56-8.56ZM738.49,438.27h79.7c4.72,0,8.57-3.86,8.57-8.56s-3.86-8.56-8.57-8.56h-100.74l-3.79-26.21h-75.24l-3.29,26.21h-100.75c-4.71,0-8.56,3.86-8.56,8.56s3.86,8.56,8.56,8.56h58.57c5.03,0,9.14,3.86,9.14,8.56s-4.11,8.56-9.14,8.56h-7.66c-4.71,0-8.56,3.86-8.56,8.56s3.85,8.56,8.56,8.56h62.39c5.03,0,9.14,3.86,9.14,8.56s-4.11,8.56-9.14,8.56h-9.85c-4.71,0-8.56,3.85-8.56,8.56s3.86,8.56,8.56,8.56,9.37,3.37,9.37,8.56c0,4.71-4.11,8.56-9.14,8.56h-49.1c-4.72,0-8.56,3.86-8.56,8.56s3.85,8.56,8.56,8.56h61.98c4.71,0,8.56,3.86,8.56,8.56s-3.86,8.56-8.56,8.56h-9.19c-4.71,0-8.56,3.86-8.56,8.56s3.86,8.56,8.56,8.56h69.06c4.71,0,8.56-3.85,8.56-8.56s-3.86-8.56-8.56-8.56h-9.31c-4.71,0-8.56-3.86-8.56-8.56s3.85-8.56,8.56-8.56h20.75c4.71,0,8.56-3.85,8.56-8.56s-3.86-8.56-8.56-8.56h-4.09c-5.03,0-9.14-3.86-9.14-8.56s4.11-8.56,9.14-8.56h79.68c4.71,0,8.56-3.85,8.56-8.56s-3.86-8.56-8.56-8.56h-39.89c-5.03,0-9.14-3.86-9.14-8.56s4.11-8.56,9.14-8.56h30.91c4.7,0,8.56-3.86,8.56-8.56s-3.86-8.56-8.56-8.56h-50.38c-5.03,0-9.14-3.85-9.14-8.56s4.11-8.56,9.14-8.56ZM703.48,283.19h-54.97l-2.38,21.37h59.81l-2.47-21.37ZM710.38,363.58h-68.18l-2.57,21.37h73.08l-2.33-21.37ZM829.88,455.39h-12.38c-4.72,0-8.56,3.86-8.56,8.56s3.85,8.56,8.56,8.56h12.38c4.71,0,8.56-3.86,8.56-8.56s-3.85-8.56-8.56-8.56Z"/>
    <path class="cls-3" d="M730.39,314.92c.05-.64-138.51-.61-138.51-.61l50.32-45.02h7.44l-.37,4.27h54.05l-3.54-40.39,14.8-12.58v-4.69h-4.39v-28.59h-67.8v28.59h-4.39v4.69l4.79,4.06h-11.26l-98.86,86.8,56.6,43.94,152.87.03s-14.63-1.08-11.75-40.5ZM701.68,189.66h6.17v26.24h-6.17v-26.24ZM644.74,189.66h6.17v26.24h-6.17v-26.24Z"/>
  </g>
  <path class="cls-2" d="M822.14,321.38c-.13,12.95-.52,13.08-29.7,13.08s-28.39-.26-28.39-22.64c0-13.21,1.05-18.32,4.19-20.93,2.62-2.09,7.46-2.62,24.07-2.62,18.06,0,25.38.79,26.95,3.01,1.05,1.44,1.31,2.62,1.57,7.72h26.56v-4.32c0-14.39-2.88-20.8-10.86-24.6-6.02-2.88-14.13-3.66-36.64-3.66-45.01,0-54.69,2.22-59.66,13.21-2.09,4.97-2.75,12.04-2.75,32.32,0,10.34.13,17.53.52,21.46,1.05,9.81,3.93,14.92,10.34,18.19,7.2,3.66,18.19,4.71,51.42,4.71,20.02,0,29.7-.92,36.77-3.27,9.03-3.27,12.56-9.68,12.56-23.42,0-1.31-.13-3.27-.26-8.24h-26.69Z"/>
  <polygon class="cls-2" points="945.92 355 973.79 355 973.79 351.24 945.92 334.18 945.92 355"/>
  <polygon class="cls-2" points="885.86 299 885.86 297.43 857.99 280.38 857.99 355 885.86 355 885.86 323.47 928.41 323.47 888.43 299 885.86 299"/>
  <polygon class="cls-2" points="1238.49 267.73 1211.4 267.73 1211.55 281.95 1238.49 287.34 1238.49 267.73"/>
  <polygon class="cls-2" points="1163.65 267.73 1140.49 267.73 1167.43 273.12 1163.65 267.73"/>
  <path class="cls-2" d="M1306.92,288.27c19.89,0,26.04.52,28.65,2.36,1.7,1.18,1.96,2.22,2.09,7.33h26.56c-.13-12.82-1.18-18.19-4.84-22.5-5.76-6.8-17.79-9.03-50.24-9.03-30.62,0-44.49,1.7-50.77,6.15-4.67,3.25-7.26,7.94-8.53,17.04l26.78,5.36c2.4-6.63,9.47-6.7,30.29-6.7Z"/>
  <path class="cls-2" d="M1364.36,307.9v-2.35h-34.87l34.84,6.97c.02-1.65.04-3.22.04-4.62Z"/>
  <polygon class="cls-2" points="1467.99 320.2 1467.99 300.97 1401.13 300.97 1401.13 288.27 1471.53 288.27 1471.53 267.73 1374.96 267.73 1374.96 314.64 1402.73 320.2 1467.99 320.2"/>
  <polygon class="cls-1" points="260.73 289.14 263.74 288.34 261.14 288.34 260.73 289.14"/>
  <polygon class="cls-2" points="102.82 323.83 130.48 323.83 190.82 307.76 190.82 268.04 162.93 268.04 162.93 299.34 102.82 299.34 102.82 268.04 74.93 268.04 74.93 338.63 102.82 331.2 102.82 323.83"/>
  <polygon class="cls-2" points="261.14 288.34 263.74 288.34 291.35 280.99 284.58 268.04 243.2 268.04 227.32 298.04 260.73 289.14 261.14 288.34"/>
  <path class="cls-2" d="M393.79,356.7c20.04,0,29.73-.92,36.8-3.27,9.04-3.27,12.57-9.69,12.57-23.44,0-1.31-.13-3.27-.26-8.25h-1.18l-54.39,34.95c2.06.01,4.2.02,6.46.02Z"/>
  <polygon class="cls-2" points="452.06 355.39 478.64 355.39 478.64 322 493.18 322 532.33 355.39 572.67 355.39 517.93 310.87 568.48 267.52 527.75 267.52 493.18 299.73 478.64 299.73 478.64 298.01 452.06 315.09 452.06 355.39"/>
  <g>
    <polygon class="cls-5" points="885.86 267.73 857.99 267.73 857.99 280.38 885.86 297.43 885.86 267.73"/>
    <g>
      <polygon class="cls-5" points="945.92 267.73 945.92 299 888.43 299 928.41 323.47 945.92 323.47 945.92 334.18 973.79 351.24 973.79 267.73 945.92 267.73"/>
      <path class="cls-5" d="M1026.13,267.73l-46.19,87.27h30.36l7.46-14.78h57.7l7.46,14.78h30.22l-45.66-87.27h-41.35ZM1027.17,321.11l16.88-33.1h5.23l16.88,33.1h-38.99Z"/>
      <polygon class="cls-5" points="1211.55 281.95 1212.06 332.76 1209.31 332.76 1167.43 273.12 1140.49 267.73 1117.07 267.73 1117.07 355 1144.15 355 1143.5 289.84 1146.37 289.84 1192.3 355 1238.49 355 1238.49 287.34 1211.55 281.95"/>
      <path class="cls-5" d="M1364.33,312.51c-.13,8.57-.55,19.62-.88,23.12-1.05,10.21-6.67,16.22-17.14,18.32-2.01.41-4.03.76-6.23,1.05-7.57.99-17.26,1.31-35.51,1.31-15.49,0-25.45-.32-32.48-1.31-6.56-.92-10.56-2.44-14.1-4.84-4.85-3.27-7.34-8.11-8.37-16.62-.52-3.79-.78-12.43-.78-23.55,0-8.59.29-15.2,1.01-20.39l26.79,5.36c-1.22,3.37-1.25,8.44-1.25,16.07,0,14.79.78,19.23,3.66,21.59q3.01,2.36,27.61,2.75c24.86-.13,26.95-.26,29.96-2.62,1.44-1.44,1.83-3.53,1.83-9.81h-34.94v-17.4h25.97l34.84,6.97Z"/>
      <polygon class="cls-5" points="1401.13 334.07 1401.13 320.2 1402.73 320.2 1374.96 314.64 1374.96 355 1472.05 355 1472.05 334.07 1401.13 334.07"/>
      <polygon class="cls-5" points="162.93 323.83 162.93 355.39 190.82 355.39 190.82 307.76 130.48 323.83 162.93 323.83"/>
      <polygon class="cls-5" points="102.82 331.2 74.93 338.63 74.93 355.39 102.82 355.39 102.82 331.2"/>
      <polygon class="cls-5" points="227.35 355.39 234.81 340.59 292.57 340.59 300.03 355.39 330.28 355.39 291.35 280.99 263.74 288.34 266.37 288.34 283.27 321.47 244.24 321.47 260.73 289.14 227.32 298.04 196.97 355.39 227.35 355.39"/>
      <path class="cls-5" d="M386.46,334.83c-28.02,0-28.42-.26-28.42-22.66,0-13.23,1.05-18.33,4.19-20.95,2.62-2.1,7.46-2.62,24.1-2.62,18.07,0,25.41.79,26.98,3.01,1.05,1.44,1.31,2.62,1.57,7.73h26.58v-4.32c0-14.41-2.88-20.82-10.87-24.62-6.02-2.88-14.14-3.67-36.67-3.67-45.05,0-54.74,2.23-59.72,13.23-2.1,4.98-2.75,12.05-2.75,32.35,0,10.35.13,17.55.52,21.48,1.05,9.82,3.93,14.93,10.35,18.2,6.71,3.42,16.74,4.56,45.01,4.7l54.39-34.95h-25.54c-.13,12.96-.52,13.1-29.73,13.1Z"/>
      <polygon class="cls-5" points="452.06 268.04 452.06 315.09 478.64 298.01 478.64 268.04 452.06 268.04"/>
    </g>
  </g>
  <g>
    <path class="cls-4" d="M867.4,363.02v13.69h.26c1.74-2.64,3.91-3.28,10.89-3.28,8.03,0,10.62.37,12.79,1.96,2.8,2.01,3.91,5.13,3.91,10.99s-1.53,9.35-5.23,10.99c-2.11.95-4.6,1.22-10.83,1.22-7.77,0-9.78-.58-11.63-3.44h-.21v3.12h-3.81v-35.25h3.86ZM867.29,386.06c0,4.97.74,6.87,3.01,8.09,1.53.74,4.39,1.06,10.25,1.06,8.67,0,10.57-1.64,10.57-9.09,0-4.81-.9-7.08-3.17-8.24-1.48-.79-4.02-1.06-9.35-1.06-9.62,0-11.31,1.37-11.31,9.25Z"/>
    <path class="cls-4" d="M900.27,373.8l11.79,21.35h.53l10.99-21.35h4.55l-11.94,22.78c-2.8,5.44-4.07,7.19-6.03,8.56-1.85,1.27-3.7,1.69-7.72,1.69-.9,0-1.37,0-2.17-.05v-3.54c.74.11,1.06.11,1.8.11,5.13,0,6.45-.79,8.77-5.07h-1.32l-13.79-24.47h4.55Z"/>
    <path class="cls-4" d="M973.1,389.39c-.05,3.28-.63,5.02-2.06,6.5-1.9,2.01-4.65,2.69-10.99,2.69-8.46,0-11.89-.53-14.06-2.17-2.43-1.8-3.59-5.18-3.59-10.36,0-5.76,1.32-9.14,4.28-10.89,2.11-1.27,5.02-1.69,11.05-1.69,7.82,0,11.15.69,13.11,2.75,1.43,1.43,1.96,3.12,2.11,6.29h-4.02c-.11-4.6-2.22-5.65-11.2-5.65-4.81,0-7.19.37-8.67,1.32-1.74,1.16-2.54,3.65-2.54,8.14s.95,6.66,3.07,7.72c1.48.79,4.44,1.11,9.72,1.11,7.93,0,9.67-1,9.83-5.76h3.96Z"/>
    <path class="cls-4" d="M980.44,363.02v4.6h-3.86v-4.6h3.86ZM980.44,373.8v24.47h-3.86v-24.47h3.86Z"/>
    <path class="cls-4" d="M987.26,373.8l11.84,20.88h.42l11.89-20.88h4.7l-14.27,24.47h-5.02l-14.11-24.47h4.54Z"/>
    <path class="cls-4" d="M1022.3,363.02v4.6h-3.86v-4.6h3.86ZM1022.3,373.8v24.47h-3.86v-24.47h3.86Z"/>
    <path class="cls-4" d="M1056.91,389.39c-.05,3.28-.63,5.02-2.06,6.5-1.9,2.01-4.65,2.69-10.99,2.69-8.46,0-11.89-.53-14.06-2.17-2.43-1.8-3.59-5.18-3.59-10.36,0-5.76,1.32-9.14,4.28-10.89,2.11-1.27,5.02-1.69,11.05-1.69,7.82,0,11.15.69,13.11,2.75,1.43,1.43,1.96,3.12,2.11,6.29h-4.02c-.11-4.6-2.22-5.65-11.2-5.65-4.81,0-7.19.37-8.67,1.32-1.74,1.16-2.54,3.65-2.54,8.14s.95,6.66,3.06,7.72c1.48.79,4.44,1.11,9.72,1.11,7.93,0,9.67-1,9.83-5.76h3.96Z"/>
    <path class="cls-4" d="M1081.06,367.72v6.08h17.12v3.33h-17.12v10.57c.11,4.65.11,4.81.9,5.81,1,1.22,2.75,1.69,6.45,1.69,3.44,0,4.76-.37,5.6-1.69.58-.9.74-1.8.74-4.81v-1.53h3.86v1.53c0,3.86-.32,5.39-1.32,6.87-1.43,2.17-4.07,3.01-9.25,3.01s-8.03-.79-9.46-2.75c-1.06-1.48-1.37-3.01-1.37-6.87v-11.84h-6.03v-3.33h6.03v-6.08h3.86Z"/>
    <path class="cls-4" d="M1132.64,390.71c-.16,5.87-3.59,7.87-13.53,7.87-8.19,0-12-.58-14.16-2.11-2.48-1.74-3.7-5.13-3.7-10.36,0-5.81,1.32-9.25,4.33-10.99,2.06-1.22,4.86-1.64,10.99-1.64,8.4,0,11.36.69,13.64,3.22,1.85,2.17,2.38,4.39,2.48,10.2h-27.27c.11,3.17.63,5.07,1.8,6.29,1.48,1.53,4.12,2.01,11.47,2.01,5.55,0,7.72-.42,8.98-1.85.63-.63.74-1.06.9-2.64h4.07ZM1128.42,383.58c-.05-5.39-2.43-6.71-11.94-6.71-8.46,0-10.52,1.27-10.94,6.71h22.88Z"/>
    <path class="cls-4" d="M1166.36,389.39c-.05,3.28-.63,5.02-2.06,6.5-1.9,2.01-4.65,2.69-10.99,2.69-8.46,0-11.89-.53-14.06-2.17-2.43-1.8-3.59-5.18-3.59-10.36,0-5.76,1.32-9.14,4.28-10.89,2.11-1.27,5.02-1.69,11.05-1.69,7.82,0,11.15.69,13.11,2.75,1.43,1.43,1.96,3.12,2.11,6.29h-4.02c-.11-4.6-2.22-5.65-11.2-5.65-4.81,0-7.19.37-8.67,1.32-1.74,1.16-2.54,3.65-2.54,8.14s.95,6.66,3.06,7.72c1.48.79,4.44,1.11,9.72,1.11,7.93,0,9.67-1,9.83-5.76h3.96Z"/>
    <path class="cls-4" d="M1173.81,363.02v14.38h.32c1.64-3.06,4.44-3.96,12.42-3.96,6.76,0,9.78.69,11.68,2.69,1.64,1.69,2.06,3.59,2.06,9.41v12.74h-3.86v-11.52c0-5.07-.21-6.39-1.37-7.82-1.27-1.53-3.7-2.11-8.98-2.11-5.97,0-9.09.79-10.73,2.69-1.32,1.48-1.53,2.59-1.53,7.24v11.52h-3.86v-35.25h3.86Z"/>
    <path class="cls-4" d="M1221.43,373.8l.05,3.22c2.22-2.91,4.07-3.54,10.04-3.54,7.98,0,10.73.95,12.68,4.28,1.59-3.22,4.39-4.28,11.42-4.28,6.66,0,9.46.74,11.52,2.96,1.59,1.8,1.9,3.22,1.9,8.93v12.9h-3.86v-13.74c0-6.45-1.53-7.66-9.62-7.66-4.91,0-7.24.58-8.56,2.17-1.37,1.53-1.74,3.65-1.74,9.62v9.62h-3.86v-13.74c0-3.54-.32-4.86-1.32-5.87-1.37-1.27-3.75-1.8-8.35-1.8-4.92,0-7.35.63-8.77,2.22-1.27,1.43-1.53,3.12-1.53,9.57v9.62h-3.86v-24.47h3.86Z"/>
    <path class="cls-4" d="M1300.44,375.12c3.12,1.85,4.39,5.07,4.39,10.89s-1.22,9.04-4.12,10.83c-2.11,1.32-4.86,1.74-11.36,1.74-6.98,0-9.99-.37-12.21-1.59-3.22-1.8-4.54-4.91-4.54-11.1,0-5.65,1.43-9.09,4.49-10.83,2.01-1.16,4.81-1.59,10.52-1.59,7.72,0,10.78.37,12.84,1.64ZM1276.71,386.17c0,4.91,1,7.13,3.65,8.19,1.64.63,3.96.85,8.67.85,5.6,0,7.72-.32,9.3-1.48,1.69-1.22,2.38-3.44,2.38-7.82,0-4.7-.9-6.87-3.17-8.03-1.53-.74-4.12-1-9.3-1-9.78,0-11.52,1.43-11.52,9.3Z"/>
    <path class="cls-4" d="M1312.38,373.8v3.7h.32c1.59-3.17,4.28-4.02,12.31-4.02,7.03,0,9.94.63,11.84,2.69,1.48,1.64,2.01,3.7,2.01,8.3v13.79h-3.86v-12.16c0-4.39-.26-5.87-1.37-7.13-1.27-1.53-3.7-2.11-9.04-2.11-6.03,0-9.09.79-10.78,2.85-1.22,1.43-1.43,2.59-1.43,7.24v11.31h-3.86v-24.47h3.86Z"/>
    <path class="cls-4" d="M1373.1,389.39c-.05,3.28-.63,5.02-2.06,6.5-1.9,2.01-4.65,2.69-10.99,2.69-8.46,0-11.89-.53-14.06-2.17-2.43-1.8-3.59-5.18-3.59-10.36,0-5.76,1.32-9.14,4.28-10.89,2.11-1.27,5.02-1.69,11.05-1.69,7.82,0,11.15.69,13.11,2.75,1.43,1.43,1.96,3.12,2.11,6.29h-4.02c-.11-4.6-2.22-5.65-11.2-5.65-4.81,0-7.19.37-8.67,1.32-1.74,1.16-2.54,3.65-2.54,8.14s.95,6.66,3.06,7.72c1.48.79,4.44,1.11,9.72,1.11,7.93,0,9.67-1,9.83-5.76h3.96Z"/>
    <path class="cls-4" d="M1384.46,367.72v6.08h17.12v3.33h-17.12v10.57c.11,4.65.11,4.81.9,5.81,1,1.22,2.75,1.69,6.45,1.69,3.44,0,4.76-.37,5.6-1.69.58-.9.74-1.8.74-4.81v-1.53h3.86v1.53c0,3.86-.32,5.39-1.32,6.87-1.43,2.17-4.07,3.01-9.25,3.01s-8.03-.79-9.46-2.75c-1.06-1.48-1.37-3.01-1.37-6.87v-11.84h-6.03v-3.33h6.03v-6.08h3.86Z"/>
    <path class="cls-4" d="M1432.5,375.12c3.12,1.85,4.39,5.07,4.39,10.89s-1.22,9.04-4.12,10.83c-2.11,1.32-4.86,1.74-11.36,1.74-6.98,0-9.99-.37-12.21-1.59-3.22-1.8-4.54-4.91-4.54-11.1,0-5.65,1.43-9.09,4.49-10.83,2.01-1.16,4.81-1.59,10.52-1.59,7.72,0,10.78.37,12.84,1.64ZM1408.77,386.17c0,4.91,1,7.13,3.65,8.19,1.64.63,3.96.85,8.67.85,5.6,0,7.72-.32,9.3-1.48,1.69-1.22,2.38-3.44,2.38-7.82,0-4.7-.9-6.87-3.17-8.03-1.53-.74-4.12-1-9.3-1-9.78,0-11.52,1.43-11.52,9.3Z"/>
    <path class="cls-4" d="M1444.45,373.8v3.7h.32c1.59-3.17,4.28-4.02,12.31-4.02,7.03,0,9.94.63,11.84,2.69,1.48,1.64,2.01,3.7,2.01,8.3v13.79h-3.86v-12.16c0-4.39-.26-5.87-1.37-7.13-1.27-1.53-3.7-2.11-9.04-2.11-6.03,0-9.09.79-10.78,2.85-1.22,1.43-1.43,2.59-1.43,7.24v11.31h-3.86v-24.47h3.86Z"/>
  </g>
</svg>