<?xml version="1.0" encoding="UTF-8"?>
<svg id="Layer_1" data-name="Layer 1" xmlns="http://www.w3.org/2000/svg" viewBox="0 0 810 125">
  <defs>
    <style>
      .cls-1 {
        fill: #111235;
      }

      .cls-2 {
        fill: #c06ca8;
      }

      .cls-3 {
        fill: #d391b3;
      }
    </style>
  </defs>
  <rect class="cls-1" x="-9" y="-9" width="828" height="143"/>
  <g>
    <path class="cls-2" d="M42.52,38.49v17.21h33.05v-17.21h15.34v48.03h-15.34v-17.35h-33.05v17.35h-15.34v-48.03h15.34Z"/>
    <path class="cls-2" d="M147.42,78.38h-31.75l-4.1,8.14h-16.71l25.42-48.03h22.75l25.13,48.03h-16.63l-4.1-8.14ZM133.02,49.65h-2.88l-9.29,18.22h21.46l-9.29-18.22Z"/>
    <path class="cls-2" d="M231.95,68.01c.07,2.74.14,3.82.14,4.54,0,7.78-2.02,11.3-7.34,13.03-3.89,1.22-9.15,1.66-19.8,1.66-18.79,0-24.84-.58-28.73-2.81-3.17-1.8-4.61-4.46-5.18-9.36-.22-2.16-.36-6.12-.36-12.24,0-10.73.29-14.69,1.37-17.35,2.59-6.48,7.85-7.71,32.98-7.71,12.82,0,17.28.5,20.59,2.23,4.1,2.09,5.54,5.62,5.54,13.32v2.38h-14.62c-.14-3.17-.29-3.82-1.15-4.54-1.08-.94-5.33-1.37-14.54-1.37s-11.81.29-13.25,1.44c-1.73,1.44-2.3,4.25-2.3,11.52,0,12.31.22,12.46,15.63,12.46s16.27-.07,16.34-7.2h14.69Z"/>
    <path class="cls-2" d="M253.48,38.49v17.43h7.99l19.01-17.71h22.39l-27.79,23.83,30.1,24.48h-22.18l-21.53-18.36h-7.99v18.36h-14.62v-48.03h14.62Z"/>
    <path class="cls-3" d="M364.43,77.58h-9.36v8.93h-13.9v-8.93h-38.31v-18.36l28.51-20.74h23.69v28.3h9.36v10.8ZM341.17,49.65h-2.95l-22.25,15.27v1.87h25.2v-17.14Z"/>
    <path class="cls-2" d="M432.04,68.01c.07,2.74.14,3.82.14,4.54,0,7.78-2.02,11.3-7.34,13.03-3.89,1.22-9.15,1.66-19.8,1.66-18.79,0-24.84-.58-28.73-2.81-3.17-1.8-4.61-4.46-5.18-9.36-.22-2.16-.36-6.12-.36-12.24,0-10.73.29-14.69,1.37-17.35,2.59-6.48,7.85-7.71,32.98-7.71,12.82,0,17.28.5,20.59,2.23,4.1,2.09,5.54,5.62,5.54,13.32v2.38h-14.62c-.14-3.17-.29-3.82-1.15-4.54-1.08-.94-5.33-1.37-14.54-1.37s-11.81.29-13.25,1.44c-1.73,1.44-2.3,4.25-2.3,11.52,0,12.31.22,12.46,15.63,12.46s16.27-.07,16.34-7.2h14.69Z"/>
    <path class="cls-2" d="M454.28,38.49v17.21h33.05v-17.21h15.34v48.03h-15.34v-17.35h-33.05v17.35h-15.34v-48.03h15.34Z"/>
    <path class="cls-2" d="M559.19,78.38h-31.75l-4.1,8.14h-16.71l25.42-48.03h22.75l25.13,48.03h-16.63l-4.1-8.14ZM544.79,49.65h-2.88l-9.29,18.22h21.46l-9.29-18.22Z"/>
    <path class="cls-2" d="M609.52,38.49l25.13,35.79h1.51l-.36-35.79h14.91v48.03h-25.42l-25.27-35.86h-1.58l.36,35.86h-14.91v-48.03h25.63Z"/>
    <path class="cls-2" d="M721.77,59.3v1.3c0,4.75-.29,12.96-.5,15.27-.58,5.62-3.67,8.93-9.43,10.08-4.9,1.01-9.94,1.3-22.97,1.3-16.49,0-21.6-.65-25.63-3.38-4.25-2.81-5.04-6.34-5.04-22.11,0-22.47,2.09-23.98,33.2-23.98,17.86,0,24.48,1.15,27.65,4.97,2.02,2.38,2.59,5.33,2.66,12.38h-14.62c-.07-2.81-.22-3.38-1.15-4.03-1.44-1.01-4.82-1.3-15.77-1.3-17.28,0-17.35.07-17.35,12.53,0,8.14.43,10.58,2.02,11.88,1.22,1.01,2.52,1.22,6.62,1.37l8.57.14c17.07,0,17.5-.14,17.5-5.47v-1.37h-19.23v-9.58h33.48Z"/>
    <path class="cls-2" d="M782.53,38.49v11.31h-38.74v6.98h36.8v10.58h-36.8v7.63h39.03v11.52h-53.43v-48.03h53.14Z"/>
  </g>
</svg>