<?xml version="1.0" encoding="UTF-8"?>
<svg id="Layer_1" data-name="Layer 1" xmlns="http://www.w3.org/2000/svg" viewBox="0 0 532.39 223.13">
  <defs>
    <style>
      .cls-1 {
        fill-rule: evenodd;
      }
    </style>
  </defs>
  <g>
    <path class="cls-1" d="M237.12,48.26v-.54h2.82l-4.89-2.19-4.89,2.19h2.82v.54l-9.19,4.12h3.53v7.03h15.47v-7.03h3.53l-9.19-4.12ZM232.3,58.14h-4.19v-5.76h4.19v5.76ZM237.15,58.14h-4.19v-5.76h4.19v5.76ZM242,58.14h-4.19v-5.76h4.19v5.76ZM211.26,151.52h-3.39c-1.43,0-2.61,1.17-2.61,2.61s1.17,2.61,2.61,2.61h3.39c1.44,0,2.61-1.17,2.61-2.61s-1.17-2.61-2.61-2.61ZM197.23,141.08h-3.77c-1.44,0-2.61,1.17-2.61,2.61s1.17,2.61,2.61,2.61h3.77c1.43,0,2.61-1.17,2.61-2.61s-1.17-2.61-2.61-2.61ZM260.38,161.95h-2.68c-1.43,0-2.61,1.17-2.61,2.61s1.17,2.61,2.61,2.61h2.68c1.43,0,2.61-1.17,2.61-2.61s-1.17-2.61-2.61-2.61ZM254,135.87h24.28c1.44,0,2.61-1.17,2.61-2.61s-1.17-2.61-2.61-2.61h-30.69l-1.15-7.99h-22.92l-1,7.99h-30.69c-1.43,0-2.61,1.17-2.61,2.61s1.17,2.61,2.61,2.61h17.84c1.53,0,2.78,1.17,2.78,2.61s-1.25,2.61-2.78,2.61h-2.33c-1.43,0-2.61,1.17-2.61,2.61s1.17,2.61,2.61,2.61h19.01c1.53,0,2.78,1.17,2.78,2.61s-1.25,2.61-2.78,2.61h-3c-1.43,0-2.61,1.17-2.61,2.61s1.17,2.61,2.61,2.61,2.86,1.03,2.86,2.61c0,1.43-1.25,2.61-2.78,2.61h-14.96c-1.44,0-2.61,1.17-2.61,2.61s1.17,2.61,2.61,2.61h18.88c1.43,0,2.61,1.17,2.61,2.61s-1.17,2.61-2.61,2.61h-2.8c-1.43,0-2.61,1.17-2.61,2.61s1.17,2.61,2.61,2.61h21.04c1.43,0,2.61-1.17,2.61-2.61s-1.17-2.61-2.61-2.61h-2.84c-1.43,0-2.61-1.17-2.61-2.61s1.17-2.61,2.61-2.61h6.32c1.43,0,2.61-1.17,2.61-2.61s-1.17-2.61-2.61-2.61h-1.25c-1.53,0-2.78-1.17-2.78-2.61s1.25-2.61,2.78-2.61h24.27c1.43,0,2.61-1.17,2.61-2.61s-1.17-2.61-2.61-2.61h-12.15c-1.53,0-2.78-1.17-2.78-2.61s1.25-2.61,2.78-2.61h9.42c1.43,0,2.61-1.17,2.61-2.61s-1.17-2.61-2.61-2.61h-15.35c-1.53,0-2.78-1.17-2.78-2.61s1.25-2.61,2.78-2.61ZM243.34,88.62h-16.75l-.72,6.51h18.22l-.75-6.51ZM245.44,113.11h-20.77l-.78,6.51h22.27l-.71-6.51ZM281.84,141.08h-3.77c-1.44,0-2.61,1.17-2.61,2.61s1.17,2.61,2.61,2.61h3.77c1.43,0,2.61-1.17,2.61-2.61s-1.17-2.61-2.61-2.61Z"/>
    <path class="cls-1" d="M252.66,98.34c.01-.2-43.33-.24-43.33-.24l15.33-13.72h2.27l-.11,1.3h16.47l-1.08-12.31,4.51-3.83v-1.43h-1.34v-8.71h-20.66v8.71h-1.34v1.43l1.46,1.24h-3.43l-30.12,26.44,17.24,13.39h47.33s-4.08-.27-3.21-12.28ZM242.79,60.12h1.88v8h-1.88v-8ZM225.44,60.12h1.88v8h-1.88v-8Z"/>
  </g>
  <polygon points="301.38 93.43 300.59 92.95 300.59 93.43 301.38 93.43"/>
  <path d="M281.03,100.3c-.04,3.98-.16,4.02-9.12,4.02s-8.72-.08-8.72-6.95c0-4.06.32-5.62,1.29-6.43.8-.64,2.29-.8,7.39-.8,5.54,0,7.79.24,8.27.92.32.44.4.8.48,2.37h8.15v-1.33c0-4.42-.88-6.39-3.33-7.55-1.85-.88-4.34-1.12-11.25-1.12-13.82,0-16.79.68-18.32,4.06-.64,1.53-.84,3.7-.84,9.92,0,3.17.04,5.38.16,6.59.32,3.01,1.21,4.58,3.17,5.58,2.21,1.12,5.58,1.45,15.79,1.45,6.15,0,9.12-.28,11.29-1,2.77-1,3.86-2.97,3.86-7.19,0-.4-.04-1-.08-2.53h-8.19Z"/>
  <polygon points="319.03 110.63 327.58 110.63 327.58 109.47 319.03 104.23 319.03 110.63"/>
  <polygon points="300.59 93.43 300.59 92.95 292.04 87.72 292.04 110.63 300.59 110.63 300.59 100.94 313.65 100.94 301.38 93.43 300.59 93.43"/>
  <polygon points="408.85 83.83 400.53 83.83 400.58 88.2 408.85 89.85 408.85 83.83"/>
  <polygon points="385.87 83.83 378.76 83.83 387.03 85.49 385.87 83.83"/>
  <path d="M429.86,90.14c6.11,0,7.99.16,8.8.72.52.36.6.68.64,2.25h8.15c-.04-3.94-.36-5.58-1.49-6.91-1.77-2.09-5.46-2.77-15.42-2.77-9.4,0-13.66.52-15.58,1.89-1.43,1-2.23,2.44-2.62,5.23l8.22,1.65c.74-2.04,2.91-2.06,9.3-2.06Z"/>
  <path d="M447.49,96.16v-.72h-10.71l10.69,2.14c0-.51.01-.99.01-1.42Z"/>
  <polygon points="479.3 99.94 479.3 94.04 458.78 94.04 458.78 90.14 480.39 90.14 480.39 83.83 450.74 83.83 450.74 98.24 459.27 99.94 479.3 99.94"/>
  <polygon points="319.03 83.83 319.03 93.43 301.38 93.43 313.65 100.94 319.03 100.94 319.03 104.23 327.58 109.47 327.58 83.83 319.03 83.83"/>
  <polygon points="300.59 83.83 292.04 83.83 292.04 87.72 300.59 92.95 300.59 83.83"/>
  <path d="M343.65,83.83l-14.18,26.79h9.32l2.29-4.54h17.71l2.29,4.54h9.28l-14.02-26.79h-12.69ZM343.97,100.22l5.18-10.16h1.61l5.18,10.16h-11.97Z"/>
  <polygon points="400.58 88.2 400.73 103.8 399.89 103.8 387.03 85.49 378.76 83.83 371.57 83.83 371.57 110.63 379.89 110.63 379.68 90.62 380.57 90.62 394.67 110.63 408.85 110.63 408.85 89.85 400.58 88.2"/>
  <path d="M447.48,97.58c-.04,2.63-.17,6.02-.27,7.1-.32,3.13-2.05,4.98-5.26,5.62-.62.13-1.24.23-1.91.32-2.32.31-5.3.4-10.9.4-4.76,0-7.81-.1-9.97-.4-2.01-.28-3.24-.75-4.33-1.49-1.49-1-2.25-2.49-2.57-5.1-.16-1.16-.24-3.82-.24-7.23,0-2.64.09-4.67.31-6.26l8.22,1.65c-.37,1.03-.38,2.59-.38,4.93,0,4.54.24,5.9,1.12,6.63q.92.72,8.48.84c7.63-.04,8.27-.08,9.2-.8.44-.44.56-1.08.56-3.01h-10.73v-5.34h7.97l10.7,2.14Z"/>
  <polygon points="458.78 104.2 458.78 99.94 459.27 99.94 450.74 98.24 450.74 110.63 480.55 110.63 480.55 104.2 458.78 104.2"/>
  <polygon points="108.45 90.43 109.36 90.19 108.57 90.19 108.45 90.43"/>
  <polygon points="60.34 101 68.77 101 87.15 96.1 87.15 84 78.65 84 78.65 93.54 60.34 93.54 60.34 84 51.84 84 51.84 105.51 60.34 103.24 60.34 101"/>
  <polygon points="108.57 90.19 109.36 90.19 117.78 87.95 115.71 84 103.11 84 98.27 93.14 108.45 90.43 108.57 90.19"/>
  <path d="M148.99,111.01c6.1,0,9.06-.28,11.21-1,2.75-1,3.83-2.95,3.83-7.14,0-.4-.04-1-.08-2.51h-.36l-16.57,10.65c.63,0,1.28,0,1.97,0Z"/>
  <polygon points="166.74 110.61 174.84 110.61 174.84 100.44 179.27 100.44 191.19 110.61 203.48 110.61 186.81 97.05 202.21 83.84 189.8 83.84 179.27 93.66 174.84 93.66 174.84 93.13 166.74 98.34 166.74 110.61"/>
  <polygon points="78.65 101 78.65 110.61 87.15 110.61 87.15 96.1 68.77 101 78.65 101"/>
  <polygon points="60.34 103.24 51.84 105.51 51.84 110.61 60.34 110.61 60.34 103.24"/>
  <polygon points="98.28 110.61 100.55 106.11 118.15 106.11 120.42 110.61 129.64 110.61 117.78 87.95 109.36 90.19 110.17 90.19 115.32 100.28 103.43 100.28 108.45 90.43 98.27 93.14 89.02 110.61 98.28 110.61"/>
  <path d="M146.75,104.35c-8.54,0-8.66-.08-8.66-6.9,0-4.03.32-5.59,1.28-6.38.8-.64,2.27-.8,7.34-.8,5.51,0,7.74.24,8.22.92.32.44.4.8.48,2.35h8.1v-1.32c0-4.39-.88-6.34-3.31-7.5-1.84-.88-4.31-1.12-11.17-1.12-13.72,0-16.68.68-18.19,4.03-.64,1.52-.84,3.67-.84,9.85,0,3.15.04,5.35.16,6.54.32,2.99,1.2,4.55,3.15,5.55,2.05,1.04,5.1,1.39,13.71,1.43l16.57-10.65h-7.78c-.04,3.95-.16,3.99-9.06,3.99Z"/>
  <polygon points="166.74 84 166.74 98.34 174.84 93.13 174.84 84 166.74 84"/>
</svg>