<?xml version="1.0" encoding="UTF-8"?>
<svg id="Layer_1" data-name="Layer 1" xmlns="http://www.w3.org/2000/svg" viewBox="0 0 250 125">
  <defs>
    <style>
      .cls-1 {
        fill: #111235;
      }

      .cls-2 {
        fill: #c06ca8;
      }

      .cls-3 {
        fill: #d391b3;
      }
    </style>
  </defs>
  <rect class="cls-1" x="-9" y="-9" width="268" height="143"/>
  <g>
    <path class="cls-2" d="M48.73,42.57v14.28h29.51v-14.28h13.69v39.86h-13.69v-14.4h-29.51v14.4h-13.69v-39.86h13.69Z"/>
    <path class="cls-3" d="M154.47,75.02h-8.36v7.41h-12.41v-7.41h-34.2v-15.24l25.46-17.21h21.15v23.49h8.36v8.96ZM133.71,51.83h-2.64l-19.86,12.67v1.55h22.5v-14.22Z"/>
    <path class="cls-2" d="M214.83,67.07c.06,2.27.13,3.17.13,3.76,0,6.46-1.8,9.38-6.56,10.82-3.47,1.02-8.17,1.37-17.68,1.37-16.78,0-22.18-.48-25.65-2.33-2.83-1.49-4.11-3.7-4.63-7.77-.19-1.79-.32-5.08-.32-10.16,0-8.9.26-12.19,1.22-14.4,2.31-5.38,7.01-6.39,29.44-6.39,11.44,0,15.43.42,18.39,1.85,3.66,1.73,4.95,4.66,4.95,11.06v1.97h-13.05c-.13-2.63-.26-3.17-1.03-3.76-.96-.78-4.76-1.14-12.99-1.14s-10.54.24-11.83,1.2c-1.54,1.2-2.06,3.53-2.06,9.56,0,10.22.19,10.34,13.95,10.34s14.53-.06,14.59-5.98h13.11Z"/>
  </g>
</svg>