<?xml version="1.0" encoding="UTF-8"?>
<svg id="Layer_1" data-name="Layer 1" xmlns="http://www.w3.org/2000/svg" viewBox="0 0 250 125">
  <defs>
    <style>
      .cls-1 {
        fill: #5682c2;
      }

      .cls-2 {
        fill: #2a58a8;
      }
    </style>
  </defs>
  <path class="cls-2" d="M39.57,38.49v17.21h33.05v-17.21h15.34v48.03h-15.34v-17.35h-33.05v17.35h-15.34v-48.03h15.34Z"/>
  <path class="cls-1" d="M158.01,77.58h-9.36v8.93h-13.9v-8.93h-38.31v-18.36l28.51-20.74h23.69v28.3h9.36v10.8ZM134.76,49.65h-2.95l-22.25,15.27v1.87h25.2v-17.14Z"/>
  <path class="cls-2" d="M225.62,68.01c.07,2.74.14,3.82.14,4.54,0,7.78-2.02,11.3-7.34,13.03-3.89,1.22-9.15,1.66-19.8,1.66-18.79,0-24.84-.58-28.73-2.81-3.17-1.8-4.61-4.46-5.18-9.36-.22-2.16-.36-6.12-.36-12.24,0-10.73.29-14.69,1.37-17.35,2.59-6.48,7.85-7.71,32.98-7.71,12.82,0,17.28.5,20.59,2.23,4.1,2.09,5.54,5.62,5.54,13.32v2.38h-14.62c-.14-3.17-.29-3.82-1.15-4.54-1.08-.94-5.33-1.37-14.54-1.37s-11.81.29-13.25,1.44c-1.73,1.44-2.3,4.25-2.3,11.52,0,12.31.22,12.46,15.63,12.46s16.27-.07,16.34-7.2h14.69Z"/>
</svg>