<?xml version="1.0" encoding="UTF-8"?>
<svg id="Layer_1" data-name="Layer 1" xmlns="http://www.w3.org/2000/svg" viewBox="0 0 250 125">
  <defs>
    <style>
      .cls-1 {
        fill: #111235;
      }

      .cls-2 {
        fill: #fff;
      }

      .cls-3 {
        fill: #c8da2c;
      }
    </style>
  </defs>
  <rect class="cls-1" x="-9" y="-9" width="268" height="143"/>
  <g>
    <path class="cls-2" d="M48.17,42.57v14.28h29.72v-14.28h13.79v39.86h-13.79v-14.4h-29.72v14.4h-13.79v-39.86h13.79Z"/>
    <path class="cls-3" d="M154.69,75.02h-8.42v7.41h-12.5v-7.41h-34.45v-15.24l25.64-17.21h21.31v23.49h8.42v8.96ZM133.77,51.83h-2.66l-20.01,12.67v1.55h22.67v-14.22Z"/>
    <path class="cls-2" d="M215.49,67.07c.06,2.27.13,3.17.13,3.76,0,6.45-1.81,9.38-6.61,10.82-3.5,1.02-8.23,1.37-17.81,1.37-16.9,0-22.34-.48-25.84-2.33-2.85-1.49-4.14-3.71-4.66-7.77-.19-1.79-.32-5.08-.32-10.16,0-8.91.26-12.19,1.23-14.4,2.33-5.38,7.06-6.4,29.66-6.4,11.53,0,15.54.42,18.52,1.85,3.69,1.73,4.99,4.66,4.99,11.06v1.97h-13.15c-.13-2.63-.26-3.17-1.04-3.76-.97-.78-4.79-1.14-13.08-1.14s-10.62.24-11.92,1.19c-1.55,1.2-2.07,3.53-2.07,9.56,0,10.22.19,10.34,14.05,10.34s14.64-.06,14.7-5.98h13.21Z"/>
  </g>
</svg>