<svg width="1001" height="686" viewBox="0 0 1001 686" fill="none" xmlns="http://www.w3.org/2000/svg">
<rect width="1000" height="685" transform="translate(0.668457 0.589844)" fill="#005AFF"/>
<path d="M332.435 562.836V624.814H321.824V582.363L302.091 624.814H294.737L274.911 582.363V624.814H264.3V562.836H275.753L298.465 611.441L321.084 562.836H332.444H332.435Z" fill="white"/>
<path d="M359.295 621.381C354.238 618.673 350.232 614.9 347.287 610.054C344.342 605.207 342.869 599.749 342.869 593.687C342.869 587.625 344.342 582.184 347.287 577.371C350.232 572.558 354.238 568.794 359.295 566.085C364.352 563.377 369.889 562.027 375.914 562.027C381.939 562.027 387.56 563.377 392.626 566.085C397.684 568.794 401.672 572.55 404.584 577.371C407.504 582.184 408.959 587.625 408.959 593.687C408.959 599.749 407.504 605.207 404.584 610.054C401.664 614.9 397.675 618.673 392.626 621.381C387.569 624.089 381.998 625.439 375.914 625.439C369.83 625.439 364.352 624.089 359.295 621.381ZM387.367 613.802C390.716 611.932 393.341 609.257 395.235 605.778C397.128 602.298 398.071 598.273 398.071 593.696C398.071 589.118 397.12 585.101 395.235 581.655C393.341 578.209 390.724 575.56 387.367 573.715C384.018 571.871 380.197 570.948 375.914 570.948C371.631 570.948 367.819 571.871 364.462 573.715C361.113 575.56 358.487 578.201 356.594 581.655C354.7 585.101 353.758 589.118 353.758 593.696C353.758 598.273 354.7 602.298 356.594 605.778C358.487 609.257 361.104 611.932 364.462 613.802C367.811 615.671 371.631 616.61 375.914 616.61C380.197 616.61 384.009 615.671 387.367 613.802Z" fill="white"/>
<path d="M472.515 624.813H461.904L429.978 578.53V624.813H419.366V562.742H429.978L461.904 608.941V562.742H472.515V624.813Z" fill="white"/>
<path d="M487.395 577.371C490.341 572.558 494.346 568.794 499.403 566.085C504.461 563.377 509.998 562.027 516.023 562.027C522.915 562.027 529.041 563.646 534.409 566.89C539.778 570.135 543.674 574.721 546.089 580.666H533.332C531.658 577.396 529.327 574.956 526.348 573.355C523.369 571.753 519.927 570.948 516.014 570.948C511.731 570.948 507.919 571.871 504.562 573.715C501.213 575.56 498.587 578.201 496.694 581.655C494.801 585.101 493.858 589.118 493.858 593.696C493.858 598.273 494.801 602.29 496.694 605.736C498.587 609.182 501.204 611.848 504.562 613.718C507.911 615.587 511.731 616.526 516.014 616.526C519.927 616.526 523.369 615.722 526.348 614.12C529.327 612.51 531.658 610.079 533.332 606.809H546.089C543.666 612.753 539.778 617.331 534.409 620.543C529.041 623.754 522.915 625.355 516.023 625.355C509.939 625.355 504.385 624.005 499.361 621.297C494.338 618.589 490.349 614.833 487.404 610.012C484.459 605.199 482.986 599.758 482.986 593.687C482.986 587.617 484.459 582.184 487.404 577.371H487.395Z" fill="white"/>
<path d="M600.231 562.836V571.128H583.014V624.814H572.403V571.128H555.085V562.836H600.231Z" fill="white"/>
<path d="M623.83 621.381C618.772 618.673 614.767 614.9 611.822 610.054C608.876 605.207 607.404 599.749 607.404 593.687C607.404 587.625 608.876 582.184 611.822 577.371C614.767 572.558 618.772 568.794 623.83 566.085C628.887 563.377 634.424 562.027 640.449 562.027C646.474 562.027 652.095 563.377 657.161 566.085C662.218 568.794 666.207 572.55 669.118 577.371C672.038 582.184 673.494 587.625 673.494 593.687C673.494 599.749 672.038 605.207 669.118 610.054C666.198 614.9 662.21 618.673 657.161 621.381C652.104 624.089 646.533 625.439 640.449 625.439C634.365 625.439 628.887 624.089 623.83 621.381ZM651.902 613.802C655.251 611.932 657.876 609.257 659.769 605.778C661.663 602.298 662.605 598.273 662.605 593.696C662.605 589.118 661.654 585.101 659.769 581.655C657.876 578.209 655.259 575.56 651.902 573.715C648.552 571.871 644.732 570.948 640.449 570.948C636.166 570.948 632.354 571.871 628.996 573.715C625.647 575.56 623.022 578.201 621.128 581.655C619.235 585.101 618.293 589.118 618.293 593.696C618.293 598.273 619.235 602.298 621.128 605.778C623.022 609.257 625.639 611.932 628.996 613.802C632.345 615.671 636.166 616.61 640.449 616.61C644.732 616.61 648.544 615.671 651.902 613.802Z" fill="white"/>
<path d="M737.086 624.813H726.475L694.549 578.53V624.813H683.938V562.742H694.549L726.475 608.941V562.742H737.086V624.813Z" fill="white"/>
<path d="M67.6075 433.017C72.202 424.658 78.7151 418.143 87.1552 413.482C95.5953 408.82 105.306 406.48 116.287 406.48C130.222 406.48 141.936 410.094 151.428 417.33C160.928 424.557 167.046 434.384 169.789 446.793H141.246C138.402 446.793 135.81 445.326 134.127 443.02C132.444 440.714 130.433 438.845 128.077 437.411C124.542 435.256 120.453 434.183 115.808 434.183C108.63 434.183 102.908 436.673 98.6331 441.645C94.3583 446.617 92.2209 453.258 92.2209 461.567C92.2209 469.876 94.3583 476.667 98.6331 481.647C102.908 486.619 108.63 489.11 115.808 489.11C120.453 489.11 124.542 488.036 128.077 485.882C130.433 484.448 132.452 482.578 134.127 480.272C135.801 477.967 138.402 476.491 141.246 476.491H169.789C167.046 488.9 160.928 498.718 151.428 505.954C141.927 513.181 130.214 516.803 116.287 516.803C105.306 516.803 95.6037 514.473 87.1552 509.802C78.7067 505.141 72.1936 498.626 67.6075 490.267C63.013 481.907 60.7241 472.341 60.7241 461.575C60.7241 450.809 63.0214 441.393 67.6075 433.034V433.017Z" fill="white"/>
<path d="M337.919 407.555L299.447 516.016H259.712L221.087 407.555H254.334L279.663 485.857L304.832 407.555H337.919Z" fill="white"/>
<path d="M403.378 433.017C407.973 424.658 414.486 418.143 422.926 413.482C431.366 408.82 441.077 406.48 452.058 406.48C465.993 406.48 477.707 410.094 487.199 417.33C496.699 424.557 502.817 434.384 505.56 446.793H477.017C474.172 446.793 471.581 445.326 469.898 443.02C468.215 440.714 466.204 438.845 463.847 437.411C460.313 435.256 456.224 434.183 451.579 434.183C444.401 434.183 438.679 436.673 434.404 441.645C430.129 446.617 427.992 453.258 427.992 461.567C427.992 469.876 430.129 476.667 434.404 481.647C438.679 486.619 444.401 489.11 451.579 489.11C456.224 489.11 460.313 488.036 463.847 485.882C466.204 484.448 468.223 482.578 469.898 480.272C471.572 477.967 474.172 476.491 477.017 476.491H505.56C502.817 488.9 496.699 498.718 487.199 505.954C477.698 513.181 465.985 516.803 452.058 516.803C441.077 516.803 431.374 514.473 422.926 509.802C414.477 505.141 407.964 498.626 403.378 490.267C398.784 481.907 396.495 472.341 396.495 461.575C396.495 450.809 398.792 441.393 403.378 433.034V433.017Z" fill="white"/>
<path d="M665.003 431.71V449.402H700.623V472.325H665.003V491.861H705.369V516.016H633.969V407.555H705.369V431.71H665.003Z" fill="white"/>
<path d="M723.796 433.017C728.39 424.658 734.903 418.143 743.343 413.482C751.783 408.82 761.494 406.48 772.476 406.48C786.411 406.48 798.124 410.094 807.624 417.33C817.125 424.557 823.242 434.384 825.986 446.793H797.443C794.598 446.793 792.007 445.326 790.324 443.02C788.649 440.714 786.629 438.845 784.273 437.411C780.739 435.256 776.649 434.183 772.004 434.183C764.827 434.183 759.104 436.673 754.83 441.645C750.555 446.617 748.418 453.258 748.418 461.567C748.418 469.876 750.555 476.667 754.83 481.647C759.104 486.619 764.827 489.11 772.004 489.11C776.649 489.11 780.739 488.036 784.273 485.882C786.629 484.448 788.649 482.578 790.324 480.272C792.007 477.958 794.598 476.491 797.443 476.491H825.986C823.242 488.9 817.116 498.718 807.624 505.954C798.124 513.181 786.411 516.803 772.476 516.803C761.494 516.803 751.792 514.473 743.343 509.802C734.895 505.141 728.382 498.626 723.796 490.267C719.201 481.907 716.912 472.341 716.912 461.575C716.912 450.809 719.21 441.393 723.796 433.034V433.017Z" fill="white"/>
<path d="M940.613 407.555V516.016H909.587V472.476H871.754V516.016H840.729V407.555H871.754V448.32H909.587V407.555H940.613Z" fill="white"/>
<path d="M208.535 515.723V487.232H215.553V407.555H184.527V516.016H209.494L208.535 515.723Z" fill="white"/>
<path d="M208.524 485.02H177.414V516.017H208.524V485.02Z" fill="white"/>
<path d="M532.172 407.555V431.551H561.615V516.016H585.648V487.543H592.649V431.551H622.404V407.555H532.172Z" fill="white"/>
<path d="M585.651 485.02H554.542V516.017H585.651V485.02Z" fill="white"/>
<path d="M375.56 407.555H351.544V516.016H382.578V436.028H375.56V407.555Z" fill="white"/>
<path d="M375.548 407.555H344.439V438.552H375.548V407.555Z" fill="white"/>
<path d="M497.111 60.7461C565.363 61.0573 622.845 106.951 640.686 169.552H585.09L585.091 169.55H576.352C562.744 169.55 553.38 161.808 548.511 156.939C548.169 156.597 547.782 156.271 547.358 155.957C534.457 143.956 517.315 136.455 498.426 135.955C494.969 135.958 490.404 135.648 488.236 132.313C479.436 133.165 471.06 135.461 463.347 138.966C463.201 141.758 461.683 144.421 459.073 145.908C458.783 146.073 458.494 146.239 458.207 146.408C455.617 147.929 452.55 147.92 450.056 146.655C443.029 151.693 436.864 157.857 431.826 164.885C433.091 167.379 433.103 170.444 431.581 173.034C431.412 173.321 431.246 173.61 431.081 173.9C429.594 176.51 426.93 178.031 424.137 178.176C420.632 185.888 418.336 194.265 417.484 203.065C419.83 204.589 421.377 207.239 421.357 210.244C421.356 210.412 421.355 210.58 421.355 210.748C421.355 210.916 421.356 211.084 421.357 211.252C421.376 214.257 419.831 216.907 417.484 218.431C418.336 227.231 420.632 235.609 424.137 243.322C426.931 243.467 429.594 244.986 431.081 247.596C431.246 247.886 431.412 248.175 431.581 248.462C433.103 251.053 433.092 254.119 431.826 256.613C436.864 263.64 443.03 269.804 450.058 274.841C452.552 273.576 455.617 273.565 458.207 275.086C458.494 275.255 458.783 275.423 459.073 275.588C461.683 277.075 463.199 279.737 463.345 282.53C471.059 286.036 479.437 288.332 488.238 289.183C490.407 285.845 493.833 285.54 498.439 285.54C517.873 285.023 535.458 277.093 548.475 264.477C548.804 264.22 549.109 263.956 549.384 263.681C553.967 259.099 562.53 251.977 574.865 251.154H640.907C623.321 314.173 565.621 360.456 497.06 360.746C490.733 360.746 484.767 357.673 483.211 351.203C466.777 349.722 451.16 345.398 436.851 338.723C432.968 342.785 426.679 343.837 421.594 340.903C421.235 340.696 420.877 340.487 420.519 340.277C415.46 337.301 413.273 331.312 414.89 325.929C401.776 316.604 390.325 305.075 381.07 291.881C375.679 293.466 369.704 291.241 366.758 286.165C366.55 285.807 366.342 285.446 366.137 285.086C363.234 279.984 364.322 273.704 368.407 269.844C361.815 255.518 357.545 239.892 356.083 223.456C350.624 222.141 346.557 217.238 346.532 211.372V210.124C346.556 204.258 350.624 199.357 356.083 198.041C357.544 181.606 361.815 165.982 368.407 151.656C364.32 147.796 363.233 141.511 366.137 136.408C366.342 136.048 366.55 135.687 366.758 135.329C369.704 130.252 375.68 128.029 381.072 129.615C390.326 116.422 401.777 104.895 414.89 95.5703C413.27 90.1872 415.458 84.196 420.519 81.2188C420.876 81.0088 421.235 80.7997 421.594 80.5925C426.681 77.658 432.971 78.7102 436.855 82.7751C451.163 76.1011 466.778 71.7777 483.211 70.2968C484.767 63.8117 490.004 60.7457 497.111 60.7461ZM459.488 323.024C453.035 325.511 446.557 327.352 440.239 328.714C440.379 329.967 440.33 331.247 440.081 332.509C453.513 338.737 468.151 342.787 483.545 344.21C483.646 343.917 483.755 343.627 483.877 343.344C478.849 338.533 473.941 333.148 469.463 327.137C468.327 327.249 467.152 327.167 465.983 326.865C465.784 326.814 465.585 326.763 465.386 326.71C465.187 326.658 464.987 326.603 464.788 326.55C462.599 325.962 460.776 324.689 459.488 323.024ZM493.301 302.037C488.392 306.649 483.221 310.564 477.901 313.887C478.536 315.691 478.663 317.698 478.15 319.689C477.723 321.342 476.905 322.79 475.824 323.962C479.724 329.075 483.97 333.721 488.347 337.94C490.358 336.576 492.785 335.781 495.399 335.791H496.413V302.29C496.249 302.29 496.085 302.291 495.921 302.291C495.715 302.291 495.51 302.291 495.304 302.29C494.614 302.285 493.943 302.197 493.301 302.037ZM447.147 287.548C440.923 289.266 434.785 290.304 428.778 290.792C428.464 292.775 427.553 294.684 426.039 296.225C424.948 297.334 423.66 298.137 422.287 298.628C423.37 305.044 424.986 311.202 426.922 317.033C429.053 317.044 431.209 317.596 433.179 318.754C433.476 318.928 433.774 319.102 434.073 319.274C435.41 320.046 436.548 321.031 437.474 322.157C444.044 320.807 450.76 318.934 457.407 316.339C457.446 315.668 457.554 314.988 457.735 314.313C458.079 313.035 458.657 311.882 459.409 310.888C456.342 304.757 453.792 298.12 451.963 290.941C451.523 290.78 451.09 290.581 450.669 290.341C450.313 290.139 449.958 289.934 449.605 289.726C448.622 289.149 447.797 288.403 447.147 287.548ZM388.145 286.512C387.797 287.071 387.402 287.606 386.963 288.11C395.673 300.47 406.415 311.284 418.699 320.059C419.172 319.651 419.672 319.282 420.195 318.954C418.076 312.526 416.314 305.675 415.183 298.49C413.997 298.013 412.884 297.297 411.916 296.346C411.623 296.058 411.33 295.768 411.04 295.478C409.616 294.048 408.715 292.294 408.335 290.454C401.287 289.678 394.526 288.282 388.145 286.512ZM460.789 289.049C460.258 289.566 459.669 290.007 459.037 290.362C460.643 296.34 462.79 301.921 465.347 307.128C466.831 306.818 468.409 306.84 469.974 307.26C470.14 307.305 470.306 307.35 470.472 307.394C470.638 307.438 470.807 307.481 470.974 307.524C471.824 307.744 472.62 308.068 473.353 308.477C478.343 305.431 483.186 301.846 487.78 297.625C487.537 297.145 487.338 296.638 487.189 296.112C477.868 295.169 468.987 292.733 460.789 289.049ZM426.365 260.989C425.265 261.271 424.134 261.323 423.039 261.163C421.697 267.161 421.009 273.061 420.849 278.823C422.439 279.274 423.94 280.123 425.19 281.377C425.431 281.619 425.674 281.86 425.918 282.1C426.478 282.65 426.957 283.254 427.359 283.89C433.326 283.459 439.416 282.451 445.583 280.726C445.612 280.586 445.644 280.444 445.68 280.304C438.26 274.935 431.734 268.409 426.365 260.989ZM397.074 247.251C395.896 248.436 394.406 249.343 392.682 249.824C391.473 250.162 390.252 250.26 389.072 250.15C386.582 256.121 384.674 262.156 383.203 268.086C385.074 269.158 386.694 270.726 387.838 272.736C388.009 273.036 388.182 273.335 388.355 273.634C389.48 275.573 390.02 277.689 390.037 279.781C396.195 281.488 402.679 282.816 409.407 283.537C409.847 282.755 410.4 282.018 411.067 281.353C411.897 280.526 412.838 279.877 413.84 279.402C413.986 272.12 414.916 264.604 416.863 256.93C416.683 256.622 416.505 256.311 416.328 256C416.159 255.703 416.01 255.4 415.881 255.093C409.106 253.057 402.849 250.384 397.074 247.251ZM365.62 221.917C364.827 222.412 363.973 222.819 363.074 223.128C364.479 238.54 368.481 253.195 374.635 266.65C375.224 266.537 375.817 266.47 376.408 266.443C377.982 260.091 380.049 253.577 382.773 247.104C381.674 245.956 380.835 244.527 380.377 242.89C380.267 242.495 380.157 242.097 380.051 241.701C379.52 239.72 379.626 237.718 380.24 235.912C374.829 231.505 369.972 226.757 365.62 221.917ZM409.452 219.08C404.982 223.61 401.163 228.424 397.896 233.411C398.539 234.334 399.039 235.382 399.347 236.531C399.435 236.86 399.525 237.191 399.616 237.519C399.929 238.638 400.034 239.767 399.962 240.864C404.982 243.621 410.38 245.997 416.182 247.866C416.558 247.146 417.04 246.475 417.62 245.88C413.936 237.682 411.5 228.8 410.557 219.478C410.177 219.371 409.808 219.237 409.452 219.08ZM383.699 191.452C378.74 195.615 374.264 200.095 370.225 204.678C371.047 206.351 371.51 208.234 371.502 210.225C371.501 210.399 371.5 210.574 371.5 210.748C371.5 210.922 371.501 211.097 371.502 211.271C371.51 213.2 371.079 215.029 370.304 216.664C374.585 221.479 379.349 226.175 384.656 230.496C385.408 230.057 386.231 229.707 387.114 229.47C388.821 229.013 390.543 229.029 392.143 229.434C395.696 224.03 399.869 218.799 404.772 213.874C404.521 213.082 404.385 212.239 404.38 211.365C404.378 211.16 404.378 210.953 404.378 210.748C404.378 210.543 404.378 210.336 404.38 210.131C404.386 209.178 404.55 208.262 404.845 207.409C400.17 202.765 396.15 197.844 392.693 192.758C390.913 193.366 388.94 193.48 386.982 192.975C385.768 192.661 384.664 192.137 383.699 191.452ZM415.971 173.198C410.103 175.127 404.653 177.578 399.59 180.413C399.849 181.827 399.807 183.319 399.409 184.799L399.147 185.799C398.915 186.697 398.564 187.534 398.122 188.3C401.395 193.185 405.208 197.897 409.652 202.329C409.946 202.209 410.248 202.105 410.557 202.018C411.499 192.697 413.936 183.816 417.62 175.618C416.925 174.905 416.371 174.083 415.971 173.198ZM374.635 154.847C368.481 168.303 364.478 182.958 363.074 198.37C363.92 198.66 364.726 199.036 365.479 199.492C369.736 194.712 374.479 190.009 379.762 185.629C379.393 184.093 379.382 182.446 379.804 180.809C379.855 180.611 379.908 180.41 379.961 180.211C380.013 180.013 380.066 179.812 380.119 179.614C380.621 177.747 381.622 176.146 382.937 174.916C380.061 168.276 377.89 161.58 376.242 155.047C375.706 155.016 375.169 154.95 374.635 154.847ZM408.203 137.531C401.901 138.295 395.821 139.583 390.032 141.203C390.105 143.46 389.571 145.764 388.355 147.86C388.182 148.159 388.009 148.46 387.838 148.76C386.665 150.821 384.994 152.422 383.062 153.495C384.633 159.696 386.687 166.003 389.389 172.225C390.365 172.188 391.364 172.293 392.358 172.56C393.731 172.93 394.959 173.572 396.002 174.407C402.149 170.949 408.851 168.011 416.156 165.813C416.211 165.707 416.268 165.601 416.328 165.496C416.468 165.249 416.611 165.002 416.754 164.757C414.801 157.318 413.808 150.024 413.564 142.944C412.435 142.468 411.373 141.775 410.446 140.864C409.45 139.884 408.701 138.747 408.203 137.531ZM427.374 136.982C426.888 138.082 426.195 139.114 425.292 140.015C425.05 140.256 424.809 140.501 424.569 140.745C423.414 141.92 422.038 142.746 420.574 143.227C420.797 148.824 421.523 154.546 422.868 160.359C424.016 160.167 425.207 160.212 426.365 160.508C431.734 153.089 438.26 146.563 445.68 141.194C445.582 140.815 445.512 140.431 445.468 140.047C439.345 138.367 433.298 137.39 427.374 136.982ZM418.699 101.439C406.415 110.214 395.673 121.028 386.963 133.388C387.288 133.76 387.591 134.148 387.866 134.552C394.224 132.759 400.962 131.326 407.994 130.511C408.462 129.138 409.24 127.845 410.325 126.741C410.613 126.448 410.903 126.157 411.193 125.867C412.219 124.845 413.412 124.095 414.683 123.611C415.784 116.108 417.586 108.961 419.774 102.269C419.403 102.014 419.044 101.736 418.699 101.439ZM437.919 98.7639C436.922 100.131 435.633 101.32 434.073 102.22C433.774 102.392 433.476 102.566 433.179 102.74C431.053 103.99 428.709 104.537 426.414 104.455C424.433 110.514 422.801 116.919 421.757 123.596C423.055 124.083 424.274 124.846 425.316 125.892C426.503 127.083 427.324 128.5 427.786 130.002C434.257 130.444 440.885 131.519 447.613 133.388C448.177 132.766 448.843 132.217 449.605 131.77C449.958 131.562 450.313 131.357 450.669 131.155C450.922 131.01 451.18 130.88 451.441 130.764C453.187 123.656 455.641 117.076 458.605 110.988C457.817 109.984 457.209 108.812 456.845 107.507C456.526 106.365 456.42 105.212 456.502 104.093C450.297 101.755 444.047 100.029 437.919 98.7639ZM473.675 112.421C472.656 113.212 471.464 113.817 470.14 114.172C469.81 114.26 469.479 114.35 469.15 114.441C467.619 114.869 466.072 114.913 464.609 114.636C462.184 119.705 460.145 125.123 458.616 130.913C459.408 131.302 460.142 131.818 460.789 132.449C468.987 128.765 477.867 126.328 487.189 125.386C487.4 124.638 487.712 123.93 488.108 123.281C483.513 119.057 478.668 115.468 473.675 112.421ZM487.808 83.1693C483.277 87.5561 478.892 92.4013 474.89 97.7509C475.954 98.9021 476.767 100.319 477.201 101.939C477.611 103.471 477.641 105.017 477.35 106.473C483.146 110.014 488.774 114.244 494.088 119.303C494.485 119.243 494.891 119.209 495.304 119.206C495.51 119.205 495.715 119.205 495.921 119.205C496.085 119.205 496.249 119.204 496.413 119.205V85.7027C496.25 85.702 496.085 85.7027 495.921 85.7027C495.747 85.7027 495.572 85.7039 495.399 85.7046C492.547 85.7161 489.916 84.7695 487.808 83.1693ZM483.543 77.2876C468.15 78.7107 453.514 82.761 440.083 88.9888C440.288 90.0305 440.357 91.0845 440.296 92.1258C446.576 93.4671 453.015 95.2808 459.435 97.7302C460.605 96.5678 462.079 95.6774 463.781 95.2024C464.176 95.0923 464.572 94.9841 464.968 94.878C466.165 94.5571 467.37 94.4704 468.535 94.5856C473.192 88.2172 478.339 82.5421 483.616 77.497C483.591 77.4279 483.567 77.3574 483.543 77.2876Z" fill="white"/>
</svg>
