<svg width="501" height="751" viewBox="0 0 501 751" fill="none" xmlns="http://www.w3.org/2000/svg">
<rect width="500" height="750" transform="translate(0.668457 0.589844)" fill="#005AFF"/>
<path d="M181.688 559.593V576.74H216.1V598.975H181.688V617.916H220.688V641.328H151.689V536.152H220.688V559.564H181.688V559.593Z" fill="white"/>
<path d="M238.505 560.848C242.946 552.731 249.24 546.437 257.387 541.907C265.534 537.378 274.916 535.113 285.534 535.113C299.004 535.113 310.328 538.613 319.504 545.643C328.681 552.643 334.592 562.172 337.239 574.201H309.651C306.916 574.201 304.416 572.789 302.769 570.525C301.122 568.26 299.21 566.466 296.916 565.084C293.504 562.995 289.534 561.937 285.063 561.937C278.122 561.937 272.593 564.348 268.475 569.172C264.357 573.995 262.269 580.437 262.269 588.495C262.269 596.554 264.328 603.142 268.475 607.966C272.593 612.789 278.122 615.201 285.063 615.201C289.563 615.201 293.504 614.142 296.916 612.054C299.181 610.672 301.151 608.848 302.769 606.613C304.387 604.378 306.887 602.936 309.651 602.936H337.239C334.592 614.966 328.681 624.495 319.504 631.495C310.328 638.495 299.004 642.024 285.534 642.024C274.916 642.024 265.534 639.76 257.387 635.23C249.24 630.701 242.946 624.377 238.505 616.289C234.064 608.172 231.858 598.907 231.858 588.466C231.858 578.025 234.064 568.907 238.505 560.79V560.848Z" fill="white"/>
<path d="M447.98 536.152V641.328H418.01V599.093H381.451V641.328H351.481V536.152H381.451V575.681H418.01V536.152H447.98Z" fill="white"/>
<path d="M53.3329 536.152V559.446H81.8033V641.358H105.009V613.74H111.774V559.446H140.538V536.152H53.3329Z" fill="white"/>
<path d="M105.001 611.285H74.9427V641.344H105.001V611.285Z" fill="white"/>
<path d="M42.3948 436.059C46.836 427.942 53.13 421.648 61.277 417.118C69.4535 412.589 78.8357 410.324 89.4533 410.324C102.924 410.324 114.247 413.824 123.424 420.854C132.6 427.854 138.512 437.383 141.159 449.412H113.571C110.836 449.412 108.336 448 106.688 445.736C105.041 443.471 103.13 441.677 100.836 440.295C97.4239 438.206 93.4533 437.148 88.9827 437.148C82.0416 437.148 76.5122 439.559 72.3946 444.383C68.277 449.206 66.1888 455.647 66.1888 463.706C66.1888 471.765 68.2476 478.353 72.3946 483.177C76.5122 488 82.0416 490.412 88.9827 490.412C93.4827 490.412 97.4239 489.353 100.836 487.265C103.1 485.883 105.071 484.059 106.688 481.824C108.306 479.588 110.806 478.147 113.571 478.147H141.159C138.512 490.177 132.6 499.706 123.424 506.706C114.247 513.706 102.924 517.235 89.4533 517.235C78.8357 517.235 69.4535 514.971 61.3065 510.441C53.1595 505.912 46.8654 499.588 42.4242 491.5C37.9831 483.383 35.7772 474.118 35.7772 463.677C35.7772 453.236 37.9831 444.118 42.4242 436.001L42.3948 436.059Z" fill="white"/>
<path d="M303.598 411.379L266.422 516.555H228.04L190.717 411.379H222.834L247.305 487.32L271.628 411.379H303.598Z" fill="white"/>
<path d="M366.825 436.059C371.266 427.942 377.56 421.648 385.707 417.118C393.854 412.589 403.237 410.324 413.854 410.324C427.325 410.324 438.648 413.824 447.825 420.854C457.001 427.854 462.913 437.383 465.56 449.412H437.972C435.237 449.412 432.737 448 431.089 445.736C429.442 443.471 427.531 441.677 425.237 440.295C421.825 438.206 417.854 437.148 413.384 437.148C406.443 437.148 400.913 439.559 396.796 444.383C392.678 449.206 390.59 455.647 390.59 463.706C390.59 471.765 392.649 478.353 396.796 483.177C400.913 488 406.443 490.412 413.384 490.412C417.884 490.412 421.825 489.353 425.237 487.265C427.501 485.883 429.472 484.059 431.089 481.824C432.707 479.588 435.207 478.147 437.972 478.147H465.56C462.913 490.177 457.001 499.706 447.825 506.706C438.648 513.706 427.325 517.235 413.854 517.235C403.237 517.235 393.854 514.971 385.707 510.441C377.56 505.912 371.266 499.588 366.825 491.5C362.384 483.383 360.178 474.118 360.178 463.677C360.178 453.236 362.384 444.118 366.825 436.001V436.059Z" fill="white"/>
<path d="M178.571 516.261V488.643H185.365V411.379H155.365V516.555H179.483L178.571 516.261Z" fill="white"/>
<path d="M178.565 486.496H148.506V516.555H178.565V486.496Z" fill="white"/>
<path d="M339.943 411.379H316.738V516.555H346.708V438.967H339.943V411.379Z" fill="white"/>
<path d="M339.949 411.379H309.89V441.438H339.949V411.379Z" fill="white"/>
<path d="M184.805 671.086V701.321H179.658V680.615L170.07 701.321H166.482L156.835 680.615V701.321H151.688V671.086H157.247L168.276 694.792L179.276 671.086H184.805Z" fill="white"/>
<path d="M197.859 699.648C195.388 698.324 193.447 696.501 192.035 694.119C190.594 691.766 189.888 689.089 189.888 686.148C189.888 683.207 190.594 680.53 192.035 678.178C193.477 675.825 195.418 674.001 197.859 672.678C200.329 671.354 203.006 670.707 205.947 670.707C208.888 670.707 211.594 671.354 214.065 672.678C216.535 674.001 218.447 675.825 219.888 678.178C221.3 680.53 222.006 683.178 222.006 686.148C222.006 689.119 221.3 691.766 219.888 694.119C218.476 696.472 216.535 698.324 214.065 699.648C211.594 700.972 208.888 701.619 205.947 701.619C203.006 701.619 200.329 700.972 197.859 699.648ZM211.506 695.972C213.123 695.06 214.418 693.766 215.329 692.06C216.241 690.354 216.712 688.413 216.712 686.178C216.712 683.942 216.241 682.001 215.329 680.295C214.418 678.619 213.123 677.325 211.506 676.413C209.888 675.501 208.035 675.06 205.947 675.06C203.859 675.06 202.006 675.501 200.388 676.413C198.771 677.325 197.477 678.589 196.565 680.295C195.653 681.972 195.182 683.942 195.182 686.178C195.182 688.413 195.653 690.383 196.565 692.06C197.477 693.766 198.771 695.06 200.388 695.972C202.006 696.883 203.859 697.354 205.947 697.354C208.035 697.354 209.888 696.883 211.506 695.972Z" fill="white"/>
<path d="M252.89 701.327H247.743L232.214 678.739V701.327H227.067V671.062H232.214L247.743 693.592V671.062H252.89V701.327Z" fill="white"/>
<path d="M260.096 678.178C261.537 675.825 263.478 674.001 265.919 672.678C268.39 671.354 271.066 670.707 274.007 670.707C277.36 670.707 280.331 671.501 282.948 673.089C285.566 674.678 287.448 676.913 288.625 679.795H282.419C281.595 678.207 280.478 677.001 279.037 676.236C277.595 675.442 275.919 675.06 274.007 675.06C271.919 675.06 270.066 675.501 268.448 676.413C266.831 677.325 265.537 678.589 264.625 680.295C263.713 681.972 263.243 683.942 263.243 686.178C263.243 688.413 263.713 690.354 264.625 692.06C265.537 693.736 266.831 695.03 268.448 695.942C270.066 696.854 271.919 697.325 274.007 697.325C275.919 697.325 277.595 696.942 279.037 696.148C280.478 695.354 281.625 694.177 282.419 692.589H288.625C287.448 695.501 285.566 697.736 282.948 699.295C280.331 700.854 277.36 701.648 274.007 701.648C271.037 701.648 268.36 701.001 265.919 699.677C263.478 698.354 261.537 696.53 260.096 694.177C258.654 691.825 257.949 689.178 257.949 686.207C257.949 683.236 258.654 680.589 260.096 678.236V678.178Z" fill="white"/>
<path d="M314.954 671.086V675.145H306.572V701.321H301.425V675.145H293.013V671.086H314.954Z" fill="white"/>
<path d="M326.42 699.648C323.949 698.324 322.008 696.501 320.596 694.119C319.155 691.766 318.449 689.089 318.449 686.148C318.449 683.207 319.155 680.53 320.596 678.178C322.038 675.825 323.979 674.001 326.42 672.678C328.89 671.354 331.567 670.707 334.508 670.707C337.449 670.707 340.155 671.354 342.626 672.678C345.096 674.001 347.008 675.825 348.449 678.178C349.861 680.53 350.567 683.178 350.567 686.148C350.567 689.119 349.861 691.766 348.449 694.119C347.037 696.472 345.096 698.324 342.626 699.648C340.155 700.972 337.449 701.619 334.508 701.619C331.567 701.619 328.89 700.972 326.42 699.648ZM340.067 695.972C341.684 695.06 342.979 693.766 343.89 692.06C344.802 690.354 345.273 688.413 345.273 686.178C345.273 683.942 344.802 682.001 343.89 680.295C342.979 678.619 341.684 677.325 340.067 676.413C338.449 675.501 336.596 675.06 334.508 675.06C332.42 675.06 330.567 675.501 328.949 676.413C327.332 677.325 326.038 678.589 325.126 680.295C324.214 681.972 323.743 683.942 323.743 686.178C323.743 688.413 324.214 690.383 325.126 692.06C326.038 693.766 327.332 695.06 328.949 695.972C330.567 696.883 332.42 697.354 334.508 697.354C336.596 697.354 338.449 696.883 340.067 695.972Z" fill="white"/>
<path d="M381.451 701.327H376.304L360.775 678.739V701.327H355.628V671.062H360.775L376.304 693.592V671.062H381.451V701.327Z" fill="white"/>
<path d="M254.301 49.5273C327.377 49.8606 388.923 98.9988 408.026 166.024H348.499L348.501 166.022H339.143C324.573 166.022 314.548 157.734 309.334 152.521C308.968 152.154 308.553 151.804 308.1 151.468C294.287 138.619 275.933 130.588 255.709 130.053C252.007 130.056 247.12 129.724 244.798 126.153C235.376 127.065 226.408 129.524 218.15 133.277C217.994 136.266 216.368 139.118 213.574 140.709C213.264 140.886 212.954 141.064 212.647 141.245C209.874 142.874 206.59 142.864 203.919 141.509C196.395 146.903 189.795 153.503 184.401 161.028C185.755 163.698 185.768 166.98 184.138 169.753C183.958 170.06 183.78 170.37 183.603 170.68C182.011 173.475 179.159 175.103 176.169 175.258C172.416 183.516 169.957 192.485 169.045 201.907C171.557 203.539 173.213 206.376 173.192 209.594C173.19 209.773 173.19 209.953 173.19 210.133C173.19 210.312 173.19 210.493 173.192 210.672C173.212 213.89 171.558 216.728 169.045 218.359C169.957 227.782 172.415 236.752 176.169 245.009C179.159 245.165 182.011 246.791 183.603 249.586C183.78 249.896 183.958 250.206 184.138 250.513C185.768 253.287 185.757 256.57 184.401 259.24C189.795 266.764 196.397 273.363 203.922 278.757C206.592 277.402 209.874 277.39 212.647 279.019C212.954 279.2 213.263 279.38 213.574 279.556C216.368 281.148 217.992 283.999 218.148 286.989C226.407 290.743 235.377 293.201 244.8 294.113C247.123 290.539 250.791 290.212 255.723 290.212C276.531 289.659 295.358 281.168 309.296 267.66C309.648 267.385 309.975 267.103 310.269 266.808C315.176 261.902 324.345 254.277 337.552 253.395H408.262C389.433 320.869 327.653 370.424 254.247 370.734C247.472 370.734 241.084 367.444 239.418 360.517C221.823 358.931 205.102 354.301 189.781 347.154C185.623 351.504 178.89 352.63 173.446 349.489C173.061 349.267 172.677 349.043 172.295 348.818C166.877 345.632 164.536 339.219 166.268 333.457C152.227 323.472 139.966 311.128 130.057 297.001C124.284 298.698 117.887 296.316 114.733 290.881C114.51 290.497 114.288 290.111 114.069 289.726C110.96 284.264 112.125 277.539 116.498 273.406C109.44 258.067 104.868 241.337 103.303 223.74C97.4588 222.331 93.1041 217.081 93.0776 210.801V209.464C93.1032 203.184 97.4586 197.937 103.303 196.528C104.868 178.931 109.441 162.202 116.498 146.863C112.123 142.731 110.959 136.001 114.069 130.538C114.288 130.152 114.51 129.766 114.733 129.383C117.888 123.946 124.286 121.566 130.059 123.265C139.967 109.139 152.228 96.7975 166.268 86.8133C164.533 81.0496 166.876 74.6349 172.295 71.4473C172.677 71.2224 173.062 70.9985 173.446 70.7767C178.892 67.6348 185.627 68.7613 189.786 73.1136C205.105 65.9678 221.824 61.3388 239.418 59.7531C241.084 52.8096 246.692 49.5269 254.301 49.5273ZM214.018 330.346C207.109 333.009 200.173 334.98 193.409 336.438C193.559 337.78 193.506 339.15 193.239 340.501C207.621 347.17 223.294 351.506 239.775 353.03C239.884 352.716 240.001 352.405 240.131 352.103C234.748 346.951 229.493 341.185 224.698 334.749C223.482 334.87 222.224 334.781 220.972 334.458C220.759 334.403 220.546 334.349 220.334 334.293C220.12 334.237 219.906 334.178 219.693 334.121C217.349 333.491 215.398 332.128 214.018 330.346ZM250.221 307.875C244.966 312.813 239.429 317.005 233.732 320.563C234.413 322.495 234.549 324.643 233.999 326.775C233.542 328.544 232.667 330.095 231.509 331.35C235.685 336.825 240.231 341.798 244.918 346.316C247.07 344.855 249.669 344.004 252.467 344.016H253.554V308.145C253.378 308.146 253.202 308.148 253.027 308.148C252.807 308.148 252.586 308.147 252.366 308.145C251.627 308.141 250.909 308.046 250.221 307.875ZM200.805 292.361C194.141 294.201 187.569 295.313 181.137 295.835C180.801 297.958 179.826 300.002 178.204 301.652C177.036 302.84 175.658 303.7 174.187 304.225C175.348 311.094 177.077 317.687 179.15 323.932C181.431 323.943 183.741 324.533 185.849 325.774C186.167 325.961 186.487 326.146 186.806 326.331C188.238 327.157 189.456 328.211 190.448 329.417C197.483 327.972 204.673 325.966 211.79 323.188C211.832 322.469 211.948 321.742 212.142 321.019C212.51 319.651 213.128 318.417 213.933 317.351C210.649 310.788 207.92 303.682 205.961 295.995C205.49 295.823 205.026 295.609 204.576 295.353C204.195 295.136 203.814 294.916 203.437 294.694C202.384 294.076 201.501 293.277 200.805 292.361ZM137.633 291.253C137.259 291.852 136.836 292.425 136.366 292.963C145.693 306.197 157.193 317.776 170.346 327.171C170.853 326.734 171.388 326.339 171.947 325.988C169.679 319.106 167.792 311.77 166.581 304.078C165.312 303.567 164.12 302.8 163.083 301.781C162.77 301.473 162.456 301.163 162.146 300.852C160.621 299.322 159.656 297.443 159.249 295.474C151.702 294.643 144.464 293.147 137.633 291.253ZM215.412 293.969C214.843 294.523 214.212 294.994 213.535 295.375C215.255 301.776 217.554 307.751 220.291 313.326C221.881 312.994 223.57 313.017 225.246 313.467C225.423 313.515 225.601 313.564 225.779 313.611C225.957 313.658 226.138 313.704 226.316 313.75C227.227 313.985 228.079 314.332 228.863 314.77C234.206 311.51 239.392 307.67 244.31 303.151C244.05 302.637 243.837 302.095 243.678 301.531C233.697 300.522 224.189 297.913 215.412 293.969ZM178.554 263.926C177.376 264.228 176.165 264.283 174.993 264.112C173.555 270.533 172.819 276.851 172.648 283.02C174.351 283.503 175.958 284.413 177.296 285.755C177.554 286.014 177.814 286.272 178.075 286.529C178.675 287.118 179.187 287.764 179.618 288.445C186.007 287.984 192.528 286.904 199.131 285.058C199.161 284.907 199.195 284.756 199.234 284.606C191.29 278.858 184.302 271.87 178.554 263.926ZM147.192 249.216C145.931 250.485 144.336 251.456 142.49 251.971C141.195 252.333 139.888 252.438 138.624 252.321C135.958 258.713 133.916 265.175 132.341 271.524C134.344 272.672 136.079 274.351 137.303 276.503C137.486 276.824 137.671 277.145 137.857 277.464C139.061 279.54 139.639 281.806 139.658 284.046C146.251 285.874 153.193 287.296 160.397 288.068C160.868 287.23 161.46 286.441 162.174 285.729C163.063 284.843 164.07 284.149 165.143 283.64C165.3 275.843 166.296 267.796 168.381 259.579C168.187 259.249 167.997 258.916 167.807 258.584C167.626 258.266 167.467 257.941 167.328 257.612C160.075 255.433 153.376 252.571 147.192 249.216ZM113.515 222.092C112.666 222.622 111.752 223.057 110.788 223.388C112.293 239.889 116.578 255.581 123.167 269.987C123.798 269.866 124.432 269.794 125.066 269.765C126.751 262.964 128.964 255.99 131.88 249.059C130.704 247.829 129.805 246.3 129.315 244.547C129.197 244.124 129.08 243.698 128.966 243.274C128.398 241.153 128.511 239.01 129.168 237.076C123.375 232.357 118.174 227.274 113.515 222.092ZM160.445 219.054C155.66 223.904 151.57 229.059 148.072 234.398C148.76 235.386 149.296 236.508 149.626 237.738C149.72 238.091 149.816 238.445 149.914 238.797C150.249 239.995 150.362 241.203 150.284 242.378C155.659 245.33 161.438 247.874 167.651 249.875C168.054 249.103 168.57 248.386 169.191 247.748C165.246 238.97 162.637 229.461 161.629 219.48C161.222 219.365 160.827 219.222 160.445 219.054ZM132.872 189.473C127.562 193.93 122.77 198.727 118.445 203.633C119.326 205.425 119.821 207.441 119.813 209.573C119.812 209.759 119.811 209.947 119.811 210.133C119.811 210.319 119.812 210.506 119.813 210.692C119.821 212.758 119.36 214.717 118.53 216.467C123.113 221.622 128.215 226.65 133.896 231.277C134.702 230.806 135.583 230.432 136.528 230.179C138.356 229.689 140.199 229.706 141.912 230.14C145.717 224.354 150.185 218.753 155.434 213.48C155.166 212.632 155.021 211.729 155.014 210.793C155.013 210.574 155.012 210.353 155.012 210.133C155.012 209.913 155.013 209.692 155.014 209.472C155.021 208.452 155.197 207.472 155.513 206.558C150.507 201.585 146.203 196.316 142.502 190.871C140.595 191.522 138.483 191.644 136.386 191.103C135.087 190.768 133.905 190.206 132.872 189.473ZM167.425 169.928C161.142 171.994 155.307 174.618 149.886 177.654C150.163 179.167 150.118 180.765 149.692 182.35L149.411 183.42C149.163 184.382 148.788 185.278 148.315 186.098C151.818 191.328 155.901 196.373 160.659 201.119C160.974 200.99 161.298 200.879 161.629 200.786C162.637 190.805 165.247 181.297 169.191 172.52C168.447 171.756 167.854 170.876 167.425 169.928ZM123.167 150.281C116.578 164.687 112.292 180.379 110.788 196.88C111.694 197.191 112.558 197.593 113.364 198.081C117.921 192.963 123 187.928 128.657 183.238C128.261 181.594 128.25 179.83 128.701 178.078C128.756 177.865 128.813 177.65 128.869 177.438C128.925 177.225 128.982 177.01 129.039 176.798C129.576 174.799 130.647 173.085 132.056 171.768C128.977 164.659 126.652 157.489 124.888 150.495C124.314 150.461 123.739 150.39 123.167 150.281ZM159.108 131.74C152.36 132.559 145.851 133.937 139.652 135.672C139.73 138.088 139.159 140.555 137.857 142.8C137.671 143.119 137.486 143.442 137.303 143.763C136.047 145.969 134.258 147.684 132.189 148.833C133.872 155.472 136.071 162.225 138.963 168.886C140.009 168.847 141.079 168.96 142.143 169.246C143.613 169.641 144.927 170.328 146.045 171.223C152.626 167.521 159.802 164.375 167.623 162.021C167.682 161.908 167.743 161.794 167.807 161.682C167.958 161.418 168.111 161.153 168.263 160.89C166.172 152.926 165.109 145.116 164.848 137.536C163.639 137.026 162.502 136.284 161.51 135.309C160.443 134.26 159.641 133.042 159.108 131.74ZM179.634 131.152C179.113 132.33 178.372 133.436 177.405 134.4C177.146 134.658 176.888 134.92 176.631 135.181C175.394 136.439 173.921 137.324 172.353 137.839C172.593 143.831 173.37 149.958 174.809 156.182C176.039 155.977 177.314 156.024 178.554 156.342C184.302 148.398 191.29 141.41 199.234 135.662C199.13 135.256 199.054 134.845 199.008 134.434C192.451 132.636 185.977 131.589 179.634 131.152ZM170.346 93.0966C157.193 102.492 145.692 114.07 136.366 127.304C136.714 127.703 137.039 128.118 137.334 128.551C144.141 126.631 151.356 125.097 158.884 124.224C159.385 122.754 160.218 121.369 161.38 120.187C161.688 119.874 161.998 119.562 162.309 119.252C163.407 118.158 164.685 117.355 166.046 116.836C167.224 108.803 169.154 101.151 171.497 93.9853C171.099 93.7121 170.715 93.4147 170.346 93.0966ZM190.925 90.2326C189.858 91.6966 188.477 92.9691 186.806 93.9327C186.487 94.1172 186.167 94.3031 185.849 94.4902C183.573 95.8286 181.063 96.414 178.606 96.3261C176.485 102.813 174.738 109.671 173.62 116.82C175.01 117.342 176.315 118.158 177.431 119.278C178.701 120.553 179.581 122.07 180.075 123.679C187.004 124.152 194.1 125.303 201.304 127.304C201.908 126.639 202.621 126.051 203.437 125.572C203.815 125.35 204.195 125.13 204.576 124.913C204.847 124.759 205.123 124.619 205.402 124.495C207.272 116.885 209.899 109.839 213.073 103.32C212.23 102.246 211.579 100.991 211.188 99.594C210.847 98.3706 210.733 97.1362 210.821 95.9383C204.178 93.4357 197.485 91.5872 190.925 90.2326ZM229.208 104.855C228.117 105.702 226.841 106.35 225.423 106.73C225.07 106.824 224.716 106.92 224.363 107.018C222.724 107.476 221.067 107.524 219.502 107.226C216.905 112.654 214.722 118.455 213.085 124.655C213.933 125.071 214.719 125.624 215.412 126.299C224.189 122.354 233.697 119.746 243.678 118.737C243.904 117.936 244.237 117.178 244.661 116.483C239.741 111.96 234.554 108.118 229.208 104.855ZM244.34 73.5357C239.489 78.2326 234.794 83.4203 230.509 89.148C231.649 90.3806 232.518 91.8979 232.983 93.6318C233.423 95.2723 233.454 96.9273 233.143 98.4872C239.348 102.278 245.375 106.807 251.064 112.223C251.489 112.159 251.924 112.123 252.366 112.12C252.586 112.119 252.807 112.118 253.027 112.118C253.202 112.118 253.378 112.117 253.554 112.118V76.2481C253.378 76.2474 253.202 76.2481 253.027 76.2481C252.841 76.2481 252.653 76.2494 252.467 76.2502C249.415 76.2625 246.597 75.2489 244.34 73.5357ZM239.773 67.2382C223.293 68.7619 207.622 73.0984 193.241 79.7665C193.461 80.8819 193.535 82.0104 193.469 83.1253C200.193 84.5614 207.088 86.5033 213.961 89.1258C215.215 87.8813 216.793 86.928 218.615 86.4194C219.037 86.3015 219.461 86.1857 219.885 86.072C221.167 85.7284 222.458 85.6356 223.705 85.759C228.691 78.9403 234.202 72.8641 239.852 67.4624C239.825 67.3883 239.799 67.3129 239.773 67.2382Z" fill="white"/>
</svg>
