<svg width="1341" height="231" viewBox="0 0 1341 231" fill="none" xmlns="http://www.w3.org/2000/svg">
<path d="M246.345 98.3085C249.118 93.2634 253.048 89.3317 258.142 86.5182C263.236 83.7048 269.096 82.293 275.724 82.293C284.134 82.293 291.203 84.4739 296.932 88.8409C302.665 93.2027 306.358 99.1333 308.013 106.622H290.787C289.07 106.622 287.506 105.737 286.49 104.345C285.475 102.954 284.261 101.825 282.839 100.96C280.706 99.6595 278.238 99.0118 275.434 99.0118C271.102 99.0118 267.649 100.515 265.069 103.515C262.489 106.516 261.199 110.524 261.199 115.538C261.199 120.553 262.489 124.652 265.069 127.658C267.649 130.658 271.102 132.161 275.434 132.161C278.238 132.161 280.706 131.513 282.839 130.213C284.261 129.348 285.48 128.219 286.49 126.828C287.501 125.436 289.07 124.546 290.787 124.546H308.013C306.358 132.035 302.665 137.96 296.932 142.327C291.198 146.689 284.129 148.875 275.724 148.875C269.096 148.875 263.241 147.468 258.142 144.65C253.043 141.836 249.112 137.904 246.345 132.859C243.572 127.814 242.19 122.041 242.19 115.543C242.19 109.046 243.577 103.364 246.345 98.3186V98.3085Z" fill="white"/>
<path d="M409.485 82.9375L386.266 148.396H362.285L338.975 82.9375H359.04L374.326 130.195L389.516 82.9375H409.485Z" fill="white"/>
<path d="M448.991 98.3085C451.764 93.2634 455.694 89.3317 460.788 86.5182C465.882 83.7048 471.742 82.293 478.37 82.293C486.78 82.293 493.849 84.4739 499.578 88.8409C505.311 93.2027 509.004 99.1333 510.659 106.622H493.433C491.716 106.622 490.152 105.737 489.136 104.345C488.121 102.954 486.907 101.825 485.485 100.96C483.352 99.6595 480.884 99.0118 478.08 99.0118C473.748 99.0118 470.295 100.515 467.715 103.515C465.135 106.516 463.845 110.524 463.845 115.538C463.845 120.553 465.135 124.652 467.715 127.658C470.295 130.658 473.748 132.161 478.08 132.161C480.884 132.161 483.352 131.513 485.485 130.213C486.907 129.348 488.126 128.219 489.136 126.828C490.147 125.436 491.716 124.546 493.433 124.546H510.659C509.004 132.035 505.311 137.96 499.578 142.327C493.844 146.689 486.775 148.875 478.37 148.875C471.742 148.875 465.887 147.468 460.788 144.65C455.689 141.836 451.758 137.904 448.991 132.859C446.218 127.814 444.836 122.041 444.836 115.543C444.836 109.046 446.223 103.364 448.991 98.3186V98.3085Z" fill="white"/>
<path d="M606.881 97.5159V108.193H628.378V122.027H606.881V133.818H631.243V148.396H588.151V82.9375H631.243V97.5159H606.881Z" fill="white"/>
<path d="M642.366 98.3085C645.139 93.2634 649.069 89.3317 654.163 86.5182C659.257 83.7048 665.117 82.293 671.745 82.293C680.155 82.293 687.224 84.4739 692.958 88.8409C698.691 93.2027 702.384 99.1333 704.039 106.622H686.813C685.096 106.622 683.532 105.737 682.516 104.345C681.506 102.954 680.287 101.825 678.865 100.96C676.732 99.6595 674.264 99.0118 671.46 99.0118C667.129 99.0118 663.675 100.515 661.095 103.515C658.515 106.516 657.225 110.524 657.225 115.538C657.225 120.553 658.515 124.652 661.095 127.658C663.675 130.658 667.129 132.161 671.46 132.161C674.264 132.161 676.732 131.513 678.865 130.213C680.287 129.348 681.506 128.219 682.516 126.828C683.532 125.431 685.096 124.546 686.813 124.546H704.039C702.384 132.035 698.686 137.96 692.958 142.327C687.224 146.689 680.155 148.875 671.745 148.875C665.117 148.875 659.262 147.468 654.163 144.65C649.064 141.836 645.133 137.904 642.366 132.859C639.593 127.814 638.211 122.041 638.211 115.543C638.211 109.046 639.598 103.364 642.366 98.3186V98.3085Z" fill="white"/>
<path d="M773.219 82.9375V148.396H754.494V122.119H731.661V148.396H712.937V82.9375H731.661V107.54H754.494V82.9375H773.219Z" fill="white"/>
<path d="M331.396 148.219V131.024H335.631V82.9375H316.906V148.396H331.974L331.396 148.219Z" fill="white"/>
<path d="M331.39 129.688H312.615V148.395H331.39V129.688Z" fill="white"/>
<path d="M526.717 82.9375V97.4197H544.487V148.396H558.991V131.212H563.217V97.4197H581.174V82.9375H526.717Z" fill="white"/>
<path d="M558.992 129.688H540.217V148.395H558.992V129.688Z" fill="white"/>
<path d="M432.2 82.9375H417.706V148.396H436.435V100.122H432.2V82.9375Z" fill="white"/>
<path d="M432.194 82.9375H413.419V101.645H432.194V82.9375Z" fill="white"/>
<path d="M883.789 82.8711V148.412H872.632V103.528L851.847 148.412H844.069L823.157 103.528V148.412H812V82.8711H824.049L847.958 134.259L871.803 82.8711H883.789Z" fill="white"/>
<path d="M912.09 144.783C906.735 141.914 902.527 137.961 899.467 132.797C896.343 127.696 894.812 121.895 894.812 115.519C894.812 109.143 896.343 103.341 899.467 98.241C902.591 93.1405 906.799 89.1876 912.09 86.3185C917.446 83.4495 923.248 82.0469 929.623 82.0469C935.999 82.0469 941.865 83.4495 947.22 86.3185C952.576 89.1876 956.72 93.1405 959.844 98.241C962.904 103.341 964.434 109.08 964.434 115.519C964.434 121.958 962.904 127.696 959.844 132.797C956.784 137.897 952.576 141.914 947.22 144.783C941.865 147.652 935.999 149.055 929.623 149.055C923.248 149.055 917.446 147.652 912.09 144.783ZM941.673 136.814C945.18 134.837 947.985 132.032 949.962 128.334C951.938 124.636 952.958 120.428 952.958 115.583C952.958 110.737 951.938 106.529 949.962 102.831C947.985 99.1973 945.18 96.392 941.673 94.4156C938.167 92.4392 934.15 91.4828 929.623 91.4828C925.097 91.4828 921.08 92.4392 917.573 94.4156C914.067 96.392 911.262 99.1336 909.285 102.831C907.309 106.466 906.289 110.737 906.289 115.583C906.289 120.428 907.309 124.7 909.285 128.334C911.262 132.032 914.067 134.837 917.573 136.814C921.08 138.79 925.097 139.81 929.623 139.81C934.15 139.81 938.167 138.79 941.673 136.814Z" fill="white"/>
<path d="M1031.38 148.425H1020.22L986.555 99.4607V148.425H975.398V82.8203H986.555L1020.22 131.658V82.8203H1031.38V148.425Z" fill="white"/>
<path d="M1047 98.241C1050.12 93.1405 1054.33 89.1876 1059.62 86.3185C1064.98 83.4495 1070.78 82.0469 1077.15 82.0469C1084.42 82.0469 1090.86 83.7683 1096.54 87.2111C1102.21 90.6539 1106.29 95.4995 1108.84 101.748H1095.39C1093.6 98.3047 1091.18 95.6907 1088.06 94.0331C1084.93 92.3117 1081.3 91.4828 1077.15 91.4828C1072.63 91.4828 1068.61 92.4392 1065.1 94.4156C1061.6 96.392 1058.79 99.1336 1056.82 102.831C1054.84 106.466 1053.82 110.737 1053.82 115.583C1053.82 120.428 1054.84 124.636 1056.82 128.334C1058.79 131.968 1061.6 134.773 1065.1 136.75C1068.61 138.726 1072.63 139.746 1077.15 139.746C1081.3 139.746 1084.93 138.917 1088.06 137.196C1091.18 135.475 1093.67 132.924 1095.39 129.482H1108.84C1106.29 135.793 1102.21 140.639 1096.54 144.018C1090.86 147.397 1084.42 149.118 1077.15 149.118C1070.72 149.118 1064.91 147.716 1059.62 144.847C1054.33 141.978 1050.12 138.025 1047 132.924C1043.87 127.824 1042.34 122.086 1042.34 115.646C1042.34 109.207 1043.87 103.469 1047 98.3685V98.241Z" fill="white"/>
<path d="M1165.91 82.8711V91.6694H1147.74V148.412H1136.59V91.6694H1118.35V82.8711H1165.91Z" fill="white"/>
<path d="M1190.77 144.783C1185.42 141.914 1181.21 137.961 1178.15 132.797C1175.02 127.696 1173.49 121.895 1173.49 115.519C1173.49 109.143 1175.02 103.341 1178.15 98.241C1181.27 93.1405 1185.48 89.1876 1190.77 86.3185C1196.13 83.4495 1201.93 82.0469 1208.3 82.0469C1214.68 82.0469 1220.54 83.4495 1225.9 86.3185C1231.26 89.1876 1235.4 93.1405 1238.52 98.241C1241.58 103.341 1243.11 109.08 1243.11 115.519C1243.11 121.958 1241.58 127.696 1238.52 132.797C1235.46 137.897 1231.26 141.914 1225.9 144.783C1220.54 147.652 1214.68 149.055 1208.3 149.055C1201.93 149.055 1196.13 147.652 1190.77 144.783ZM1220.35 136.814C1223.86 134.837 1226.67 132.032 1228.64 128.334C1230.62 124.636 1231.64 120.428 1231.64 115.583C1231.64 110.737 1230.62 106.529 1228.64 102.831C1226.67 99.1973 1223.86 96.392 1220.35 94.4156C1216.85 92.4392 1212.83 91.4828 1208.3 91.4828C1203.78 91.4828 1199.76 92.4392 1196.25 94.4156C1192.75 96.392 1189.94 99.1336 1187.97 102.831C1185.99 106.466 1184.97 110.737 1184.97 115.583C1184.97 120.428 1185.99 124.7 1187.97 128.334C1189.94 132.032 1192.75 134.837 1196.25 136.814C1199.76 138.79 1203.78 139.81 1208.3 139.81C1212.83 139.81 1216.85 138.79 1220.35 136.814Z" fill="white"/>
<path d="M1310.06 148.425H1298.9L1265.24 99.4607V148.425H1254.08V82.8203H1265.24L1298.9 131.658V82.8203H1310.06V148.425Z" fill="white"/>
<path d="M121.622 25.5898C162.573 25.7766 197.063 53.313 207.767 90.8732H174.409L174.41 90.872H169.166C161.002 90.872 155.383 86.2272 152.462 83.3058C152.257 83.1006 152.024 82.9045 151.77 82.7162C144.03 75.5158 133.744 71.0152 122.411 70.7155C120.337 70.7172 117.598 70.5312 116.297 68.5299C111.017 69.041 105.991 70.4186 101.364 72.5219C101.276 74.1972 100.365 75.795 98.799 76.687C98.6253 76.7859 98.4518 76.8857 98.2795 76.9869C96.7255 77.8999 94.8854 77.8943 93.3889 77.1352C89.1724 80.1579 85.4736 83.8565 82.451 88.0731C83.2099 89.5695 83.2169 91.4087 82.3039 92.9625C82.2027 93.1347 82.1029 93.3084 82.0039 93.482C81.1116 95.0481 79.5135 95.9607 77.8377 96.0479C75.7348 100.675 74.3566 105.701 73.8458 110.981C75.2535 111.896 76.1813 113.485 76.1694 115.289C76.1687 115.389 76.1683 115.49 76.1683 115.591C76.1683 115.692 76.1687 115.793 76.1694 115.893C76.1811 117.697 75.2537 119.287 73.8458 120.201C74.3568 125.481 75.7344 130.508 77.8377 135.135C79.5137 135.222 81.1116 136.134 82.0039 137.7C82.1029 137.874 82.2027 138.047 82.3039 138.219C83.217 139.774 83.2108 141.614 82.451 143.11C85.4737 147.326 89.1735 151.024 93.39 154.047C94.8865 153.288 96.7256 153.281 98.2795 154.194C98.4519 154.295 98.6251 154.396 98.799 154.495C100.365 155.387 101.275 156.985 101.363 158.66C105.99 160.764 111.017 162.141 116.298 162.652C117.599 160.649 119.655 160.466 122.419 160.466C134.079 160.156 144.63 155.398 152.44 147.829C152.638 147.674 152.821 147.516 152.986 147.351C155.735 144.602 160.873 140.329 168.275 139.835H207.9C197.348 177.646 162.728 205.416 121.592 205.59C117.795 205.59 114.215 203.746 113.282 199.864C103.422 198.975 94.0515 196.381 85.4662 192.376C83.1359 194.813 79.3628 195.444 76.312 193.684C76.0965 193.56 75.8812 193.435 75.6669 193.308C72.6311 191.523 71.319 187.929 72.2895 184.7C64.4209 179.104 57.5501 172.187 51.9971 164.271C48.7625 165.222 45.1776 163.887 43.41 160.841C43.2853 160.626 43.1607 160.41 43.0377 160.194C41.2956 157.133 41.9486 153.364 44.3992 151.049C40.4441 142.453 37.8821 133.077 37.0051 123.216C33.7298 122.427 31.2895 119.485 31.2747 115.966V115.216C31.289 111.697 33.7297 108.757 37.0051 107.967C37.8819 98.106 40.4445 88.7313 44.3992 80.1356C41.9473 77.8199 41.2954 74.0487 43.0377 70.9871C43.1607 70.771 43.2853 70.5547 43.41 70.3397C45.1779 67.2933 48.7632 65.9595 51.9983 66.9114C57.5509 58.9956 64.4215 52.0794 72.2895 46.4844C71.317 43.2545 72.6303 39.6598 75.6669 37.8735C75.8811 37.7475 76.0966 37.622 76.312 37.4977C79.3636 35.737 83.1381 36.3683 85.4684 38.8072C94.0533 34.8028 103.422 32.2088 113.282 31.3202C114.216 27.4292 117.358 25.5896 121.622 25.5898ZM99.048 182.957C95.1761 184.449 91.2896 185.553 87.4989 186.37C87.5828 187.123 87.5535 187.89 87.4038 188.648C95.4632 192.385 104.246 194.815 113.482 195.668C113.543 195.492 113.608 195.319 113.681 195.149C110.665 192.262 107.72 189.031 105.033 185.424C104.352 185.492 103.646 185.442 102.945 185.261C102.826 185.231 102.706 185.2 102.587 185.168C102.468 185.137 102.348 185.104 102.228 185.072C100.915 184.719 99.8212 183.955 99.048 182.957ZM119.336 170.364C116.391 173.131 113.288 175.481 110.096 177.474C110.477 178.557 110.553 179.761 110.245 180.956C109.989 181.947 109.499 182.816 108.85 183.519C111.19 186.587 113.737 189.375 116.364 191.906C117.57 191.088 119.027 190.611 120.594 190.617H121.203V170.516C121.105 170.516 121.006 170.517 120.908 170.517C120.785 170.517 120.661 170.517 120.538 170.516C120.123 170.513 119.721 170.46 119.336 170.364ZM91.6436 161.671C87.9094 162.702 84.2263 163.325 80.622 163.617C80.4335 164.807 79.8872 165.953 78.9786 166.877C78.3239 167.543 77.5514 168.024 76.7274 168.319C77.3776 172.168 78.3468 175.863 79.5083 179.362C80.7869 179.368 82.081 179.7 83.2625 180.394C83.4408 180.499 83.6198 180.603 83.799 180.707C84.6014 181.17 85.284 181.761 85.8397 182.436C89.7818 181.626 93.8113 180.502 97.7996 178.946C97.8229 178.543 97.8877 178.135 97.9965 177.73C98.2027 176.963 98.5495 176.272 99.0005 175.675C97.1602 171.997 95.6305 168.014 94.5332 163.707C94.2691 163.61 94.0092 163.491 93.7567 163.347C93.5433 163.225 93.33 163.102 93.1184 162.978C92.5284 162.631 92.0337 162.184 91.6436 161.671ZM56.2426 161.049C56.0334 161.385 55.7965 161.706 55.5329 162.008C60.7593 169.424 67.2043 175.913 74.5747 181.178C74.8586 180.933 75.1588 180.712 75.4722 180.514C74.201 176.658 73.1438 172.547 72.465 168.236C71.7535 167.95 71.0857 167.521 70.5046 166.95C70.3291 166.777 70.1531 166.603 69.9795 166.429C69.1248 165.571 68.5842 164.518 68.3565 163.415C64.1272 162.949 60.0711 162.111 56.2426 161.049ZM99.8289 162.572C99.5104 162.882 99.1569 163.146 98.7775 163.359C99.7412 166.946 101.029 170.295 102.563 173.419C103.454 173.233 104.401 173.246 105.34 173.498C105.439 173.525 105.539 173.552 105.639 173.579C105.738 173.605 105.84 173.631 105.94 173.657C106.45 173.788 106.927 173.983 107.367 174.228C110.361 172.401 113.267 170.25 116.023 167.717C115.877 167.429 115.758 167.125 115.669 166.809C110.076 166.244 104.748 164.782 99.8289 162.572ZM79.1744 145.736C78.5142 145.905 77.8359 145.936 77.179 145.84C76.3733 149.439 75.9607 152.979 75.8649 156.436C76.8189 156.707 77.7195 157.216 78.4693 157.969C78.6138 158.114 78.76 158.258 78.9061 158.402C79.2421 158.732 79.5293 159.094 79.7708 159.476C83.3508 159.218 87.0051 158.613 90.7054 157.578C90.7224 157.494 90.7416 157.409 90.7631 157.325C86.3114 154.103 82.3956 150.188 79.1744 145.736ZM61.5995 137.493C60.893 138.204 59.9989 138.748 58.9646 139.037C58.2389 139.239 57.5064 139.298 56.7983 139.232C55.3045 142.815 54.1597 146.436 53.2772 149.994C54.3999 150.637 55.3718 151.578 56.0581 152.784C56.1605 152.964 56.2643 153.143 56.3682 153.322C57.0431 154.486 57.3672 155.756 57.3778 157.011C61.0724 158.035 64.9625 158.832 68.9993 159.264C69.2632 158.795 69.5951 158.353 69.9953 157.954C70.4935 157.457 71.0579 157.068 71.6591 156.784C71.747 152.414 72.305 147.904 73.4734 143.3C73.3651 143.115 73.2582 142.929 73.152 142.742C73.0506 142.564 72.9616 142.382 72.8837 142.198C68.8188 140.976 65.065 139.373 61.5995 137.493ZM42.7275 122.292C42.2516 122.59 41.7393 122.834 41.1996 123.019C42.0424 132.266 44.444 141.059 48.1365 149.132C48.4899 149.065 48.8453 149.024 49.2004 149.008C50.1448 145.197 51.3849 141.288 53.0192 137.405C52.36 136.716 51.8561 135.859 51.5818 134.876C51.5156 134.639 51.4497 134.401 51.386 134.163C51.0675 132.974 51.1309 131.773 51.4991 130.689C48.2527 128.045 45.3383 125.197 42.7275 122.292ZM69.0265 120.59C66.3447 123.308 64.0529 126.197 62.093 129.189C62.4785 129.743 62.7785 130.371 62.9633 131.061C63.0163 131.258 63.0702 131.457 63.1252 131.654C63.3125 132.325 63.3758 133.002 63.3323 133.66C66.3443 135.315 69.5831 136.74 73.0648 137.862C73.2903 137.43 73.5793 137.027 73.9273 136.67C71.7169 131.751 70.255 126.422 69.6897 120.829C69.4618 120.765 69.2403 120.684 69.0265 120.59ZM53.5749 104.014C50.5992 106.511 47.9137 109.199 45.4903 111.949C45.9837 112.953 46.2614 114.083 46.2565 115.277C46.2561 115.382 46.2554 115.487 46.2554 115.591C46.2554 115.695 46.2561 115.8 46.2565 115.904C46.2611 117.062 46.0028 118.16 45.5378 119.14C48.1061 122.03 50.9649 124.847 54.1487 127.44C54.6004 127.176 55.0938 126.966 55.6235 126.824C56.6479 126.55 57.681 126.56 58.6409 126.803C60.7729 123.56 63.2767 120.422 66.2184 117.466C66.0681 116.991 65.9866 116.485 65.983 115.961C65.9822 115.838 65.9819 115.714 65.9819 115.591C65.9819 115.468 65.9822 115.344 65.983 115.221C65.9868 114.649 66.0854 114.1 66.2626 113.588C63.4574 110.801 61.0453 107.848 58.9714 104.797C57.903 105.162 56.7192 105.23 55.5443 104.927C54.816 104.739 54.154 104.424 53.5749 104.014ZM72.9381 93.061C69.4171 94.2185 66.1472 95.6888 63.1093 97.3902C63.2646 98.2383 63.2393 99.1337 63.0007 100.022L62.8434 100.622C62.7043 101.16 62.494 101.663 62.2288 102.122C64.1921 105.053 66.4798 107.88 69.1465 110.54C69.3228 110.467 69.5042 110.405 69.6897 110.353C70.2549 104.76 71.7172 99.4317 73.9273 94.5131C73.5103 94.085 73.178 93.5922 72.9381 93.061ZM48.1365 82.0506C44.4441 90.1238 42.0423 98.9171 41.1996 108.164C41.7073 108.338 42.191 108.564 42.6427 108.837C45.1968 105.969 48.0429 103.148 51.2128 100.52C50.9912 99.5979 50.9846 98.6097 51.2377 97.6279C51.2684 97.5087 51.3002 97.3883 51.3316 97.2691C51.363 97.1498 51.3947 97.0293 51.4267 96.9103C51.7278 95.7901 52.3283 94.83 53.1176 94.0921C51.3919 90.1078 50.0895 86.09 49.1008 82.1706C48.7789 82.1516 48.4568 82.1121 48.1365 82.0506ZM68.2772 71.6605C64.4958 72.1194 60.8481 72.8921 57.3744 73.8642C57.4181 75.218 57.098 76.6006 56.3682 77.8584C56.2643 78.0376 56.1606 78.2181 56.0581 78.3983C55.3542 79.6347 54.3515 80.5953 53.1923 81.2391C54.1352 84.9595 55.3674 88.7439 56.9885 92.477C57.5746 92.455 58.1739 92.5183 58.7699 92.6784C59.594 92.9 60.3306 93.2851 60.9566 93.7865C64.6445 91.7117 68.666 89.949 73.049 88.6299C73.0818 88.5663 73.1162 88.5026 73.152 88.4398C73.2364 88.2916 73.3221 88.1435 73.4078 87.9961C72.2357 83.5328 71.6399 79.1566 71.4939 74.9089C70.8163 74.6231 70.1793 74.2073 69.623 73.6605C69.0252 73.0727 68.5759 72.3901 68.2772 71.6605ZM79.7799 71.3312C79.4879 71.9915 79.0725 72.6109 78.5304 73.1512C78.3852 73.2959 78.2407 73.4429 78.0969 73.5892C77.4037 74.294 76.5783 74.7899 75.6997 75.0786C75.8338 78.4363 76.2692 81.87 77.076 85.3578C77.7651 85.2426 78.4794 85.2692 79.1744 85.4472C82.3956 80.9953 86.3113 77.0799 90.7631 73.8585C90.7047 73.6309 90.6623 73.4007 90.6363 73.1704C86.9621 72.1626 83.3342 71.5763 79.7799 71.3312ZM74.5747 50.0054C67.2043 55.2705 60.7593 61.7588 55.5329 69.1751C55.7278 69.3984 55.9098 69.631 56.0751 69.8734C59.8897 68.7978 63.9328 67.9379 68.1516 67.449C68.4325 66.6248 68.8992 65.8491 69.5505 65.1865C69.7231 65.011 69.8969 64.8361 70.0712 64.6625C70.6865 64.0494 71.4025 63.5993 72.165 63.3089C72.8255 58.8071 73.9068 54.5189 75.2198 50.5034C74.9968 50.3504 74.7816 50.1837 74.5747 50.0054ZM86.1068 48.4005C85.5088 49.2209 84.7349 49.934 83.799 50.474C83.6198 50.5774 83.4408 50.6816 83.2625 50.7864C81.9871 51.5365 80.5804 51.8645 79.2038 51.8152C78.0152 55.4506 77.0359 59.2935 76.4093 63.2998C77.1882 63.5922 77.9195 64.0495 78.5451 64.6772C79.257 65.3918 79.7498 66.2419 80.0266 67.1435C83.9095 67.4085 87.8864 68.0538 91.9232 69.1751C92.2615 68.8019 92.6613 68.4726 93.1184 68.204C93.3301 68.0796 93.5432 67.9566 93.7567 67.835C93.9087 67.7485 94.0632 67.6701 94.2197 67.6007C95.2676 63.336 96.7396 59.3875 98.5183 55.7347C98.0458 55.1328 97.6809 54.4294 97.4623 53.6465C97.271 52.9609 97.2072 52.2692 97.2563 51.5979C93.5336 50.1955 89.7834 49.1596 86.1068 48.4005ZM107.56 56.5949C106.949 57.0694 106.234 57.4322 105.439 57.6452C105.241 57.6984 105.043 57.7519 104.845 57.8071C103.927 58.0634 102.998 58.0903 102.121 57.9237C100.666 60.9652 99.4424 64.216 98.5251 67.6901C99.0003 67.9233 99.4406 68.2332 99.8289 68.6114C104.748 66.401 110.076 64.9392 115.669 64.3739C115.795 63.9248 115.982 63.5004 116.22 63.1108C113.463 60.5762 110.556 58.4233 107.56 56.5949ZM116.04 39.0438C113.322 41.6759 110.691 44.583 108.289 47.7927C108.928 48.4834 109.415 49.3337 109.676 50.3054C109.922 51.2247 109.94 52.1521 109.765 53.0263C113.243 55.1504 116.62 57.6888 119.808 60.7238C120.046 60.6879 120.29 60.6677 120.538 60.6661C120.661 60.6652 120.785 60.6649 120.908 60.6649C121.006 60.6649 121.105 60.6644 121.203 60.6649V40.5638C121.105 40.5634 121.006 40.5638 120.908 40.5638C120.804 40.5638 120.699 40.5645 120.594 40.5649C118.884 40.5719 117.305 40.0039 116.04 39.0438ZM113.481 35.5148C104.245 36.3686 95.4639 38.7988 87.405 42.5354C87.5283 43.1605 87.5696 43.7929 87.5329 44.4177C91.3008 45.2224 95.1644 46.3107 99.0163 47.7803C99.7185 47.0829 100.603 46.5487 101.624 46.2637C101.861 46.1976 102.098 46.1327 102.336 46.069C103.054 45.8764 103.777 45.8244 104.476 45.8935C107.271 42.0725 110.359 38.6675 113.525 35.6404C113.51 35.5989 113.495 35.5566 113.481 35.5148Z" fill="white"/>
</svg>
