<svg width="1001" height="686" viewBox="0 0 1001 686" fill="none" xmlns="http://www.w3.org/2000/svg">
<rect width="1000" height="685" transform="translate(0.668457 0.589844)" fill="white"/>
<path d="M332.435 563.086V625.064H321.824V582.613L302.091 625.064H294.737L274.911 582.613V625.064H264.3V563.086H275.753L298.465 611.691L321.084 563.086H332.444H332.435Z" fill="#005AFF"/>
<path d="M359.295 621.631C354.238 618.923 350.232 615.15 347.287 610.304C344.342 605.457 342.869 599.999 342.869 593.937C342.869 587.875 344.342 582.434 347.287 577.621C350.232 572.808 354.238 569.044 359.295 566.335C364.352 563.627 369.889 562.277 375.914 562.277C381.939 562.277 387.56 563.627 392.626 566.335C397.684 569.044 401.672 572.8 404.584 577.621C407.504 582.434 408.959 587.875 408.959 593.937C408.959 599.999 407.504 605.457 404.584 610.304C401.664 615.15 397.675 618.923 392.626 621.631C387.569 624.339 381.998 625.689 375.914 625.689C369.83 625.689 364.352 624.339 359.295 621.631ZM387.367 614.052C390.716 612.182 393.341 609.507 395.235 606.028C397.128 602.548 398.071 598.523 398.071 593.946C398.071 589.368 397.12 585.351 395.235 581.905C393.341 578.459 390.724 575.81 387.367 573.965C384.018 572.121 380.197 571.198 375.914 571.198C371.631 571.198 367.819 572.121 364.462 573.965C361.113 575.81 358.487 578.451 356.594 581.905C354.7 585.351 353.758 589.368 353.758 593.946C353.758 598.523 354.7 602.548 356.594 606.028C358.487 609.507 361.104 612.182 364.462 614.052C367.811 615.921 371.631 616.86 375.914 616.86C380.197 616.86 384.009 615.921 387.367 614.052Z" fill="#005AFF"/>
<path d="M472.515 625.063H461.904L429.978 578.78V625.063H419.366V562.992H429.978L461.904 609.191V562.992H472.515V625.063Z" fill="#005AFF"/>
<path d="M487.395 577.621C490.341 572.808 494.346 569.044 499.403 566.335C504.461 563.627 509.998 562.277 516.023 562.277C522.915 562.277 529.041 563.896 534.409 567.14C539.778 570.385 543.674 574.971 546.089 580.916H533.332C531.658 577.646 529.327 575.206 526.348 573.605C523.369 572.003 519.927 571.198 516.014 571.198C511.731 571.198 507.919 572.121 504.562 573.965C501.213 575.81 498.587 578.451 496.694 581.905C494.801 585.351 493.858 589.368 493.858 593.946C493.858 598.523 494.801 602.54 496.694 605.986C498.587 609.432 501.204 612.098 504.562 613.968C507.911 615.837 511.731 616.776 516.014 616.776C519.927 616.776 523.369 615.972 526.348 614.37C529.327 612.76 531.658 610.329 533.332 607.059H546.089C543.666 613.003 539.778 617.581 534.409 620.793C529.041 624.004 522.915 625.605 516.023 625.605C509.939 625.605 504.385 624.255 499.361 621.547C494.338 618.839 490.349 615.083 487.404 610.262C484.459 605.449 482.986 600.008 482.986 593.937C482.986 587.867 484.459 582.434 487.404 577.621H487.395Z" fill="#005AFF"/>
<path d="M600.231 563.086V571.378H583.014V625.064H572.403V571.378H555.085V563.086H600.231Z" fill="#005AFF"/>
<path d="M623.83 621.631C618.772 618.923 614.767 615.15 611.822 610.304C608.876 605.457 607.404 599.999 607.404 593.937C607.404 587.875 608.876 582.434 611.822 577.621C614.767 572.808 618.772 569.044 623.83 566.335C628.887 563.627 634.424 562.277 640.449 562.277C646.474 562.277 652.095 563.627 657.161 566.335C662.218 569.044 666.207 572.8 669.118 577.621C672.038 582.434 673.494 587.875 673.494 593.937C673.494 599.999 672.038 605.457 669.118 610.304C666.198 615.15 662.21 618.923 657.161 621.631C652.104 624.339 646.533 625.689 640.449 625.689C634.365 625.689 628.887 624.339 623.83 621.631ZM651.902 614.052C655.251 612.182 657.876 609.507 659.769 606.028C661.663 602.548 662.605 598.523 662.605 593.946C662.605 589.368 661.654 585.351 659.769 581.905C657.876 578.459 655.259 575.81 651.902 573.965C648.552 572.121 644.732 571.198 640.449 571.198C636.166 571.198 632.354 572.121 628.996 573.965C625.647 575.81 623.022 578.451 621.128 581.905C619.235 585.351 618.293 589.368 618.293 593.946C618.293 598.523 619.235 602.548 621.128 606.028C623.022 609.507 625.639 612.182 628.996 614.052C632.345 615.921 636.166 616.86 640.449 616.86C644.732 616.86 648.544 615.921 651.902 614.052Z" fill="#005AFF"/>
<path d="M737.086 625.063H726.475L694.549 578.78V625.063H683.938V562.992H694.549L726.475 609.191V562.992H737.086V625.063Z" fill="#005AFF"/>
<path d="M67.6075 433.267C72.202 424.908 78.7151 418.393 87.1552 413.732C95.5953 409.07 105.306 406.73 116.287 406.73C130.222 406.73 141.936 410.344 151.428 417.58C160.928 424.807 167.046 434.634 169.789 447.043H141.246C138.402 447.043 135.81 445.576 134.127 443.27C132.444 440.964 130.433 439.095 128.077 437.661C124.542 435.506 120.453 434.433 115.808 434.433C108.63 434.433 102.908 436.923 98.6331 441.895C94.3583 446.867 92.2209 453.508 92.2209 461.817C92.2209 470.126 94.3583 476.917 98.6331 481.897C102.908 486.869 108.63 489.36 115.808 489.36C120.453 489.36 124.542 488.286 128.077 486.132C130.433 484.698 132.452 482.828 134.127 480.522C135.801 478.217 138.402 476.741 141.246 476.741H169.789C167.046 489.15 160.928 498.968 151.428 506.204C141.927 513.431 130.214 517.053 116.287 517.053C105.306 517.053 95.6037 514.723 87.1552 510.052C78.7067 505.391 72.1936 498.876 67.6075 490.517C63.013 482.157 60.7241 472.591 60.7241 461.825C60.7241 451.059 63.0214 441.643 67.6075 433.284V433.267Z" fill="#005AFF"/>
<path d="M337.919 407.805L299.447 516.266H259.712L221.087 407.805H254.334L279.663 486.107L304.832 407.805H337.919Z" fill="#005AFF"/>
<path d="M403.378 433.267C407.973 424.908 414.486 418.393 422.926 413.732C431.366 409.07 441.077 406.73 452.058 406.73C465.993 406.73 477.707 410.344 487.199 417.58C496.699 424.807 502.817 434.634 505.56 447.043H477.017C474.172 447.043 471.581 445.576 469.898 443.27C468.215 440.964 466.204 439.095 463.847 437.661C460.313 435.506 456.224 434.433 451.579 434.433C444.401 434.433 438.679 436.923 434.404 441.895C430.129 446.867 427.992 453.508 427.992 461.817C427.992 470.126 430.129 476.917 434.404 481.897C438.679 486.869 444.401 489.36 451.579 489.36C456.224 489.36 460.313 488.286 463.847 486.132C466.204 484.698 468.223 482.828 469.898 480.522C471.572 478.217 474.172 476.741 477.017 476.741H505.56C502.817 489.15 496.699 498.968 487.199 506.204C477.698 513.431 465.985 517.053 452.058 517.053C441.077 517.053 431.374 514.723 422.926 510.052C414.477 505.391 407.964 498.876 403.378 490.517C398.784 482.157 396.495 472.591 396.495 461.825C396.495 451.059 398.792 441.643 403.378 433.284V433.267Z" fill="#005AFF"/>
<path d="M665.003 431.96V449.652H700.623V472.575H665.003V492.111H705.369V516.266H633.969V407.805H705.369V431.96H665.003Z" fill="#005AFF"/>
<path d="M723.796 433.267C728.39 424.908 734.903 418.393 743.343 413.732C751.783 409.07 761.494 406.73 772.476 406.73C786.411 406.73 798.124 410.344 807.624 417.58C817.125 424.807 823.242 434.634 825.986 447.043H797.443C794.598 447.043 792.007 445.576 790.324 443.27C788.649 440.964 786.629 439.095 784.273 437.661C780.739 435.506 776.649 434.433 772.004 434.433C764.827 434.433 759.104 436.923 754.83 441.895C750.555 446.867 748.418 453.508 748.418 461.817C748.418 470.126 750.555 476.917 754.83 481.897C759.104 486.869 764.827 489.36 772.004 489.36C776.649 489.36 780.739 488.286 784.273 486.132C786.629 484.698 788.649 482.828 790.324 480.522C792.007 478.208 794.598 476.741 797.443 476.741H825.986C823.242 489.15 817.116 498.968 807.624 506.204C798.124 513.431 786.411 517.053 772.476 517.053C761.494 517.053 751.792 514.723 743.343 510.052C734.895 505.391 728.382 498.876 723.796 490.517C719.201 482.157 716.912 472.591 716.912 461.825C716.912 451.059 719.21 441.643 723.796 433.284V433.267Z" fill="#005AFF"/>
<path d="M940.613 407.805V516.266H909.587V472.726H871.754V516.266H840.729V407.805H871.754V448.57H909.587V407.805H940.613Z" fill="#005AFF"/>
<path d="M208.535 515.973V487.482H215.553V407.805H184.527V516.266H209.494L208.535 515.973Z" fill="#005AFF"/>
<path d="M208.524 485.27H177.414V516.267H208.524V485.27Z" fill="#005AFF"/>
<path d="M532.172 407.805V431.801H561.615V516.266H585.648V487.793H592.649V431.801H622.404V407.805H532.172Z" fill="#005AFF"/>
<path d="M585.651 485.27H554.542V516.267H585.651V485.27Z" fill="#005AFF"/>
<path d="M375.56 407.805H351.544V516.266H382.578V436.278H375.56V407.805Z" fill="#005AFF"/>
<path d="M375.548 407.805H344.439V438.802H375.548V407.805Z" fill="#005AFF"/>
<path d="M497.111 60.9961C565.363 61.3073 622.845 107.201 640.686 169.802H585.09L585.091 169.8H576.352C562.744 169.8 553.38 162.058 548.511 157.189C548.169 156.847 547.782 156.521 547.358 156.207C534.457 144.206 517.315 136.705 498.426 136.205C494.969 136.208 490.404 135.898 488.236 132.563C479.436 133.415 471.06 135.711 463.347 139.216C463.201 142.008 461.683 144.671 459.073 146.158C458.783 146.323 458.494 146.489 458.207 146.658C455.617 148.179 452.55 148.17 450.056 146.905C443.029 151.943 436.864 158.107 431.826 165.135C433.091 167.629 433.103 170.694 431.581 173.284C431.412 173.571 431.246 173.86 431.081 174.15C429.594 176.76 426.93 178.281 424.137 178.426C420.632 186.138 418.336 194.515 417.484 203.315C419.83 204.839 421.377 207.489 421.357 210.494C421.356 210.662 421.355 210.83 421.355 210.998C421.355 211.166 421.356 211.334 421.357 211.502C421.376 214.507 419.831 217.157 417.484 218.681C418.336 227.481 420.632 235.859 424.137 243.572C426.931 243.717 429.594 245.236 431.081 247.846C431.246 248.136 431.412 248.425 431.581 248.712C433.103 251.303 433.092 254.369 431.826 256.863C436.864 263.89 443.03 270.054 450.058 275.091C452.552 273.826 455.617 273.815 458.207 275.336C458.494 275.505 458.783 275.673 459.073 275.838C461.683 277.325 463.199 279.987 463.345 282.78C471.059 286.286 479.437 288.582 488.238 289.433C490.407 286.095 493.833 285.79 498.439 285.79C517.873 285.273 535.458 277.343 548.475 264.727C548.804 264.47 549.109 264.206 549.384 263.931C553.967 259.349 562.53 252.227 574.865 251.404H640.907C623.321 314.423 565.621 360.706 497.06 360.996C490.733 360.996 484.767 357.923 483.211 351.453C466.777 349.972 451.16 345.648 436.851 338.973C432.968 343.035 426.679 344.087 421.594 341.153C421.235 340.946 420.877 340.737 420.519 340.527C415.46 337.551 413.273 331.562 414.89 326.179C401.776 316.854 390.325 305.325 381.07 292.131C375.679 293.716 369.704 291.491 366.758 286.415C366.55 286.057 366.342 285.696 366.137 285.336C363.234 280.234 364.322 273.954 368.407 270.094C361.815 255.768 357.545 240.142 356.083 223.706C350.624 222.391 346.557 217.488 346.532 211.622V210.374C346.556 204.508 350.624 199.607 356.083 198.291C357.544 181.856 361.815 166.232 368.407 151.906C364.32 148.046 363.233 141.761 366.137 136.658C366.342 136.298 366.55 135.937 366.758 135.579C369.704 130.502 375.68 128.279 381.072 129.865C390.326 116.672 401.777 105.145 414.89 95.8203C413.27 90.4372 415.458 84.446 420.519 81.4688C420.876 81.2588 421.235 81.0497 421.594 80.8425C426.681 77.908 432.971 78.9602 436.855 83.0251C451.163 76.3511 466.778 72.0277 483.211 70.5468C484.767 64.0617 490.004 60.9957 497.111 60.9961ZM459.488 323.274C453.035 325.761 446.557 327.602 440.239 328.964C440.379 330.217 440.33 331.497 440.081 332.759C453.513 338.987 468.151 343.037 483.545 344.46C483.646 344.167 483.755 343.877 483.877 343.594C478.849 338.783 473.941 333.398 469.463 327.387C468.327 327.499 467.152 327.417 465.983 327.115C465.784 327.064 465.585 327.013 465.386 326.96C465.187 326.908 464.987 326.853 464.788 326.8C462.599 326.212 460.776 324.939 459.488 323.274ZM493.301 302.287C488.392 306.899 483.221 310.814 477.901 314.137C478.536 315.941 478.663 317.948 478.15 319.939C477.723 321.592 476.905 323.04 475.824 324.212C479.724 329.325 483.97 333.971 488.347 338.19C490.358 336.826 492.785 336.031 495.399 336.041H496.413V302.54C496.249 302.54 496.085 302.541 495.921 302.541C495.715 302.541 495.51 302.541 495.304 302.54C494.614 302.535 493.943 302.447 493.301 302.287ZM447.147 287.798C440.923 289.516 434.785 290.554 428.778 291.042C428.464 293.025 427.553 294.934 426.039 296.475C424.948 297.584 423.66 298.387 422.287 298.878C423.37 305.294 424.986 311.452 426.922 317.283C429.053 317.294 431.209 317.846 433.179 319.004C433.476 319.178 433.774 319.352 434.073 319.524C435.41 320.296 436.548 321.281 437.474 322.407C444.044 321.057 450.76 319.184 457.407 316.589C457.446 315.918 457.554 315.238 457.735 314.563C458.079 313.285 458.657 312.132 459.409 311.138C456.342 305.007 453.792 298.37 451.963 291.191C451.523 291.03 451.09 290.831 450.669 290.591C450.313 290.389 449.958 290.184 449.605 289.976C448.622 289.399 447.797 288.653 447.147 287.798ZM388.145 286.762C387.797 287.321 387.402 287.856 386.963 288.36C395.673 300.72 406.415 311.534 418.699 320.309C419.172 319.901 419.672 319.532 420.195 319.204C418.076 312.776 416.314 305.925 415.183 298.74C413.997 298.263 412.884 297.547 411.916 296.596C411.623 296.308 411.33 296.018 411.04 295.728C409.616 294.298 408.715 292.544 408.335 290.704C401.287 289.928 394.526 288.532 388.145 286.762ZM460.789 289.299C460.258 289.816 459.669 290.257 459.037 290.612C460.643 296.59 462.79 302.171 465.347 307.378C466.831 307.068 468.409 307.09 469.974 307.51C470.14 307.555 470.306 307.6 470.472 307.644C470.638 307.688 470.807 307.731 470.974 307.774C471.824 307.994 472.62 308.318 473.353 308.727C478.343 305.681 483.186 302.096 487.78 297.875C487.537 297.395 487.338 296.888 487.189 296.362C477.868 295.419 468.987 292.983 460.789 289.299ZM426.365 261.239C425.265 261.521 424.134 261.573 423.039 261.413C421.697 267.411 421.009 273.311 420.849 279.073C422.439 279.524 423.94 280.373 425.19 281.627C425.431 281.869 425.674 282.11 425.918 282.35C426.478 282.9 426.957 283.504 427.359 284.14C433.326 283.709 439.416 282.701 445.583 280.976C445.612 280.836 445.644 280.694 445.68 280.554C438.26 275.185 431.734 268.659 426.365 261.239ZM397.074 247.501C395.896 248.686 394.406 249.593 392.682 250.074C391.473 250.412 390.252 250.51 389.072 250.4C386.582 256.371 384.674 262.406 383.203 268.336C385.074 269.408 386.694 270.976 387.838 272.986C388.009 273.286 388.182 273.585 388.355 273.884C389.48 275.823 390.02 277.939 390.037 280.031C396.195 281.738 402.679 283.066 409.407 283.787C409.847 283.005 410.4 282.268 411.067 281.603C411.897 280.776 412.838 280.127 413.84 279.652C413.986 272.37 414.916 264.854 416.863 257.18C416.683 256.872 416.505 256.561 416.328 256.25C416.159 255.953 416.01 255.65 415.881 255.343C409.106 253.307 402.849 250.634 397.074 247.501ZM365.62 222.167C364.827 222.662 363.973 223.069 363.074 223.378C364.479 238.79 368.481 253.445 374.635 266.9C375.224 266.787 375.817 266.72 376.408 266.693C377.982 260.341 380.049 253.827 382.773 247.354C381.674 246.206 380.835 244.777 380.377 243.14C380.267 242.745 380.157 242.347 380.051 241.951C379.52 239.97 379.626 237.968 380.24 236.162C374.829 231.755 369.972 227.007 365.62 222.167ZM409.452 219.33C404.982 223.86 401.163 228.674 397.896 233.661C398.539 234.584 399.039 235.632 399.347 236.781C399.435 237.11 399.525 237.441 399.616 237.769C399.929 238.888 400.034 240.017 399.962 241.114C404.982 243.871 410.38 246.247 416.182 248.116C416.558 247.396 417.04 246.725 417.62 246.13C413.936 237.932 411.5 229.05 410.557 219.728C410.177 219.621 409.808 219.487 409.452 219.33ZM383.699 191.702C378.74 195.865 374.264 200.345 370.225 204.928C371.047 206.601 371.51 208.484 371.502 210.475C371.501 210.649 371.5 210.824 371.5 210.998C371.5 211.172 371.501 211.347 371.502 211.521C371.51 213.45 371.079 215.279 370.304 216.914C374.585 221.729 379.349 226.425 384.656 230.746C385.408 230.307 386.231 229.957 387.114 229.72C388.821 229.263 390.543 229.279 392.143 229.684C395.696 224.28 399.869 219.049 404.772 214.124C404.521 213.332 404.385 212.489 404.38 211.615C404.378 211.41 404.378 211.203 404.378 210.998C404.378 210.793 404.378 210.586 404.38 210.381C404.386 209.428 404.55 208.512 404.845 207.659C400.17 203.015 396.15 198.094 392.693 193.008C390.913 193.616 388.94 193.73 386.982 193.225C385.768 192.911 384.664 192.387 383.699 191.702ZM415.971 173.448C410.103 175.377 404.653 177.828 399.59 180.663C399.849 182.077 399.807 183.569 399.409 185.049L399.147 186.049C398.915 186.947 398.564 187.784 398.122 188.55C401.395 193.435 405.208 198.147 409.652 202.579C409.946 202.459 410.248 202.355 410.557 202.268C411.499 192.947 413.936 184.066 417.62 175.868C416.925 175.155 416.371 174.333 415.971 173.448ZM374.635 155.097C368.481 168.553 364.478 183.208 363.074 198.62C363.92 198.91 364.726 199.286 365.479 199.742C369.736 194.962 374.479 190.259 379.762 185.879C379.393 184.343 379.382 182.696 379.804 181.059C379.855 180.861 379.908 180.66 379.961 180.461C380.013 180.263 380.066 180.062 380.119 179.864C380.621 177.997 381.622 176.396 382.937 175.166C380.061 168.526 377.89 161.83 376.242 155.297C375.706 155.266 375.169 155.2 374.635 155.097ZM408.203 137.781C401.901 138.545 395.821 139.833 390.032 141.453C390.105 143.71 389.571 146.014 388.355 148.11C388.182 148.409 388.009 148.71 387.838 149.01C386.665 151.071 384.994 152.672 383.062 153.745C384.633 159.946 386.687 166.253 389.389 172.475C390.365 172.438 391.364 172.543 392.358 172.81C393.731 173.18 394.959 173.822 396.002 174.657C402.149 171.199 408.851 168.261 416.156 166.063C416.211 165.957 416.268 165.851 416.328 165.746C416.468 165.499 416.611 165.252 416.754 165.007C414.801 157.568 413.808 150.274 413.564 143.194C412.435 142.718 411.373 142.025 410.446 141.114C409.45 140.134 408.701 138.997 408.203 137.781ZM427.374 137.232C426.888 138.332 426.195 139.364 425.292 140.265C425.05 140.506 424.809 140.751 424.569 140.995C423.414 142.17 422.038 142.996 420.574 143.477C420.797 149.074 421.523 154.796 422.868 160.609C424.016 160.417 425.207 160.462 426.365 160.758C431.734 153.339 438.26 146.813 445.68 141.444C445.582 141.065 445.512 140.681 445.468 140.297C439.345 138.617 433.298 137.64 427.374 137.232ZM418.699 101.689C406.415 110.464 395.673 121.278 386.963 133.638C387.288 134.01 387.591 134.398 387.866 134.802C394.224 133.009 400.962 131.576 407.994 130.761C408.462 129.388 409.24 128.095 410.325 126.991C410.613 126.698 410.903 126.407 411.193 126.117C412.219 125.095 413.412 124.345 414.683 123.861C415.784 116.358 417.586 109.211 419.774 102.519C419.403 102.264 419.044 101.986 418.699 101.689ZM437.919 99.0139C436.922 100.381 435.633 101.57 434.073 102.47C433.774 102.642 433.476 102.816 433.179 102.99C431.053 104.24 428.709 104.787 426.414 104.705C424.433 110.764 422.801 117.169 421.757 123.846C423.055 124.333 424.274 125.096 425.316 126.142C426.503 127.333 427.324 128.75 427.786 130.252C434.257 130.694 440.885 131.769 447.613 133.638C448.177 133.016 448.843 132.467 449.605 132.02C449.958 131.812 450.313 131.607 450.669 131.405C450.922 131.26 451.18 131.13 451.441 131.014C453.187 123.906 455.641 117.326 458.605 111.238C457.817 110.234 457.209 109.062 456.845 107.757C456.526 106.615 456.42 105.462 456.502 104.343C450.297 102.005 444.047 100.279 437.919 99.0139ZM473.675 112.671C472.656 113.462 471.464 114.067 470.14 114.422C469.81 114.51 469.479 114.6 469.15 114.691C467.619 115.119 466.072 115.163 464.609 114.886C462.184 119.955 460.145 125.373 458.616 131.163C459.408 131.552 460.142 132.068 460.789 132.699C468.987 129.015 477.867 126.578 487.189 125.636C487.4 124.888 487.712 124.18 488.108 123.531C483.513 119.307 478.668 115.718 473.675 112.671ZM487.808 83.4193C483.277 87.8061 478.892 92.6513 474.89 98.0009C475.954 99.1521 476.767 100.569 477.201 102.189C477.611 103.721 477.641 105.267 477.35 106.723C483.146 110.264 488.774 114.494 494.088 119.553C494.485 119.493 494.891 119.459 495.304 119.456C495.51 119.455 495.715 119.455 495.921 119.455C496.085 119.455 496.249 119.454 496.413 119.455V85.9527C496.25 85.952 496.085 85.9527 495.921 85.9527C495.747 85.9527 495.572 85.9539 495.399 85.9546C492.547 85.9661 489.916 85.0195 487.808 83.4193ZM483.543 77.5376C468.15 78.9607 453.514 83.011 440.083 89.2388C440.288 90.2805 440.357 91.3345 440.296 92.3758C446.576 93.7171 453.015 95.5308 459.435 97.9802C460.605 96.8178 462.079 95.9274 463.781 95.4524C464.176 95.3423 464.572 95.2341 464.968 95.128C466.165 94.8071 467.37 94.7204 468.535 94.8356C473.192 88.4672 478.339 82.7921 483.616 77.747C483.591 77.6779 483.567 77.6074 483.543 77.5376Z" fill="#005AFF"/>
</svg>
