<svg width="1001" height="686" viewBox="0 0 1001 686" fill="none" xmlns="http://www.w3.org/2000/svg">
<rect width="1000" height="685" transform="translate(0.668457 0.589844)" fill="#000035"/>
<path d="M332.435 563.336V625.314H321.824V582.863L302.091 625.314H294.737L274.911 582.863V625.314H264.3V563.336H275.753L298.464 611.941L321.084 563.336H332.444H332.435Z" fill="#005AFF"/>
<path d="M359.295 621.881C354.237 619.173 350.232 615.4 347.287 610.554C344.342 605.707 342.869 600.249 342.869 594.187C342.869 588.125 344.342 582.684 347.287 577.871C350.232 573.058 354.237 569.294 359.295 566.585C364.352 563.877 369.889 562.527 375.914 562.527C381.939 562.527 387.56 563.877 392.626 566.585C397.683 569.294 401.672 573.05 404.584 577.871C407.504 582.684 408.959 588.125 408.959 594.187C408.959 600.249 407.504 605.707 404.584 610.554C401.664 615.4 397.675 619.173 392.626 621.881C387.569 624.589 381.998 625.939 375.914 625.939C369.83 625.939 364.352 624.589 359.295 621.881ZM387.367 614.302C390.716 612.432 393.341 609.757 395.235 606.278C397.128 602.798 398.07 598.773 398.07 594.196C398.07 589.618 397.12 585.601 395.235 582.155C393.341 578.709 390.724 576.06 387.367 574.215C384.018 572.371 380.197 571.448 375.914 571.448C371.631 571.448 367.819 572.371 364.462 574.215C361.112 576.06 358.487 578.701 356.594 582.155C354.7 585.601 353.758 589.618 353.758 594.196C353.758 598.773 354.7 602.798 356.594 606.278C358.487 609.757 361.104 612.432 364.462 614.302C367.811 616.171 371.631 617.11 375.914 617.11C380.197 617.11 384.009 616.171 387.367 614.302Z" fill="#005AFF"/>
<path d="M472.515 625.313H461.904L429.978 579.03V625.313H419.366V563.242H429.978L461.904 609.441V563.242H472.515V625.313Z" fill="#005AFF"/>
<path d="M487.395 577.871C490.341 573.058 494.346 569.294 499.403 566.585C504.461 563.877 509.998 562.527 516.023 562.527C522.914 562.527 529.04 564.146 534.409 567.39C539.778 570.635 543.674 575.221 546.089 581.166H533.332C531.658 577.896 529.327 575.456 526.348 573.855C523.369 572.253 519.927 571.448 516.014 571.448C511.731 571.448 507.919 572.371 504.562 574.215C501.213 576.06 498.587 578.701 496.694 582.155C494.8 585.601 493.858 589.618 493.858 594.196C493.858 598.773 494.8 602.79 496.694 606.236C498.587 609.682 501.204 612.348 504.562 614.218C507.911 616.087 511.731 617.026 516.014 617.026C519.927 617.026 523.369 616.222 526.348 614.62C529.327 613.01 531.658 610.579 533.332 607.309H546.089C543.665 613.253 539.778 617.831 534.409 621.043C529.04 624.254 522.914 625.855 516.023 625.855C509.939 625.855 504.385 624.505 499.361 621.797C494.338 619.089 490.349 615.333 487.404 610.512C484.459 605.699 482.986 600.258 482.986 594.187C482.986 588.117 484.459 582.684 487.404 577.871H487.395Z" fill="#005AFF"/>
<path d="M600.231 563.336V571.628H583.014V625.314H572.403V571.628H555.085V563.336H600.231Z" fill="#005AFF"/>
<path d="M623.829 621.881C618.772 619.173 614.767 615.4 611.821 610.554C608.876 605.707 607.404 600.249 607.404 594.187C607.404 588.125 608.876 582.684 611.821 577.871C614.767 573.058 618.772 569.294 623.829 566.585C628.887 563.877 634.424 562.527 640.449 562.527C646.474 562.527 652.095 563.877 657.161 566.585C662.218 569.294 666.207 573.05 669.118 577.871C672.038 582.684 673.494 588.125 673.494 594.187C673.494 600.249 672.038 605.707 669.118 610.554C666.198 615.4 662.21 619.173 657.161 621.881C652.103 624.589 646.533 625.939 640.449 625.939C634.365 625.939 628.887 624.589 623.829 621.881ZM651.901 614.302C655.251 612.432 657.876 609.757 659.769 606.278C661.663 602.798 662.605 598.773 662.605 594.196C662.605 589.618 661.654 585.601 659.769 582.155C657.876 578.709 655.259 576.06 651.901 574.215C648.552 572.371 644.732 571.448 640.449 571.448C636.166 571.448 632.354 572.371 628.996 574.215C625.647 576.06 623.022 578.701 621.128 582.155C619.235 585.601 618.293 589.618 618.293 594.196C618.293 598.773 619.235 602.798 621.128 606.278C623.022 609.757 625.639 612.432 628.996 614.302C632.345 616.171 636.166 617.11 640.449 617.11C644.732 617.11 648.544 616.171 651.901 614.302Z" fill="#005AFF"/>
<path d="M737.086 625.313H726.475L694.549 579.03V625.313H683.938V563.242H694.549L726.475 609.441V563.242H737.086V625.313Z" fill="#005AFF"/>
<path d="M67.6075 433.517C72.202 425.158 78.7151 418.643 87.1552 413.982C95.5953 409.32 105.306 406.98 116.287 406.98C130.222 406.98 141.936 410.594 151.428 417.83C160.928 425.057 167.046 434.884 169.789 447.293H141.246C138.402 447.293 135.81 445.826 134.127 443.52C132.444 441.214 130.433 439.345 128.077 437.911C124.542 435.756 120.453 434.683 115.808 434.683C108.63 434.683 102.908 437.173 98.6331 442.145C94.3583 447.117 92.2209 453.758 92.2209 462.067C92.2209 470.376 94.3583 477.167 98.6331 482.147C102.908 487.119 108.63 489.61 115.808 489.61C120.453 489.61 124.542 488.536 128.077 486.382C130.433 484.948 132.452 483.078 134.127 480.772C135.801 478.467 138.402 476.991 141.246 476.991H169.789C167.046 489.4 160.928 499.218 151.428 506.454C141.927 513.681 130.214 517.303 116.287 517.303C105.306 517.303 95.6037 514.973 87.1552 510.302C78.7067 505.641 72.1936 499.126 67.6075 490.767C63.013 482.407 60.7241 472.841 60.7241 462.075C60.7241 451.309 63.0214 441.893 67.6075 433.534V433.517Z" fill="white"/>
<path d="M337.919 408.055L299.446 516.516H259.711L221.087 408.055H254.334L279.663 486.357L304.832 408.055H337.919Z" fill="white"/>
<path d="M403.378 433.517C407.973 425.158 414.486 418.643 422.926 413.982C431.366 409.32 441.077 406.98 452.058 406.98C465.993 406.98 477.707 410.594 487.199 417.83C496.699 425.057 502.817 434.884 505.56 447.293H477.017C474.172 447.293 471.581 445.826 469.898 443.52C468.215 441.214 466.204 439.345 463.847 437.911C460.313 435.756 456.224 434.683 451.579 434.683C444.401 434.683 438.679 437.173 434.404 442.145C430.129 447.117 427.992 453.758 427.992 462.067C427.992 470.376 430.129 477.167 434.404 482.147C438.679 487.119 444.401 489.61 451.579 489.61C456.224 489.61 460.313 488.536 463.847 486.382C466.204 484.948 468.223 483.078 469.898 480.772C471.572 478.467 474.172 476.991 477.017 476.991H505.56C502.817 489.4 496.699 499.218 487.199 506.454C477.698 513.681 465.985 517.303 452.058 517.303C441.077 517.303 431.374 514.973 422.926 510.302C414.477 505.641 407.964 499.126 403.378 490.767C398.784 482.407 396.495 472.841 396.495 462.075C396.495 451.309 398.792 441.893 403.378 433.534V433.517Z" fill="white"/>
<path d="M665.003 432.21V449.902H700.623V472.825H665.003V492.361H705.369V516.516H633.969V408.055H705.369V432.21H665.003Z" fill="white"/>
<path d="M723.796 433.517C728.39 425.158 734.903 418.643 743.343 413.982C751.783 409.32 761.494 406.98 772.476 406.98C786.411 406.98 798.124 410.594 807.624 417.83C817.125 425.057 823.242 434.884 825.986 447.293H797.443C794.598 447.293 792.007 445.826 790.324 443.52C788.649 441.214 786.629 439.345 784.273 437.911C780.739 435.756 776.649 434.683 772.004 434.683C764.827 434.683 759.104 437.173 754.83 442.145C750.555 447.117 748.418 453.758 748.418 462.067C748.418 470.376 750.555 477.167 754.83 482.147C759.104 487.119 764.827 489.61 772.004 489.61C776.649 489.61 780.739 488.536 784.273 486.382C786.629 484.948 788.649 483.078 790.324 480.772C792.007 478.458 794.598 476.991 797.443 476.991H825.986C823.242 489.4 817.116 499.218 807.624 506.454C798.124 513.681 786.411 517.303 772.476 517.303C761.494 517.303 751.792 514.973 743.343 510.302C734.895 505.641 728.382 499.126 723.796 490.767C719.201 482.407 716.912 472.841 716.912 462.075C716.912 451.309 719.21 441.893 723.796 433.534V433.517Z" fill="white"/>
<path d="M940.613 408.055V516.516H909.587V472.976H871.754V516.516H840.729V408.055H871.754V448.82H909.587V408.055H940.613Z" fill="white"/>
<path d="M208.535 516.223V487.732H215.553V408.055H184.527V516.516H209.494L208.535 516.223Z" fill="white"/>
<path d="M208.524 485.52H177.414V516.517H208.524V485.52Z" fill="white"/>
<path d="M532.172 408.055V432.051H561.615V516.516H585.648V488.043H592.649V432.051H622.404V408.055H532.172Z" fill="white"/>
<path d="M585.651 485.52H554.541V516.517H585.651V485.52Z" fill="white"/>
<path d="M375.56 408.055H351.544V516.516H382.578V436.528H375.56V408.055Z" fill="white"/>
<path d="M375.548 408.055H344.439V439.052H375.548V408.055Z" fill="white"/>
<path d="M497.111 61.2461C565.363 61.5573 622.845 107.451 640.686 170.052H585.09L585.091 170.05H576.352C562.744 170.05 553.38 162.308 548.511 157.439C548.169 157.097 547.782 156.771 547.358 156.457C534.457 144.456 517.315 136.955 498.426 136.455C494.969 136.458 490.404 136.148 488.236 132.813C479.436 133.665 471.06 135.961 463.347 139.466C463.201 142.258 461.683 144.921 459.073 146.408C458.783 146.573 458.494 146.739 458.207 146.908C455.617 148.429 452.55 148.42 450.056 147.155C443.029 152.193 436.864 158.357 431.826 165.385C433.091 167.879 433.103 170.944 431.581 173.534C431.412 173.821 431.246 174.11 431.081 174.4C429.594 177.01 426.93 178.531 424.137 178.676C420.632 186.388 418.336 194.765 417.484 203.565C419.83 205.089 421.377 207.739 421.357 210.744C421.356 210.912 421.355 211.08 421.355 211.248C421.355 211.416 421.356 211.584 421.357 211.752C421.376 214.757 419.831 217.407 417.484 218.931C418.336 227.731 420.632 236.109 424.137 243.822C426.931 243.967 429.594 245.486 431.081 248.096C431.246 248.386 431.412 248.675 431.581 248.962C433.103 251.553 433.092 254.619 431.826 257.113C436.864 264.14 443.03 270.304 450.058 275.341C452.552 274.076 455.617 274.065 458.207 275.586C458.494 275.755 458.783 275.923 459.073 276.088C461.683 277.575 463.199 280.237 463.345 283.03C471.059 286.536 479.437 288.832 488.238 289.683C490.407 286.345 493.833 286.04 498.439 286.04C517.873 285.523 535.458 277.593 548.475 264.977C548.804 264.72 549.109 264.456 549.384 264.181C553.967 259.599 562.53 252.477 574.865 251.654H640.907C623.321 314.673 565.621 360.956 497.06 361.246C490.733 361.246 484.767 358.173 483.211 351.703C466.777 350.222 451.16 345.898 436.851 339.223C432.968 343.285 426.679 344.337 421.594 341.403C421.235 341.196 420.877 340.987 420.519 340.777C415.46 337.801 413.273 331.812 414.89 326.429C401.776 317.104 390.325 305.575 381.07 292.381C375.679 293.966 369.704 291.741 366.758 286.665C366.55 286.307 366.342 285.946 366.137 285.586C363.234 280.484 364.322 274.204 368.407 270.344C361.815 256.018 357.545 240.392 356.083 223.956C350.624 222.641 346.557 217.738 346.532 211.872V210.624C346.556 204.758 350.624 199.857 356.083 198.541C357.544 182.106 361.815 166.482 368.407 152.156C364.32 148.296 363.233 142.011 366.137 136.908C366.342 136.548 366.55 136.187 366.758 135.829C369.704 130.752 375.68 128.529 381.072 130.115C390.326 116.922 401.777 105.395 414.89 96.0703C413.27 90.6872 415.458 84.696 420.519 81.7188C420.876 81.5088 421.235 81.2997 421.594 81.0925C426.681 78.158 432.971 79.2102 436.855 83.2751C451.163 76.6011 466.778 72.2777 483.211 70.7968C484.767 64.3117 490.004 61.2457 497.111 61.2461ZM459.488 323.524C453.035 326.011 446.557 327.852 440.239 329.214C440.379 330.467 440.33 331.747 440.081 333.009C453.513 339.237 468.151 343.287 483.545 344.71C483.646 344.417 483.755 344.127 483.877 343.844C478.849 339.033 473.941 333.648 469.463 327.637C468.327 327.749 467.152 327.667 465.983 327.365C465.784 327.314 465.585 327.263 465.386 327.21C465.187 327.158 464.987 327.103 464.788 327.05C462.599 326.462 460.776 325.189 459.488 323.524ZM493.301 302.537C488.392 307.149 483.221 311.064 477.901 314.387C478.536 316.191 478.663 318.198 478.15 320.189C477.723 321.842 476.905 323.29 475.824 324.462C479.724 329.575 483.97 334.221 488.347 338.44C490.358 337.076 492.785 336.281 495.399 336.291H496.413V302.79C496.249 302.79 496.085 302.791 495.921 302.791C495.715 302.791 495.51 302.791 495.304 302.79C494.614 302.785 493.943 302.697 493.301 302.537ZM447.147 288.048C440.923 289.766 434.785 290.804 428.778 291.292C428.464 293.275 427.553 295.184 426.039 296.725C424.948 297.834 423.66 298.637 422.287 299.128C423.37 305.544 424.986 311.702 426.922 317.533C429.053 317.544 431.209 318.096 433.179 319.254C433.476 319.428 433.774 319.602 434.073 319.774C435.41 320.546 436.548 321.531 437.474 322.657C444.044 321.307 450.76 319.434 457.407 316.839C457.446 316.168 457.554 315.488 457.735 314.813C458.079 313.535 458.657 312.382 459.409 311.388C456.342 305.257 453.792 298.62 451.963 291.441C451.523 291.28 451.09 291.081 450.669 290.841C450.313 290.639 449.958 290.434 449.605 290.226C448.622 289.649 447.797 288.903 447.147 288.048ZM388.145 287.012C387.797 287.571 387.402 288.106 386.963 288.61C395.673 300.97 406.415 311.784 418.699 320.559C419.172 320.151 419.672 319.782 420.195 319.454C418.076 313.026 416.314 306.175 415.183 298.99C413.997 298.513 412.884 297.797 411.916 296.846C411.623 296.558 411.33 296.268 411.04 295.978C409.616 294.548 408.715 292.794 408.335 290.954C401.287 290.178 394.526 288.782 388.145 287.012ZM460.789 289.549C460.258 290.066 459.669 290.507 459.037 290.862C460.643 296.84 462.79 302.421 465.347 307.628C466.831 307.318 468.409 307.34 469.974 307.76C470.14 307.805 470.306 307.85 470.472 307.894C470.638 307.938 470.807 307.981 470.974 308.024C471.824 308.244 472.62 308.568 473.353 308.977C478.343 305.931 483.186 302.346 487.78 298.125C487.537 297.645 487.338 297.138 487.189 296.612C477.868 295.669 468.987 293.233 460.789 289.549ZM426.365 261.489C425.265 261.771 424.134 261.823 423.039 261.663C421.697 267.661 421.009 273.561 420.849 279.323C422.439 279.774 423.94 280.623 425.19 281.877C425.431 282.119 425.674 282.36 425.918 282.6C426.478 283.15 426.957 283.754 427.359 284.39C433.326 283.959 439.416 282.951 445.583 281.226C445.612 281.086 445.644 280.944 445.68 280.804C438.26 275.435 431.734 268.909 426.365 261.489ZM397.074 247.751C395.896 248.936 394.406 249.843 392.682 250.324C391.473 250.662 390.252 250.76 389.072 250.65C386.582 256.621 384.674 262.656 383.203 268.586C385.074 269.658 386.694 271.226 387.838 273.236C388.009 273.536 388.182 273.835 388.355 274.134C389.48 276.073 390.02 278.189 390.037 280.281C396.195 281.988 402.679 283.316 409.407 284.037C409.847 283.255 410.4 282.518 411.067 281.853C411.897 281.026 412.838 280.377 413.84 279.902C413.986 272.62 414.916 265.104 416.863 257.43C416.683 257.122 416.505 256.811 416.328 256.5C416.159 256.203 416.01 255.9 415.881 255.593C409.106 253.557 402.849 250.884 397.074 247.751ZM365.62 222.417C364.827 222.912 363.973 223.319 363.074 223.628C364.479 239.04 368.481 253.695 374.635 267.15C375.224 267.037 375.817 266.97 376.408 266.943C377.982 260.591 380.049 254.077 382.773 247.604C381.674 246.456 380.835 245.027 380.377 243.39C380.267 242.995 380.157 242.597 380.051 242.201C379.52 240.22 379.626 238.218 380.24 236.412C374.829 232.005 369.972 227.257 365.62 222.417ZM409.452 219.58C404.982 224.11 401.163 228.924 397.896 233.911C398.539 234.834 399.039 235.882 399.347 237.031C399.435 237.36 399.525 237.691 399.616 238.019C399.929 239.138 400.034 240.267 399.962 241.364C404.982 244.121 410.38 246.497 416.182 248.366C416.558 247.646 417.04 246.975 417.62 246.38C413.936 238.182 411.5 229.3 410.557 219.978C410.177 219.871 409.808 219.737 409.452 219.58ZM383.699 191.952C378.74 196.115 374.264 200.595 370.225 205.178C371.047 206.851 371.51 208.734 371.502 210.725C371.501 210.899 371.5 211.074 371.5 211.248C371.5 211.422 371.501 211.597 371.502 211.771C371.51 213.7 371.079 215.529 370.304 217.164C374.585 221.979 379.349 226.675 384.656 230.996C385.408 230.557 386.231 230.207 387.114 229.97C388.821 229.513 390.543 229.529 392.143 229.934C395.696 224.53 399.869 219.299 404.772 214.374C404.521 213.582 404.385 212.739 404.38 211.865C404.378 211.66 404.378 211.453 404.378 211.248C404.378 211.043 404.378 210.836 404.38 210.631C404.386 209.678 404.55 208.762 404.845 207.909C400.17 203.265 396.15 198.344 392.693 193.258C390.913 193.866 388.94 193.98 386.982 193.475C385.768 193.161 384.664 192.637 383.699 191.952ZM415.971 173.698C410.103 175.627 404.653 178.078 399.59 180.913C399.849 182.327 399.807 183.819 399.409 185.299L399.147 186.299C398.915 187.197 398.564 188.034 398.122 188.8C401.395 193.685 405.208 198.397 409.652 202.829C409.946 202.709 410.248 202.605 410.557 202.518C411.499 193.197 413.936 184.316 417.62 176.118C416.925 175.405 416.371 174.583 415.971 173.698ZM374.635 155.347C368.481 168.803 364.478 183.458 363.074 198.87C363.92 199.16 364.726 199.536 365.479 199.992C369.736 195.212 374.479 190.509 379.762 186.129C379.393 184.593 379.382 182.946 379.804 181.309C379.855 181.111 379.908 180.91 379.961 180.711C380.013 180.513 380.066 180.312 380.119 180.114C380.621 178.247 381.622 176.646 382.937 175.416C380.061 168.776 377.89 162.08 376.242 155.547C375.706 155.516 375.169 155.45 374.635 155.347ZM408.203 138.031C401.901 138.795 395.821 140.083 390.032 141.703C390.105 143.96 389.571 146.264 388.355 148.36C388.182 148.659 388.009 148.96 387.838 149.26C386.665 151.321 384.994 152.922 383.062 153.995C384.633 160.196 386.687 166.503 389.389 172.725C390.365 172.688 391.364 172.793 392.358 173.06C393.731 173.43 394.959 174.072 396.002 174.907C402.149 171.449 408.851 168.511 416.156 166.313C416.211 166.207 416.268 166.101 416.328 165.996C416.468 165.749 416.611 165.502 416.754 165.257C414.801 157.818 413.808 150.524 413.564 143.444C412.435 142.968 411.373 142.275 410.446 141.364C409.45 140.384 408.701 139.247 408.203 138.031ZM427.374 137.482C426.888 138.582 426.195 139.614 425.292 140.515C425.05 140.756 424.809 141.001 424.569 141.245C423.414 142.42 422.038 143.246 420.574 143.727C420.797 149.324 421.523 155.046 422.868 160.859C424.016 160.667 425.207 160.712 426.365 161.008C431.734 153.589 438.26 147.063 445.68 141.694C445.582 141.315 445.512 140.931 445.468 140.547C439.345 138.867 433.298 137.89 427.374 137.482ZM418.699 101.939C406.415 110.714 395.673 121.528 386.963 133.888C387.288 134.26 387.591 134.648 387.866 135.052C394.224 133.259 400.962 131.826 407.994 131.011C408.462 129.638 409.24 128.345 410.325 127.241C410.613 126.948 410.903 126.657 411.193 126.367C412.219 125.345 413.412 124.595 414.683 124.111C415.784 116.608 417.586 109.461 419.774 102.769C419.403 102.514 419.044 102.236 418.699 101.939ZM437.919 99.2639C436.922 100.631 435.633 101.82 434.073 102.72C433.774 102.892 433.476 103.066 433.179 103.24C431.053 104.49 428.709 105.037 426.414 104.955C424.433 111.014 422.801 117.419 421.757 124.096C423.055 124.583 424.274 125.346 425.316 126.392C426.503 127.583 427.324 129 427.786 130.502C434.257 130.944 440.885 132.019 447.613 133.888C448.177 133.266 448.843 132.717 449.605 132.27C449.958 132.062 450.313 131.857 450.669 131.655C450.922 131.51 451.18 131.38 451.441 131.264C453.187 124.156 455.641 117.576 458.605 111.488C457.817 110.484 457.209 109.312 456.845 108.007C456.526 106.865 456.42 105.712 456.502 104.593C450.297 102.255 444.047 100.529 437.919 99.2639ZM473.675 112.921C472.656 113.712 471.464 114.317 470.14 114.672C469.81 114.76 469.479 114.85 469.15 114.941C467.619 115.369 466.072 115.413 464.609 115.136C462.184 120.205 460.145 125.623 458.616 131.413C459.408 131.802 460.142 132.318 460.789 132.949C468.987 129.265 477.867 126.828 487.189 125.886C487.4 125.138 487.712 124.43 488.108 123.781C483.513 119.557 478.668 115.968 473.675 112.921ZM487.808 83.6693C483.277 88.0561 478.892 92.9013 474.89 98.2509C475.954 99.4021 476.767 100.819 477.201 102.439C477.611 103.971 477.641 105.517 477.35 106.973C483.146 110.514 488.774 114.744 494.088 119.803C494.485 119.743 494.891 119.709 495.304 119.706C495.51 119.705 495.715 119.705 495.921 119.705C496.085 119.705 496.249 119.704 496.413 119.705V86.2027C496.25 86.202 496.085 86.2027 495.921 86.2027C495.747 86.2027 495.572 86.2039 495.399 86.2046C492.547 86.2161 489.916 85.2695 487.808 83.6693ZM483.543 77.7876C468.15 79.2107 453.514 83.261 440.083 89.4888C440.288 90.5305 440.357 91.5845 440.296 92.6258C446.576 93.9671 453.015 95.7808 459.435 98.2302C460.605 97.0678 462.079 96.1774 463.781 95.7024C464.176 95.5923 464.572 95.4841 464.968 95.378C466.165 95.0571 467.37 94.9704 468.535 95.0856C473.192 88.7172 478.339 83.0421 483.616 77.997C483.591 77.9279 483.567 77.8574 483.543 77.7876Z" fill="white"/>
</svg>
