<svg width="1001" height="686" viewBox="0 0 1001 686" fill="none" xmlns="http://www.w3.org/2000/svg">
<path d="M332.435 563.836V625.814H321.824V583.363L302.091 625.814H294.737L274.911 583.363V625.814H264.3V563.836H275.753L298.464 612.441L321.084 563.836H332.444H332.435Z" fill="#005AFF"/>
<path d="M359.295 622.381C354.237 619.673 350.232 615.9 347.287 611.054C344.342 606.207 342.869 600.749 342.869 594.687C342.869 588.625 344.342 583.184 347.287 578.371C350.232 573.558 354.237 569.794 359.295 567.085C364.352 564.377 369.889 563.027 375.914 563.027C381.939 563.027 387.56 564.377 392.626 567.085C397.683 569.794 401.672 573.55 404.584 578.371C407.504 583.184 408.959 588.625 408.959 594.687C408.959 600.749 407.504 606.207 404.584 611.054C401.664 615.9 397.675 619.673 392.626 622.381C387.569 625.089 381.998 626.439 375.914 626.439C369.83 626.439 364.352 625.089 359.295 622.381ZM387.367 614.802C390.716 612.932 393.341 610.257 395.235 606.778C397.128 603.298 398.07 599.273 398.07 594.696C398.07 590.118 397.12 586.101 395.235 582.655C393.341 579.209 390.724 576.56 387.367 574.715C384.018 572.871 380.197 571.948 375.914 571.948C371.631 571.948 367.819 572.871 364.462 574.715C361.112 576.56 358.487 579.201 356.594 582.655C354.7 586.101 353.758 590.118 353.758 594.696C353.758 599.273 354.7 603.298 356.594 606.778C358.487 610.257 361.104 612.932 364.462 614.802C367.811 616.671 371.631 617.61 375.914 617.61C380.197 617.61 384.009 616.671 387.367 614.802Z" fill="#005AFF"/>
<path d="M472.515 625.813H461.904L429.978 579.53V625.813H419.366V563.742H429.978L461.904 609.941V563.742H472.515V625.813Z" fill="#005AFF"/>
<path d="M487.395 578.371C490.341 573.558 494.346 569.794 499.403 567.085C504.461 564.377 509.998 563.027 516.023 563.027C522.914 563.027 529.04 564.646 534.409 567.89C539.778 571.135 543.674 575.721 546.089 581.666H533.332C531.658 578.396 529.327 575.956 526.348 574.355C523.369 572.753 519.927 571.948 516.014 571.948C511.731 571.948 507.919 572.871 504.562 574.715C501.213 576.56 498.587 579.201 496.694 582.655C494.8 586.101 493.858 590.118 493.858 594.696C493.858 599.273 494.8 603.29 496.694 606.736C498.587 610.182 501.204 612.848 504.562 614.718C507.911 616.587 511.731 617.526 516.014 617.526C519.927 617.526 523.369 616.722 526.348 615.12C529.327 613.51 531.658 611.079 533.332 607.809H546.089C543.665 613.753 539.778 618.331 534.409 621.543C529.04 624.754 522.914 626.355 516.023 626.355C509.939 626.355 504.385 625.005 499.361 622.297C494.338 619.589 490.349 615.833 487.404 611.012C484.459 606.199 482.986 600.758 482.986 594.687C482.986 588.617 484.459 583.184 487.404 578.371H487.395Z" fill="#005AFF"/>
<path d="M600.231 563.836V572.128H583.014V625.814H572.403V572.128H555.085V563.836H600.231Z" fill="#005AFF"/>
<path d="M623.829 622.381C618.772 619.673 614.767 615.9 611.821 611.054C608.876 606.207 607.404 600.749 607.404 594.687C607.404 588.625 608.876 583.184 611.821 578.371C614.767 573.558 618.772 569.794 623.829 567.085C628.887 564.377 634.424 563.027 640.449 563.027C646.474 563.027 652.095 564.377 657.161 567.085C662.218 569.794 666.207 573.55 669.118 578.371C672.038 583.184 673.494 588.625 673.494 594.687C673.494 600.749 672.038 606.207 669.118 611.054C666.198 615.9 662.21 619.673 657.161 622.381C652.103 625.089 646.533 626.439 640.449 626.439C634.365 626.439 628.887 625.089 623.829 622.381ZM651.901 614.802C655.251 612.932 657.876 610.257 659.769 606.778C661.663 603.298 662.605 599.273 662.605 594.696C662.605 590.118 661.654 586.101 659.769 582.655C657.876 579.209 655.259 576.56 651.901 574.715C648.552 572.871 644.732 571.948 640.449 571.948C636.166 571.948 632.354 572.871 628.996 574.715C625.647 576.56 623.022 579.201 621.128 582.655C619.235 586.101 618.293 590.118 618.293 594.696C618.293 599.273 619.235 603.298 621.128 606.778C623.022 610.257 625.639 612.932 628.996 614.802C632.345 616.671 636.166 617.61 640.449 617.61C644.732 617.61 648.544 616.671 651.901 614.802Z" fill="#005AFF"/>
<path d="M737.086 625.813H726.475L694.549 579.53V625.813H683.938V563.742H694.549L726.475 609.941V563.742H737.086V625.813Z" fill="#005AFF"/>
<path d="M67.6075 434.017C72.202 425.658 78.7151 419.143 87.1552 414.482C95.5953 409.82 105.306 407.48 116.287 407.48C130.222 407.48 141.936 411.094 151.428 418.33C160.928 425.557 167.046 435.384 169.789 447.793H141.246C138.402 447.793 135.81 446.326 134.127 444.02C132.444 441.714 130.433 439.845 128.077 438.411C124.542 436.256 120.453 435.183 115.808 435.183C108.63 435.183 102.908 437.673 98.6331 442.645C94.3583 447.617 92.2209 454.258 92.2209 462.567C92.2209 470.876 94.3583 477.667 98.6331 482.647C102.908 487.619 108.63 490.11 115.808 490.11C120.453 490.11 124.542 489.036 128.077 486.882C130.433 485.448 132.452 483.578 134.127 481.272C135.801 478.967 138.402 477.491 141.246 477.491H169.789C167.046 489.9 160.928 499.718 151.428 506.954C141.927 514.181 130.214 517.803 116.287 517.803C105.306 517.803 95.6037 515.473 87.1552 510.802C78.7067 506.141 72.1936 499.626 67.6075 491.267C63.013 482.907 60.7241 473.341 60.7241 462.575C60.7241 451.809 63.0214 442.393 67.6075 434.034V434.017Z" fill="white"/>
<path d="M337.919 408.555L299.446 517.016H259.711L221.087 408.555H254.334L279.663 486.857L304.832 408.555H337.919Z" fill="white"/>
<path d="M403.378 434.017C407.973 425.658 414.486 419.143 422.926 414.482C431.366 409.82 441.077 407.48 452.058 407.48C465.993 407.48 477.707 411.094 487.199 418.33C496.699 425.557 502.817 435.384 505.56 447.793H477.017C474.172 447.793 471.581 446.326 469.898 444.02C468.215 441.714 466.204 439.845 463.847 438.411C460.313 436.256 456.224 435.183 451.579 435.183C444.401 435.183 438.679 437.673 434.404 442.645C430.129 447.617 427.992 454.258 427.992 462.567C427.992 470.876 430.129 477.667 434.404 482.647C438.679 487.619 444.401 490.11 451.579 490.11C456.224 490.11 460.313 489.036 463.847 486.882C466.204 485.448 468.223 483.578 469.898 481.272C471.572 478.967 474.172 477.491 477.017 477.491H505.56C502.817 489.9 496.699 499.718 487.199 506.954C477.698 514.181 465.985 517.803 452.058 517.803C441.077 517.803 431.374 515.473 422.926 510.802C414.477 506.141 407.964 499.626 403.378 491.267C398.784 482.907 396.495 473.341 396.495 462.575C396.495 451.809 398.792 442.393 403.378 434.034V434.017Z" fill="white"/>
<path d="M665.003 432.71V450.402H700.623V473.325H665.003V492.861H705.369V517.016H633.969V408.555H705.369V432.71H665.003Z" fill="white"/>
<path d="M723.796 434.017C728.39 425.658 734.903 419.143 743.343 414.482C751.783 409.82 761.494 407.48 772.476 407.48C786.411 407.48 798.124 411.094 807.624 418.33C817.125 425.557 823.242 435.384 825.986 447.793H797.443C794.598 447.793 792.007 446.326 790.324 444.02C788.649 441.714 786.629 439.845 784.273 438.411C780.739 436.256 776.649 435.183 772.004 435.183C764.827 435.183 759.104 437.673 754.83 442.645C750.555 447.617 748.418 454.258 748.418 462.567C748.418 470.876 750.555 477.667 754.83 482.647C759.104 487.619 764.827 490.11 772.004 490.11C776.649 490.11 780.739 489.036 784.273 486.882C786.629 485.448 788.649 483.578 790.324 481.272C792.007 478.958 794.598 477.491 797.443 477.491H825.986C823.242 489.9 817.116 499.718 807.624 506.954C798.124 514.181 786.411 517.803 772.476 517.803C761.494 517.803 751.792 515.473 743.343 510.802C734.895 506.141 728.382 499.626 723.796 491.267C719.201 482.907 716.912 473.341 716.912 462.575C716.912 451.809 719.21 442.393 723.796 434.034V434.017Z" fill="white"/>
<path d="M940.613 408.555V517.016H909.587V473.476H871.754V517.016H840.729V408.555H871.754V449.32H909.587V408.555H940.613Z" fill="white"/>
<path d="M208.535 516.723V488.232H215.553V408.555H184.527V517.016H209.494L208.535 516.723Z" fill="white"/>
<path d="M208.524 486.02H177.414V517.017H208.524V486.02Z" fill="white"/>
<path d="M532.172 408.555V432.551H561.615V517.016H585.648V488.543H592.649V432.551H622.404V408.555H532.172Z" fill="white"/>
<path d="M585.651 486.02H554.541V517.017H585.651V486.02Z" fill="white"/>
<path d="M375.56 408.555H351.544V517.016H382.578V437.028H375.56V408.555Z" fill="white"/>
<path d="M375.548 408.555H344.439V439.552H375.548V408.555Z" fill="white"/>
<path d="M497.111 61.7461C565.363 62.0573 622.845 107.951 640.686 170.552H585.09L585.091 170.55H576.352C562.744 170.55 553.38 162.808 548.511 157.939C548.169 157.597 547.782 157.271 547.358 156.957C534.457 144.956 517.315 137.455 498.426 136.955C494.969 136.958 490.404 136.648 488.236 133.313C479.436 134.165 471.06 136.461 463.347 139.966C463.201 142.758 461.683 145.421 459.073 146.908C458.783 147.073 458.494 147.239 458.207 147.408C455.617 148.929 452.55 148.92 450.056 147.655C443.029 152.693 436.864 158.857 431.826 165.885C433.091 168.379 433.103 171.444 431.581 174.034C431.412 174.321 431.246 174.61 431.081 174.9C429.594 177.51 426.93 179.031 424.137 179.176C420.632 186.888 418.336 195.265 417.484 204.065C419.83 205.589 421.377 208.239 421.357 211.244C421.356 211.412 421.355 211.58 421.355 211.748C421.355 211.916 421.356 212.084 421.357 212.252C421.376 215.257 419.831 217.907 417.484 219.431C418.336 228.231 420.632 236.609 424.137 244.322C426.931 244.467 429.594 245.986 431.081 248.596C431.246 248.886 431.412 249.175 431.581 249.462C433.103 252.053 433.092 255.119 431.826 257.613C436.864 264.64 443.03 270.804 450.058 275.841C452.552 274.576 455.617 274.565 458.207 276.086C458.494 276.255 458.783 276.423 459.073 276.588C461.683 278.075 463.199 280.737 463.345 283.53C471.059 287.036 479.437 289.332 488.238 290.183C490.407 286.845 493.833 286.54 498.439 286.54C517.873 286.023 535.458 278.093 548.475 265.477C548.804 265.22 549.109 264.956 549.384 264.681C553.967 260.099 562.53 252.977 574.865 252.154H640.907C623.321 315.173 565.621 361.456 497.06 361.746C490.733 361.746 484.767 358.673 483.211 352.203C466.777 350.722 451.16 346.398 436.851 339.723C432.968 343.785 426.679 344.837 421.594 341.903C421.235 341.696 420.877 341.487 420.519 341.277C415.46 338.301 413.273 332.312 414.89 326.929C401.776 317.604 390.325 306.075 381.07 292.881C375.679 294.466 369.704 292.241 366.758 287.165C366.55 286.807 366.342 286.446 366.137 286.086C363.234 280.984 364.322 274.704 368.407 270.844C361.815 256.518 357.545 240.892 356.083 224.456C350.624 223.141 346.557 218.238 346.532 212.372V211.124C346.556 205.258 350.624 200.357 356.083 199.041C357.544 182.606 361.815 166.982 368.407 152.656C364.32 148.796 363.233 142.511 366.137 137.408C366.342 137.048 366.55 136.687 366.758 136.329C369.704 131.252 375.68 129.029 381.072 130.615C390.326 117.422 401.777 105.895 414.89 96.5703C413.27 91.1872 415.458 85.196 420.519 82.2188C420.876 82.0088 421.235 81.7997 421.594 81.5925C426.681 78.658 432.971 79.7102 436.855 83.7751C451.163 77.1011 466.778 72.7777 483.211 71.2968C484.767 64.8117 490.004 61.7457 497.111 61.7461ZM459.488 324.024C453.035 326.511 446.557 328.352 440.239 329.714C440.379 330.967 440.33 332.247 440.081 333.509C453.513 339.737 468.151 343.787 483.545 345.21C483.646 344.917 483.755 344.627 483.877 344.344C478.849 339.533 473.941 334.148 469.463 328.137C468.327 328.249 467.152 328.167 465.983 327.865C465.784 327.814 465.585 327.763 465.386 327.71C465.187 327.658 464.987 327.603 464.788 327.55C462.599 326.962 460.776 325.689 459.488 324.024ZM493.301 303.037C488.392 307.649 483.221 311.564 477.901 314.887C478.536 316.691 478.663 318.698 478.15 320.689C477.723 322.342 476.905 323.79 475.824 324.962C479.724 330.075 483.97 334.721 488.347 338.94C490.358 337.576 492.785 336.781 495.399 336.791H496.413V303.29C496.249 303.29 496.085 303.291 495.921 303.291C495.715 303.291 495.51 303.291 495.304 303.29C494.614 303.285 493.943 303.197 493.301 303.037ZM447.147 288.548C440.923 290.266 434.785 291.304 428.778 291.792C428.464 293.775 427.553 295.684 426.039 297.225C424.948 298.334 423.66 299.137 422.287 299.628C423.37 306.044 424.986 312.202 426.922 318.033C429.053 318.044 431.209 318.596 433.179 319.754C433.476 319.928 433.774 320.102 434.073 320.274C435.41 321.046 436.548 322.031 437.474 323.157C444.044 321.807 450.76 319.934 457.407 317.339C457.446 316.668 457.554 315.988 457.735 315.313C458.079 314.035 458.657 312.882 459.409 311.888C456.342 305.757 453.792 299.12 451.963 291.941C451.523 291.78 451.09 291.581 450.669 291.341C450.313 291.139 449.958 290.934 449.605 290.726C448.622 290.149 447.797 289.403 447.147 288.548ZM388.145 287.512C387.797 288.071 387.402 288.606 386.963 289.11C395.673 301.47 406.415 312.284 418.699 321.059C419.172 320.651 419.672 320.282 420.195 319.954C418.076 313.526 416.314 306.675 415.183 299.49C413.997 299.013 412.884 298.297 411.916 297.346C411.623 297.058 411.33 296.768 411.04 296.478C409.616 295.048 408.715 293.294 408.335 291.454C401.287 290.678 394.526 289.282 388.145 287.512ZM460.789 290.049C460.258 290.566 459.669 291.007 459.037 291.362C460.643 297.34 462.79 302.921 465.347 308.128C466.831 307.818 468.409 307.84 469.974 308.26C470.14 308.305 470.306 308.35 470.472 308.394C470.638 308.438 470.807 308.481 470.974 308.524C471.824 308.744 472.62 309.068 473.353 309.477C478.343 306.431 483.186 302.846 487.78 298.625C487.537 298.145 487.338 297.638 487.189 297.112C477.868 296.169 468.987 293.733 460.789 290.049ZM426.365 261.989C425.265 262.271 424.134 262.323 423.039 262.163C421.697 268.161 421.009 274.061 420.849 279.823C422.439 280.274 423.94 281.123 425.19 282.377C425.431 282.619 425.674 282.86 425.918 283.1C426.478 283.65 426.957 284.254 427.359 284.89C433.326 284.459 439.416 283.451 445.583 281.726C445.612 281.586 445.644 281.444 445.68 281.304C438.26 275.935 431.734 269.409 426.365 261.989ZM397.074 248.251C395.896 249.436 394.406 250.343 392.682 250.824C391.473 251.162 390.252 251.26 389.072 251.15C386.582 257.121 384.674 263.156 383.203 269.086C385.074 270.158 386.694 271.726 387.838 273.736C388.009 274.036 388.182 274.335 388.355 274.634C389.48 276.573 390.02 278.689 390.037 280.781C396.195 282.488 402.679 283.816 409.407 284.537C409.847 283.755 410.4 283.018 411.067 282.353C411.897 281.526 412.838 280.877 413.84 280.402C413.986 273.12 414.916 265.604 416.863 257.93C416.683 257.622 416.505 257.311 416.328 257C416.159 256.703 416.01 256.4 415.881 256.093C409.106 254.057 402.849 251.384 397.074 248.251ZM365.62 222.917C364.827 223.412 363.973 223.819 363.074 224.128C364.479 239.54 368.481 254.195 374.635 267.65C375.224 267.537 375.817 267.47 376.408 267.443C377.982 261.091 380.049 254.577 382.773 248.104C381.674 246.956 380.835 245.527 380.377 243.89C380.267 243.495 380.157 243.097 380.051 242.701C379.52 240.72 379.626 238.718 380.24 236.912C374.829 232.505 369.972 227.757 365.62 222.917ZM409.452 220.08C404.982 224.61 401.163 229.424 397.896 234.411C398.539 235.334 399.039 236.382 399.347 237.531C399.435 237.86 399.525 238.191 399.616 238.519C399.929 239.638 400.034 240.767 399.962 241.864C404.982 244.621 410.38 246.997 416.182 248.866C416.558 248.146 417.04 247.475 417.62 246.88C413.936 238.682 411.5 229.8 410.557 220.478C410.177 220.371 409.808 220.237 409.452 220.08ZM383.699 192.452C378.74 196.615 374.264 201.095 370.225 205.678C371.047 207.351 371.51 209.234 371.502 211.225C371.501 211.399 371.5 211.574 371.5 211.748C371.5 211.922 371.501 212.097 371.502 212.271C371.51 214.2 371.079 216.029 370.304 217.664C374.585 222.479 379.349 227.175 384.656 231.496C385.408 231.057 386.231 230.707 387.114 230.47C388.821 230.013 390.543 230.029 392.143 230.434C395.696 225.03 399.869 219.799 404.772 214.874C404.521 214.082 404.385 213.239 404.38 212.365C404.378 212.16 404.378 211.953 404.378 211.748C404.378 211.543 404.378 211.336 404.38 211.131C404.386 210.178 404.55 209.262 404.845 208.409C400.17 203.765 396.15 198.844 392.693 193.758C390.913 194.366 388.94 194.48 386.982 193.975C385.768 193.661 384.664 193.137 383.699 192.452ZM415.971 174.198C410.103 176.127 404.653 178.578 399.59 181.413C399.849 182.827 399.807 184.319 399.409 185.799L399.147 186.799C398.915 187.697 398.564 188.534 398.122 189.3C401.395 194.185 405.208 198.897 409.652 203.329C409.946 203.209 410.248 203.105 410.557 203.018C411.499 193.697 413.936 184.816 417.62 176.618C416.925 175.905 416.371 175.083 415.971 174.198ZM374.635 155.847C368.481 169.303 364.478 183.958 363.074 199.37C363.92 199.66 364.726 200.036 365.479 200.492C369.736 195.712 374.479 191.009 379.762 186.629C379.393 185.093 379.382 183.446 379.804 181.809C379.855 181.611 379.908 181.41 379.961 181.211C380.013 181.013 380.066 180.812 380.119 180.614C380.621 178.747 381.622 177.146 382.937 175.916C380.061 169.276 377.89 162.58 376.242 156.047C375.706 156.016 375.169 155.95 374.635 155.847ZM408.203 138.531C401.901 139.295 395.821 140.583 390.032 142.203C390.105 144.46 389.571 146.764 388.355 148.86C388.182 149.159 388.009 149.46 387.838 149.76C386.665 151.821 384.994 153.422 383.062 154.495C384.633 160.696 386.687 167.003 389.389 173.225C390.365 173.188 391.364 173.293 392.358 173.56C393.731 173.93 394.959 174.572 396.002 175.407C402.149 171.949 408.851 169.011 416.156 166.813C416.211 166.707 416.268 166.601 416.328 166.496C416.468 166.249 416.611 166.002 416.754 165.757C414.801 158.318 413.808 151.024 413.564 143.944C412.435 143.468 411.373 142.775 410.446 141.864C409.45 140.884 408.701 139.747 408.203 138.531ZM427.374 137.982C426.888 139.082 426.195 140.114 425.292 141.015C425.05 141.256 424.809 141.501 424.569 141.745C423.414 142.92 422.038 143.746 420.574 144.227C420.797 149.824 421.523 155.546 422.868 161.359C424.016 161.167 425.207 161.212 426.365 161.508C431.734 154.089 438.26 147.563 445.68 142.194C445.582 141.815 445.512 141.431 445.468 141.047C439.345 139.367 433.298 138.39 427.374 137.982ZM418.699 102.439C406.415 111.214 395.673 122.028 386.963 134.388C387.288 134.76 387.591 135.148 387.866 135.552C394.224 133.759 400.962 132.326 407.994 131.511C408.462 130.138 409.24 128.845 410.325 127.741C410.613 127.448 410.903 127.157 411.193 126.867C412.219 125.845 413.412 125.095 414.683 124.611C415.784 117.108 417.586 109.961 419.774 103.269C419.403 103.014 419.044 102.736 418.699 102.439ZM437.919 99.7639C436.922 101.131 435.633 102.32 434.073 103.22C433.774 103.392 433.476 103.566 433.179 103.74C431.053 104.99 428.709 105.537 426.414 105.455C424.433 111.514 422.801 117.919 421.757 124.596C423.055 125.083 424.274 125.846 425.316 126.892C426.503 128.083 427.324 129.5 427.786 131.002C434.257 131.444 440.885 132.519 447.613 134.388C448.177 133.766 448.843 133.217 449.605 132.77C449.958 132.562 450.313 132.357 450.669 132.155C450.922 132.01 451.18 131.88 451.441 131.764C453.187 124.656 455.641 118.076 458.605 111.988C457.817 110.984 457.209 109.812 456.845 108.507C456.526 107.365 456.42 106.212 456.502 105.093C450.297 102.755 444.047 101.029 437.919 99.7639ZM473.675 113.421C472.656 114.212 471.464 114.817 470.14 115.172C469.81 115.26 469.479 115.35 469.15 115.441C467.619 115.869 466.072 115.913 464.609 115.636C462.184 120.705 460.145 126.123 458.616 131.913C459.408 132.302 460.142 132.818 460.789 133.449C468.987 129.765 477.867 127.328 487.189 126.386C487.4 125.638 487.712 124.93 488.108 124.281C483.513 120.057 478.668 116.468 473.675 113.421ZM487.808 84.1693C483.277 88.5561 478.892 93.4013 474.89 98.7509C475.954 99.9021 476.767 101.319 477.201 102.939C477.611 104.471 477.641 106.017 477.35 107.473C483.146 111.014 488.774 115.244 494.088 120.303C494.485 120.243 494.891 120.209 495.304 120.206C495.51 120.205 495.715 120.205 495.921 120.205C496.085 120.205 496.249 120.204 496.413 120.205V86.7027C496.25 86.702 496.085 86.7027 495.921 86.7027C495.747 86.7027 495.572 86.7039 495.399 86.7046C492.547 86.7161 489.916 85.7695 487.808 84.1693ZM483.543 78.2876C468.15 79.7107 453.514 83.761 440.083 89.9888C440.288 91.0305 440.357 92.0845 440.296 93.1258C446.576 94.4671 453.015 96.2808 459.435 98.7302C460.605 97.5678 462.079 96.6774 463.781 96.2024C464.176 96.0923 464.572 95.9841 464.968 95.878C466.165 95.5571 467.37 95.4704 468.535 95.5856C473.192 89.2172 478.339 83.5421 483.616 78.497C483.591 78.4279 483.567 78.3574 483.543 78.2876Z" fill="white"/>
</svg>
