<svg width="1001" height="686" viewBox="0 0 1001 686" fill="none" xmlns="http://www.w3.org/2000/svg">
<path d="M332.436 564.086V626.064H321.825V583.613L302.092 626.064H294.737L274.912 583.613V626.064H264.301V564.086H275.753L298.465 612.691L321.084 564.086H332.444H332.436Z" fill="#000035"/>
<path d="M359.295 622.631C354.238 619.923 350.232 616.15 347.287 611.304C344.342 606.457 342.869 600.999 342.869 594.937C342.869 588.875 344.342 583.434 347.287 578.621C350.232 573.808 354.238 570.044 359.295 567.335C364.353 564.627 369.889 563.277 375.915 563.277C381.94 563.277 387.561 564.627 392.626 567.335C397.684 570.044 401.672 573.8 404.584 578.621C407.504 583.434 408.96 588.875 408.96 594.937C408.96 600.999 407.504 606.457 404.584 611.304C401.664 616.15 397.675 619.923 392.626 622.631C387.569 625.339 381.998 626.689 375.915 626.689C369.831 626.689 364.353 625.339 359.295 622.631ZM387.367 615.052C390.716 613.182 393.342 610.507 395.235 607.028C397.128 603.548 398.071 599.523 398.071 594.946C398.071 590.368 397.12 586.351 395.235 582.905C393.342 579.459 390.725 576.81 387.367 574.965C384.018 573.121 380.198 572.198 375.915 572.198C371.631 572.198 367.819 573.121 364.462 574.965C361.113 576.81 358.487 579.451 356.594 582.905C354.701 586.351 353.758 590.368 353.758 594.946C353.758 599.523 354.701 603.548 356.594 607.028C358.487 610.507 361.104 613.182 364.462 615.052C367.811 616.921 371.631 617.86 375.915 617.86C380.198 617.86 384.01 616.921 387.367 615.052Z" fill="#000035"/>
<path d="M472.515 626.063H461.904L429.978 579.78V626.063H419.367V563.992H429.978L461.904 610.191V563.992H472.515V626.063Z" fill="#000035"/>
<path d="M487.396 578.621C490.341 573.808 494.346 570.044 499.404 567.335C504.461 564.627 509.998 563.277 516.023 563.277C522.915 563.277 529.041 564.896 534.41 568.14C539.778 571.385 543.674 575.971 546.089 581.916H533.332C531.658 578.646 529.327 576.206 526.348 574.605C523.369 573.003 519.928 572.198 516.015 572.198C511.731 572.198 507.92 573.121 504.562 574.965C501.213 576.81 498.587 579.451 496.694 582.905C494.801 586.351 493.858 590.368 493.858 594.946C493.858 599.523 494.801 603.54 496.694 606.986C498.587 610.432 501.205 613.098 504.562 614.968C507.911 616.837 511.731 617.776 516.015 617.776C519.928 617.776 523.369 616.972 526.348 615.37C529.327 613.76 531.658 611.329 533.332 608.059H546.089C543.666 614.003 539.778 618.581 534.41 621.793C529.041 625.004 522.915 626.605 516.023 626.605C509.939 626.605 504.385 625.255 499.362 622.547C494.338 619.839 490.349 616.083 487.404 611.262C484.459 606.449 482.986 601.008 482.986 594.937C482.986 588.867 484.459 583.434 487.404 578.621H487.396Z" fill="#000035"/>
<path d="M600.231 564.086V572.378H583.014V626.064H572.403V572.378H555.085V564.086H600.231Z" fill="#000035"/>
<path d="M623.83 622.631C618.772 619.923 614.767 616.15 611.822 611.304C608.877 606.457 607.404 600.999 607.404 594.937C607.404 588.875 608.877 583.434 611.822 578.621C614.767 573.808 618.772 570.044 623.83 567.335C628.887 564.627 634.424 563.277 640.449 563.277C646.474 563.277 652.095 564.627 657.161 567.335C662.218 570.044 666.207 573.8 669.119 578.621C672.039 583.434 673.494 588.875 673.494 594.937C673.494 600.999 672.039 606.457 669.119 611.304C666.199 616.15 662.21 619.923 657.161 622.631C652.104 625.339 646.533 626.689 640.449 626.689C634.365 626.689 628.887 625.339 623.83 622.631ZM651.902 615.052C655.251 613.182 657.876 610.507 659.77 607.028C661.663 603.548 662.605 599.523 662.605 594.946C662.605 590.368 661.655 586.351 659.77 582.905C657.876 579.459 655.259 576.81 651.902 574.965C648.553 573.121 644.732 572.198 640.449 572.198C636.166 572.198 632.354 573.121 628.997 574.965C625.647 576.81 623.022 579.451 621.129 582.905C619.235 586.351 618.293 590.368 618.293 594.946C618.293 599.523 619.235 603.548 621.129 607.028C623.022 610.507 625.639 613.182 628.997 615.052C632.346 616.921 636.166 617.86 640.449 617.86C644.732 617.86 648.544 616.921 651.902 615.052Z" fill="#000035"/>
<path d="M737.087 626.063H726.476L694.55 579.78V626.063H683.938V563.992H694.55L726.476 610.191V563.992H737.087V626.063Z" fill="#000035"/>
<path d="M67.6077 434.267C72.2022 425.908 78.7153 419.393 87.1554 414.732C95.5955 410.07 105.306 407.73 116.288 407.73C130.223 407.73 141.936 411.344 151.428 418.58C160.928 425.807 167.046 435.634 169.789 448.043H141.246C138.402 448.043 135.81 446.576 134.127 444.27C132.444 441.964 130.433 440.095 128.077 438.661C124.543 436.506 120.453 435.433 115.808 435.433C108.63 435.433 102.908 437.923 98.6333 442.895C94.3585 447.867 92.2212 454.508 92.2212 462.817C92.2212 471.126 94.3585 477.917 98.6333 482.897C102.908 487.869 108.63 490.36 115.808 490.36C120.453 490.36 124.543 489.286 128.077 487.132C130.433 485.698 132.453 483.828 134.127 481.522C135.802 479.217 138.402 477.741 141.246 477.741H169.789C167.046 490.15 160.928 499.968 151.428 507.204C141.928 514.431 130.214 518.053 116.288 518.053C105.306 518.053 95.6039 515.723 87.1554 511.052C78.7069 506.391 72.1938 499.876 67.6077 491.517C63.0132 483.157 60.7244 473.591 60.7244 462.825C60.7244 452.059 63.0216 442.643 67.6077 434.284V434.267Z" fill="#000035"/>
<path d="M337.919 408.805L299.447 517.266H259.712L221.087 408.805H254.334L279.663 487.107L304.832 408.805H337.919Z" fill="#000035"/>
<path d="M403.378 434.267C407.973 425.908 414.486 419.393 422.926 414.732C431.366 410.07 441.077 407.73 452.058 407.73C465.993 407.73 477.707 411.344 487.199 418.58C496.699 425.807 502.817 435.634 505.56 448.043H477.017C474.173 448.043 471.581 446.576 469.898 444.27C468.215 441.964 466.204 440.095 463.848 438.661C460.313 436.506 456.224 435.433 451.579 435.433C444.401 435.433 438.679 437.923 434.404 442.895C430.129 447.867 427.992 454.508 427.992 462.817C427.992 471.126 430.129 477.917 434.404 482.897C438.679 487.869 444.401 490.36 451.579 490.36C456.224 490.36 460.313 489.286 463.848 487.132C466.204 485.698 468.223 483.828 469.898 481.522C471.572 479.217 474.173 477.741 477.017 477.741H505.56C502.817 490.15 496.699 499.968 487.199 507.204C477.698 514.431 465.985 518.053 452.058 518.053C441.077 518.053 431.375 515.723 422.926 511.052C414.478 506.391 407.965 499.876 403.378 491.517C398.784 483.157 396.495 473.591 396.495 462.825C396.495 452.059 398.792 442.643 403.378 434.284V434.267Z" fill="#000035"/>
<path d="M665.003 432.96V450.652H700.623V473.575H665.003V493.111H705.369V517.266H633.969V408.805H705.369V432.96H665.003Z" fill="#000035"/>
<path d="M723.796 434.267C728.39 425.908 734.904 419.393 743.344 414.732C751.784 410.07 761.495 407.73 772.476 407.73C786.411 407.73 798.124 411.344 807.625 418.58C817.125 425.807 823.243 435.634 825.986 448.043H797.443C794.599 448.043 792.007 446.576 790.324 444.27C788.649 441.964 786.63 440.095 784.274 438.661C780.739 436.506 776.65 435.433 772.005 435.433C764.827 435.433 759.105 437.923 754.83 442.895C750.555 447.867 748.418 454.508 748.418 462.817C748.418 471.126 750.555 477.917 754.83 482.897C759.105 487.869 764.827 490.36 772.005 490.36C776.65 490.36 780.739 489.286 784.274 487.132C786.63 485.698 788.649 483.828 790.324 481.522C792.007 479.208 794.599 477.741 797.443 477.741H825.986C823.243 490.15 817.117 499.968 807.625 507.204C798.124 514.431 786.411 518.053 772.476 518.053C761.495 518.053 751.792 515.723 743.344 511.052C734.895 506.391 728.382 499.876 723.796 491.517C719.201 483.157 716.913 473.591 716.913 462.825C716.913 452.059 719.21 442.643 723.796 434.284V434.267Z" fill="#000035"/>
<path d="M940.613 408.805V517.266H909.588V473.726H871.754V517.266H840.729V408.805H871.754V449.57H909.588V408.805H940.613Z" fill="#000035"/>
<path d="M208.535 516.973V488.482H215.553V408.805H184.527V517.266H209.494L208.535 516.973Z" fill="#000035"/>
<path d="M208.524 486.27H177.414V517.267H208.524V486.27Z" fill="#000035"/>
<path d="M532.172 408.805V432.801H561.615V517.266H585.648V488.793H592.649V432.801H622.404V408.805H532.172Z" fill="#000035"/>
<path d="M585.651 486.27H554.542V517.267H585.651V486.27Z" fill="#000035"/>
<path d="M375.561 408.805H351.545V517.266H382.579V437.278H375.561V408.805Z" fill="#000035"/>
<path d="M375.549 408.805H344.439V439.802H375.549V408.805Z" fill="#000035"/>
<path d="M497.112 61.9961C565.363 62.3073 622.846 108.201 640.687 170.802H585.09L585.092 170.8H576.352C562.744 170.8 553.38 163.058 548.511 158.189C548.169 157.847 547.782 157.521 547.359 157.207C534.458 145.206 517.315 137.705 498.426 137.205C494.969 137.208 490.404 136.898 488.236 133.563C479.436 134.415 471.06 136.711 463.348 140.216C463.201 143.008 461.683 145.671 459.073 147.158C458.784 147.323 458.494 147.489 458.207 147.658C455.617 149.179 452.55 149.17 450.056 147.905C443.029 152.943 436.864 159.107 431.826 166.135C433.091 168.629 433.103 171.694 431.581 174.284C431.413 174.571 431.246 174.86 431.081 175.15C429.594 177.76 426.931 179.281 424.138 179.426C420.633 187.138 418.336 195.515 417.484 204.315C419.831 205.839 421.377 208.489 421.357 211.494C421.356 211.662 421.355 211.83 421.355 211.998C421.355 212.166 421.356 212.334 421.357 212.502C421.377 215.507 419.831 218.157 417.484 219.681C418.336 228.481 420.632 236.859 424.138 244.572C426.931 244.717 429.594 246.236 431.081 248.846C431.246 249.136 431.413 249.425 431.581 249.712C433.103 252.303 433.093 255.369 431.826 257.863C436.864 264.89 443.031 271.054 450.058 276.091C452.552 274.826 455.617 274.815 458.207 276.336C458.495 276.505 458.783 276.673 459.073 276.838C461.683 278.325 463.2 280.987 463.346 283.78C471.059 287.286 479.437 289.582 488.238 290.433C490.407 287.095 493.833 286.79 498.44 286.79C517.874 286.273 535.458 278.343 548.475 265.727C548.804 265.47 549.109 265.206 549.385 264.931C553.967 260.349 562.531 253.227 574.866 252.404H640.907C623.322 315.423 565.621 361.706 497.061 361.996C490.734 361.996 484.767 358.923 483.211 352.453C466.778 350.972 451.161 346.648 436.852 339.973C432.968 344.035 426.679 345.087 421.595 342.153C421.236 341.946 420.877 341.737 420.519 341.527C415.46 338.551 413.273 332.562 414.891 327.179C401.776 317.854 390.325 306.325 381.07 293.131C375.679 294.716 369.704 292.491 366.758 287.415C366.55 287.057 366.342 286.696 366.137 286.336C363.234 281.234 364.322 274.954 368.407 271.094C361.815 256.768 357.545 241.142 356.083 224.706C350.624 223.391 346.557 218.488 346.532 212.622V211.374C346.556 205.508 350.624 200.607 356.083 199.291C357.545 182.856 361.815 167.232 368.407 152.906C364.32 149.046 363.234 142.761 366.137 137.658C366.342 137.298 366.55 136.937 366.758 136.579C369.704 131.502 375.68 129.279 381.072 130.865C390.326 117.672 401.777 106.145 414.891 96.8203C413.27 91.4372 415.459 85.446 420.519 82.4688C420.877 82.2588 421.236 82.0497 421.595 81.8425C426.681 78.908 432.972 79.9602 436.855 84.0251C451.164 77.3511 466.779 73.0277 483.211 71.5468C484.767 65.0617 490.005 61.9957 497.112 61.9961ZM459.488 324.274C453.035 326.761 446.557 328.602 440.24 329.964C440.379 331.217 440.331 332.497 440.081 333.759C453.513 339.987 468.151 344.037 483.545 345.46C483.646 345.167 483.755 344.877 483.877 344.594C478.849 339.783 473.941 334.398 469.463 328.387C468.327 328.499 467.152 328.417 465.983 328.115C465.784 328.064 465.585 328.013 465.387 327.96C465.188 327.908 464.987 327.853 464.789 327.8C462.599 327.212 460.777 325.939 459.488 324.274ZM493.301 303.287C488.393 307.899 483.221 311.814 477.901 315.137C478.536 316.941 478.663 318.948 478.15 320.939C477.723 322.592 476.906 324.04 475.824 325.212C479.724 330.325 483.97 334.971 488.348 339.19C490.358 337.826 492.786 337.031 495.399 337.041H496.414V303.54C496.25 303.54 496.085 303.541 495.921 303.541C495.716 303.541 495.51 303.541 495.304 303.54C494.614 303.535 493.943 303.447 493.301 303.287ZM447.147 288.798C440.924 290.516 434.785 291.554 428.778 292.042C428.464 294.025 427.553 295.934 426.039 297.475C424.948 298.584 423.66 299.387 422.287 299.878C423.371 306.294 424.986 312.452 426.922 318.283C429.053 318.294 431.21 318.846 433.179 320.004C433.476 320.178 433.774 320.352 434.073 320.524C435.41 321.296 436.548 322.281 437.474 323.407C444.044 322.057 450.76 320.184 457.407 317.589C457.446 316.918 457.554 316.238 457.736 315.563C458.079 314.285 458.657 313.132 459.409 312.138C456.342 306.007 453.792 299.37 451.963 292.191C451.523 292.03 451.09 291.831 450.669 291.591C450.314 291.389 449.958 291.184 449.605 290.976C448.622 290.399 447.797 289.653 447.147 288.798ZM388.146 287.762C387.797 288.321 387.402 288.856 386.963 289.36C395.674 301.72 406.415 312.534 418.699 321.309C419.172 320.901 419.673 320.532 420.195 320.204C418.076 313.776 416.314 306.925 415.183 299.74C413.997 299.263 412.884 298.547 411.916 297.596C411.623 297.308 411.33 297.018 411.041 296.728C409.616 295.298 408.715 293.544 408.335 291.704C401.287 290.928 394.527 289.532 388.146 287.762ZM460.79 290.299C460.259 290.816 459.669 291.257 459.037 291.612C460.643 297.59 462.79 303.171 465.347 308.378C466.832 308.068 468.41 308.09 469.974 308.51C470.14 308.555 470.306 308.6 470.472 308.644C470.639 308.688 470.808 308.731 470.974 308.774C471.824 308.994 472.62 309.318 473.353 309.727C478.343 306.681 483.186 303.096 487.78 298.875C487.537 298.395 487.338 297.888 487.189 297.362C477.868 296.419 468.987 293.983 460.79 290.299ZM426.365 262.239C425.265 262.521 424.135 262.573 423.04 262.413C421.697 268.411 421.009 274.311 420.85 280.073C422.439 280.524 423.941 281.373 425.19 282.627C425.431 282.869 425.675 283.11 425.918 283.35C426.478 283.9 426.957 284.504 427.359 285.14C433.326 284.709 439.417 283.701 445.584 281.976C445.612 281.836 445.644 281.694 445.68 281.554C438.26 276.185 431.734 269.659 426.365 262.239ZM397.074 248.501C395.896 249.686 394.406 250.593 392.682 251.074C391.473 251.412 390.252 251.51 389.072 251.4C386.582 257.371 384.674 263.406 383.203 269.336C385.074 270.408 386.694 271.976 387.838 273.986C388.009 274.286 388.182 274.585 388.355 274.884C389.48 276.823 390.02 278.939 390.038 281.031C396.195 282.738 402.679 284.066 409.407 284.787C409.847 284.005 410.4 283.268 411.067 282.603C411.897 281.776 412.838 281.127 413.84 280.652C413.986 273.37 414.916 265.854 416.864 258.18C416.683 257.872 416.505 257.561 416.328 257.25C416.159 256.953 416.011 256.65 415.881 256.343C409.106 254.307 402.85 251.634 397.074 248.501ZM365.621 223.167C364.827 223.662 363.974 224.069 363.074 224.378C364.479 239.79 368.481 254.445 374.636 267.9C375.225 267.787 375.817 267.72 376.409 267.693C377.983 261.341 380.049 254.827 382.773 248.354C381.675 247.206 380.835 245.777 380.378 244.14C380.267 243.745 380.157 243.347 380.051 242.951C379.521 240.97 379.626 238.968 380.24 237.162C374.829 232.755 369.972 228.007 365.621 223.167ZM409.452 220.33C404.983 224.86 401.163 229.674 397.896 234.661C398.539 235.584 399.039 236.632 399.347 237.781C399.435 238.11 399.525 238.441 399.617 238.769C399.929 239.888 400.034 241.017 399.962 242.114C404.982 244.871 410.38 247.247 416.183 249.116C416.559 248.396 417.04 247.725 417.62 247.13C413.936 238.932 411.5 230.05 410.558 220.728C410.178 220.621 409.809 220.487 409.452 220.33ZM383.7 192.702C378.74 196.865 374.264 201.345 370.225 205.928C371.048 207.601 371.51 209.484 371.502 211.475C371.502 211.649 371.5 211.824 371.5 211.998C371.5 212.172 371.502 212.347 371.502 212.521C371.51 214.45 371.079 216.279 370.304 217.914C374.585 222.729 379.35 227.425 384.656 231.746C385.409 231.307 386.231 230.957 387.114 230.72C388.821 230.263 390.543 230.279 392.143 230.684C395.696 225.28 399.869 220.049 404.772 215.124C404.522 214.332 404.386 213.489 404.38 212.615C404.378 212.41 404.378 212.203 404.378 211.998C404.378 211.793 404.378 211.586 404.38 211.381C404.386 210.428 404.55 209.512 404.846 208.659C400.17 204.015 396.15 199.094 392.694 194.008C390.913 194.616 388.94 194.73 386.982 194.225C385.768 193.911 384.665 193.387 383.7 192.702ZM415.971 174.448C410.103 176.377 404.653 178.828 399.59 181.663C399.849 183.077 399.807 184.569 399.409 186.049L399.147 187.049C398.915 187.947 398.565 188.784 398.123 189.55C401.395 194.435 405.208 199.147 409.652 203.579C409.946 203.459 410.248 203.355 410.558 203.268C411.5 193.947 413.937 185.066 417.62 176.868C416.925 176.155 416.371 175.333 415.971 174.448ZM374.636 156.097C368.482 169.553 364.479 184.208 363.074 199.62C363.92 199.91 364.726 200.286 365.479 200.742C369.736 195.962 374.48 191.259 379.763 186.879C379.393 185.343 379.382 183.696 379.804 182.059C379.855 181.861 379.908 181.66 379.961 181.461C380.013 181.263 380.066 181.062 380.119 180.864C380.621 178.997 381.622 177.396 382.937 176.166C380.061 169.526 377.891 162.83 376.243 156.297C375.706 156.266 375.169 156.2 374.636 156.097ZM408.203 138.781C401.901 139.545 395.822 140.833 390.032 142.453C390.105 144.71 389.571 147.014 388.355 149.11C388.182 149.409 388.009 149.71 387.838 150.01C386.665 152.071 384.994 153.672 383.062 154.745C384.633 160.946 386.687 167.253 389.389 173.475C390.366 173.438 391.364 173.543 392.358 173.81C393.731 174.18 394.959 174.822 396.002 175.657C402.149 172.199 408.851 169.261 416.156 167.063C416.211 166.957 416.268 166.851 416.328 166.746C416.469 166.499 416.611 166.252 416.754 166.007C414.801 158.568 413.808 151.274 413.564 144.194C412.435 143.718 411.374 143.025 410.446 142.114C409.45 141.134 408.701 139.997 408.203 138.781ZM427.375 138.232C426.888 139.332 426.196 140.364 425.292 141.265C425.05 141.506 424.809 141.751 424.57 141.995C423.414 143.17 422.039 143.996 420.574 144.477C420.798 150.074 421.523 155.796 422.868 161.609C424.017 161.417 425.207 161.462 426.365 161.758C431.734 154.339 438.26 147.813 445.68 142.444C445.583 142.065 445.512 141.681 445.469 141.297C439.345 139.617 433.298 138.64 427.375 138.232ZM418.699 102.689C406.415 111.464 395.673 122.278 386.963 134.638C387.288 135.01 387.591 135.398 387.867 135.802C394.224 134.009 400.963 132.576 407.994 131.761C408.462 130.388 409.24 129.095 410.326 127.991C410.613 127.698 410.903 127.407 411.193 127.117C412.219 126.095 413.412 125.345 414.683 124.861C415.784 117.358 417.586 110.211 419.774 103.519C419.403 103.264 419.044 102.986 418.699 102.689ZM437.919 100.014C436.923 101.381 435.633 102.57 434.073 103.47C433.774 103.642 433.476 103.816 433.179 103.99C431.053 105.24 428.709 105.787 426.414 105.705C424.433 111.764 422.801 118.169 421.757 124.846C423.055 125.333 424.274 126.096 425.317 127.142C426.503 128.333 427.324 129.75 427.786 131.252C434.257 131.694 440.885 132.769 447.613 134.638C448.177 134.016 448.843 133.467 449.605 133.02C449.958 132.812 450.313 132.607 450.669 132.405C450.922 132.26 451.18 132.13 451.441 132.014C453.187 124.906 455.641 118.326 458.605 112.238C457.818 111.234 457.21 110.062 456.845 108.757C456.526 107.615 456.42 106.462 456.502 105.343C450.297 103.005 444.047 101.279 437.919 100.014ZM473.675 113.671C472.656 114.462 471.465 115.067 470.14 115.422C469.81 115.51 469.479 115.6 469.15 115.691C467.619 116.119 466.072 116.163 464.61 115.886C462.184 120.955 460.145 126.373 458.617 132.163C459.409 132.552 460.142 133.068 460.79 133.699C468.988 130.015 477.868 127.578 487.189 126.636C487.401 125.888 487.712 125.18 488.108 124.531C483.513 120.307 478.668 116.718 473.675 113.671ZM487.808 84.4193C483.277 88.8061 478.892 93.6513 474.89 99.0009C475.955 100.152 476.767 101.569 477.201 103.189C477.612 104.721 477.641 106.267 477.35 107.723C483.146 111.264 488.774 115.494 494.088 120.553C494.485 120.493 494.891 120.459 495.304 120.456C495.51 120.455 495.716 120.455 495.921 120.455C496.085 120.455 496.25 120.454 496.414 120.455V86.9527C496.25 86.952 496.085 86.9527 495.921 86.9527C495.747 86.9527 495.573 86.9539 495.399 86.9546C492.548 86.9661 489.916 86.0195 487.808 84.4193ZM483.543 78.5376C468.15 79.9607 453.515 84.011 440.083 90.2388C440.288 91.2805 440.357 92.3345 440.296 93.3758C446.576 94.7171 453.015 96.5308 459.435 98.9802C460.606 97.8178 462.08 96.9274 463.781 96.4524C464.176 96.3423 464.572 96.2341 464.968 96.128C466.165 95.8071 467.37 95.7204 468.535 95.8356C473.192 89.4672 478.34 83.7921 483.617 78.747C483.591 78.6779 483.567 78.6074 483.543 78.5376Z" fill="#000035"/>
</svg>
