<svg width="1001" height="686" viewBox="0 0 1001 686" fill="none" xmlns="http://www.w3.org/2000/svg">
<path d="M332.436 563.586V625.564H321.825V583.113L302.092 625.564H294.737L274.912 583.113V625.564H264.301V563.586H275.753L298.465 612.191L321.084 563.586H332.444H332.436Z" fill="#005AFF"/>
<path d="M359.295 622.131C354.238 619.423 350.232 615.65 347.287 610.804C344.342 605.957 342.869 600.499 342.869 594.437C342.869 588.375 344.342 582.934 347.287 578.121C350.232 573.308 354.238 569.544 359.295 566.835C364.353 564.127 369.889 562.777 375.915 562.777C381.94 562.777 387.561 564.127 392.626 566.835C397.684 569.544 401.672 573.3 404.584 578.121C407.504 582.934 408.96 588.375 408.96 594.437C408.96 600.499 407.504 605.957 404.584 610.804C401.664 615.65 397.675 619.423 392.626 622.131C387.569 624.839 381.998 626.189 375.915 626.189C369.831 626.189 364.353 624.839 359.295 622.131ZM387.367 614.552C390.716 612.682 393.342 610.007 395.235 606.528C397.128 603.048 398.071 599.023 398.071 594.446C398.071 589.868 397.12 585.851 395.235 582.405C393.342 578.959 390.725 576.31 387.367 574.465C384.018 572.621 380.198 571.698 375.915 571.698C371.631 571.698 367.819 572.621 364.462 574.465C361.113 576.31 358.487 578.951 356.594 582.405C354.701 585.851 353.758 589.868 353.758 594.446C353.758 599.023 354.701 603.048 356.594 606.528C358.487 610.007 361.104 612.682 364.462 614.552C367.811 616.421 371.631 617.36 375.915 617.36C380.198 617.36 384.01 616.421 387.367 614.552Z" fill="#005AFF"/>
<path d="M472.515 625.563H461.904L429.978 579.28V625.563H419.367V563.492H429.978L461.904 609.691V563.492H472.515V625.563Z" fill="#005AFF"/>
<path d="M487.396 578.121C490.341 573.308 494.346 569.544 499.404 566.835C504.461 564.127 509.998 562.777 516.023 562.777C522.915 562.777 529.041 564.396 534.41 567.64C539.778 570.885 543.674 575.471 546.089 581.416H533.332C531.658 578.146 529.327 575.706 526.348 574.105C523.369 572.503 519.928 571.698 516.015 571.698C511.731 571.698 507.92 572.621 504.562 574.465C501.213 576.31 498.587 578.951 496.694 582.405C494.801 585.851 493.858 589.868 493.858 594.446C493.858 599.023 494.801 603.04 496.694 606.486C498.587 609.932 501.205 612.598 504.562 614.468C507.911 616.337 511.731 617.276 516.015 617.276C519.928 617.276 523.369 616.472 526.348 614.87C529.327 613.26 531.658 610.829 533.332 607.559H546.089C543.666 613.503 539.778 618.081 534.41 621.293C529.041 624.504 522.915 626.105 516.023 626.105C509.939 626.105 504.385 624.755 499.362 622.047C494.338 619.339 490.349 615.583 487.404 610.762C484.459 605.949 482.986 600.508 482.986 594.437C482.986 588.367 484.459 582.934 487.404 578.121H487.396Z" fill="#005AFF"/>
<path d="M600.231 563.586V571.878H583.014V625.564H572.403V571.878H555.085V563.586H600.231Z" fill="#005AFF"/>
<path d="M623.83 622.131C618.772 619.423 614.767 615.65 611.822 610.804C608.877 605.957 607.404 600.499 607.404 594.437C607.404 588.375 608.877 582.934 611.822 578.121C614.767 573.308 618.772 569.544 623.83 566.835C628.887 564.127 634.424 562.777 640.449 562.777C646.474 562.777 652.095 564.127 657.161 566.835C662.218 569.544 666.207 573.3 669.119 578.121C672.039 582.934 673.494 588.375 673.494 594.437C673.494 600.499 672.039 605.957 669.119 610.804C666.199 615.65 662.21 619.423 657.161 622.131C652.104 624.839 646.533 626.189 640.449 626.189C634.365 626.189 628.887 624.839 623.83 622.131ZM651.902 614.552C655.251 612.682 657.876 610.007 659.77 606.528C661.663 603.048 662.605 599.023 662.605 594.446C662.605 589.868 661.655 585.851 659.77 582.405C657.876 578.959 655.259 576.31 651.902 574.465C648.553 572.621 644.732 571.698 640.449 571.698C636.166 571.698 632.354 572.621 628.997 574.465C625.647 576.31 623.022 578.951 621.129 582.405C619.235 585.851 618.293 589.868 618.293 594.446C618.293 599.023 619.235 603.048 621.129 606.528C623.022 610.007 625.639 612.682 628.997 614.552C632.346 616.421 636.166 617.36 640.449 617.36C644.732 617.36 648.544 616.421 651.902 614.552Z" fill="#005AFF"/>
<path d="M737.087 625.563H726.476L694.55 579.28V625.563H683.938V563.492H694.55L726.476 609.691V563.492H737.087V625.563Z" fill="#005AFF"/>
<path d="M67.6077 433.767C72.2022 425.408 78.7153 418.893 87.1554 414.232C95.5955 409.57 105.306 407.23 116.288 407.23C130.223 407.23 141.936 410.844 151.428 418.08C160.928 425.307 167.046 435.134 169.789 447.543H141.246C138.402 447.543 135.81 446.076 134.127 443.77C132.444 441.464 130.433 439.595 128.077 438.161C124.543 436.006 120.453 434.933 115.808 434.933C108.63 434.933 102.908 437.423 98.6333 442.395C94.3585 447.367 92.2212 454.008 92.2212 462.317C92.2212 470.626 94.3585 477.417 98.6333 482.397C102.908 487.369 108.63 489.86 115.808 489.86C120.453 489.86 124.543 488.786 128.077 486.632C130.433 485.198 132.453 483.328 134.127 481.022C135.802 478.717 138.402 477.241 141.246 477.241H169.789C167.046 489.65 160.928 499.468 151.428 506.704C141.928 513.931 130.214 517.553 116.288 517.553C105.306 517.553 95.6039 515.223 87.1554 510.552C78.7069 505.891 72.1938 499.376 67.6077 491.017C63.0132 482.657 60.7244 473.091 60.7244 462.325C60.7244 451.559 63.0216 442.143 67.6077 433.784V433.767Z" fill="#005AFF"/>
<path d="M337.919 408.305L299.447 516.766H259.712L221.087 408.305H254.334L279.663 486.607L304.832 408.305H337.919Z" fill="#005AFF"/>
<path d="M403.378 433.767C407.973 425.408 414.486 418.893 422.926 414.232C431.366 409.57 441.077 407.23 452.058 407.23C465.993 407.23 477.707 410.844 487.199 418.08C496.699 425.307 502.817 435.134 505.56 447.543H477.017C474.173 447.543 471.581 446.076 469.898 443.77C468.215 441.464 466.204 439.595 463.848 438.161C460.313 436.006 456.224 434.933 451.579 434.933C444.401 434.933 438.679 437.423 434.404 442.395C430.129 447.367 427.992 454.008 427.992 462.317C427.992 470.626 430.129 477.417 434.404 482.397C438.679 487.369 444.401 489.86 451.579 489.86C456.224 489.86 460.313 488.786 463.848 486.632C466.204 485.198 468.223 483.328 469.898 481.022C471.572 478.717 474.173 477.241 477.017 477.241H505.56C502.817 489.65 496.699 499.468 487.199 506.704C477.698 513.931 465.985 517.553 452.058 517.553C441.077 517.553 431.375 515.223 422.926 510.552C414.478 505.891 407.965 499.376 403.378 491.017C398.784 482.657 396.495 473.091 396.495 462.325C396.495 451.559 398.792 442.143 403.378 433.784V433.767Z" fill="#005AFF"/>
<path d="M665.003 432.46V450.152H700.623V473.075H665.003V492.611H705.369V516.766H633.969V408.305H705.369V432.46H665.003Z" fill="#005AFF"/>
<path d="M723.796 433.767C728.39 425.408 734.904 418.893 743.344 414.232C751.784 409.57 761.495 407.23 772.476 407.23C786.411 407.23 798.124 410.844 807.625 418.08C817.125 425.307 823.243 435.134 825.986 447.543H797.443C794.599 447.543 792.007 446.076 790.324 443.77C788.649 441.464 786.63 439.595 784.274 438.161C780.739 436.006 776.65 434.933 772.005 434.933C764.827 434.933 759.105 437.423 754.83 442.395C750.555 447.367 748.418 454.008 748.418 462.317C748.418 470.626 750.555 477.417 754.83 482.397C759.105 487.369 764.827 489.86 772.005 489.86C776.65 489.86 780.739 488.786 784.274 486.632C786.63 485.198 788.649 483.328 790.324 481.022C792.007 478.708 794.599 477.241 797.443 477.241H825.986C823.243 489.65 817.117 499.468 807.625 506.704C798.124 513.931 786.411 517.553 772.476 517.553C761.495 517.553 751.792 515.223 743.344 510.552C734.895 505.891 728.382 499.376 723.796 491.017C719.201 482.657 716.913 473.091 716.913 462.325C716.913 451.559 719.21 442.143 723.796 433.784V433.767Z" fill="#005AFF"/>
<path d="M940.613 408.305V516.766H909.588V473.226H871.754V516.766H840.729V408.305H871.754V449.07H909.588V408.305H940.613Z" fill="#005AFF"/>
<path d="M208.535 516.473V487.982H215.553V408.305H184.527V516.766H209.494L208.535 516.473Z" fill="#005AFF"/>
<path d="M208.524 485.77H177.414V516.767H208.524V485.77Z" fill="#005AFF"/>
<path d="M532.172 408.305V432.301H561.615V516.766H585.648V488.293H592.649V432.301H622.404V408.305H532.172Z" fill="#005AFF"/>
<path d="M585.651 485.77H554.542V516.767H585.651V485.77Z" fill="#005AFF"/>
<path d="M375.561 408.305H351.545V516.766H382.579V436.778H375.561V408.305Z" fill="#005AFF"/>
<path d="M375.549 408.305H344.439V439.302H375.549V408.305Z" fill="#005AFF"/>
<path d="M497.112 61.4961C565.363 61.8073 622.846 107.701 640.687 170.302H585.09L585.092 170.3H576.352C562.744 170.3 553.38 162.558 548.511 157.689C548.169 157.347 547.782 157.021 547.359 156.707C534.458 144.706 517.315 137.205 498.426 136.705C494.969 136.708 490.404 136.398 488.236 133.063C479.436 133.915 471.06 136.211 463.348 139.716C463.201 142.508 461.683 145.171 459.073 146.658C458.784 146.823 458.494 146.989 458.207 147.158C455.617 148.679 452.55 148.67 450.056 147.405C443.029 152.443 436.864 158.607 431.826 165.635C433.091 168.129 433.103 171.194 431.581 173.784C431.413 174.071 431.246 174.36 431.081 174.65C429.594 177.26 426.931 178.781 424.138 178.926C420.633 186.638 418.336 195.015 417.484 203.815C419.831 205.339 421.377 207.989 421.357 210.994C421.356 211.162 421.355 211.33 421.355 211.498C421.355 211.666 421.356 211.834 421.357 212.002C421.377 215.007 419.831 217.657 417.484 219.181C418.336 227.981 420.632 236.359 424.138 244.072C426.931 244.217 429.594 245.736 431.081 248.346C431.246 248.636 431.413 248.925 431.581 249.212C433.103 251.803 433.093 254.869 431.826 257.363C436.864 264.39 443.031 270.554 450.058 275.591C452.552 274.326 455.617 274.315 458.207 275.836C458.495 276.005 458.783 276.173 459.073 276.338C461.683 277.825 463.2 280.487 463.346 283.28C471.059 286.786 479.437 289.082 488.238 289.933C490.407 286.595 493.833 286.29 498.44 286.29C517.874 285.773 535.458 277.843 548.475 265.227C548.804 264.97 549.109 264.706 549.385 264.431C553.967 259.849 562.531 252.727 574.866 251.904H640.907C623.322 314.923 565.621 361.206 497.061 361.496C490.734 361.496 484.767 358.423 483.211 351.953C466.778 350.472 451.161 346.148 436.852 339.473C432.968 343.535 426.679 344.587 421.595 341.653C421.236 341.446 420.877 341.237 420.519 341.027C415.46 338.051 413.273 332.062 414.891 326.679C401.776 317.354 390.325 305.825 381.07 292.631C375.679 294.216 369.704 291.991 366.758 286.915C366.55 286.557 366.342 286.196 366.137 285.836C363.234 280.734 364.322 274.454 368.407 270.594C361.815 256.268 357.545 240.642 356.083 224.206C350.624 222.891 346.557 217.988 346.532 212.122V210.874C346.556 205.008 350.624 200.107 356.083 198.791C357.545 182.356 361.815 166.732 368.407 152.406C364.32 148.546 363.234 142.261 366.137 137.158C366.342 136.798 366.55 136.437 366.758 136.079C369.704 131.002 375.68 128.779 381.072 130.365C390.326 117.172 401.777 105.645 414.891 96.3203C413.27 90.9372 415.459 84.946 420.519 81.9688C420.877 81.7588 421.236 81.5497 421.595 81.3425C426.681 78.408 432.972 79.4602 436.855 83.5251C451.164 76.8511 466.779 72.5277 483.211 71.0468C484.767 64.5617 490.005 61.4957 497.112 61.4961ZM459.488 323.774C453.035 326.261 446.557 328.102 440.24 329.464C440.379 330.717 440.331 331.997 440.081 333.259C453.513 339.487 468.151 343.537 483.545 344.96C483.646 344.667 483.755 344.377 483.877 344.094C478.849 339.283 473.941 333.898 469.463 327.887C468.327 327.999 467.152 327.917 465.983 327.615C465.784 327.564 465.585 327.513 465.387 327.46C465.188 327.408 464.987 327.353 464.789 327.3C462.599 326.712 460.777 325.439 459.488 323.774ZM493.301 302.787C488.393 307.399 483.221 311.314 477.901 314.637C478.536 316.441 478.663 318.448 478.15 320.439C477.723 322.092 476.906 323.54 475.824 324.712C479.724 329.825 483.97 334.471 488.348 338.69C490.358 337.326 492.786 336.531 495.399 336.541H496.414V303.04C496.25 303.04 496.085 303.041 495.921 303.041C495.716 303.041 495.51 303.041 495.304 303.04C494.614 303.035 493.943 302.947 493.301 302.787ZM447.147 288.298C440.924 290.016 434.785 291.054 428.778 291.542C428.464 293.525 427.553 295.434 426.039 296.975C424.948 298.084 423.66 298.887 422.287 299.378C423.371 305.794 424.986 311.952 426.922 317.783C429.053 317.794 431.21 318.346 433.179 319.504C433.476 319.678 433.774 319.852 434.073 320.024C435.41 320.796 436.548 321.781 437.474 322.907C444.044 321.557 450.76 319.684 457.407 317.089C457.446 316.418 457.554 315.738 457.736 315.063C458.079 313.785 458.657 312.632 459.409 311.638C456.342 305.507 453.792 298.87 451.963 291.691C451.523 291.53 451.09 291.331 450.669 291.091C450.314 290.889 449.958 290.684 449.605 290.476C448.622 289.899 447.797 289.153 447.147 288.298ZM388.146 287.262C387.797 287.821 387.402 288.356 386.963 288.86C395.674 301.22 406.415 312.034 418.699 320.809C419.172 320.401 419.673 320.032 420.195 319.704C418.076 313.276 416.314 306.425 415.183 299.24C413.997 298.763 412.884 298.047 411.916 297.096C411.623 296.808 411.33 296.518 411.041 296.228C409.616 294.798 408.715 293.044 408.335 291.204C401.287 290.428 394.527 289.032 388.146 287.262ZM460.79 289.799C460.259 290.316 459.669 290.757 459.037 291.112C460.643 297.09 462.79 302.671 465.347 307.878C466.832 307.568 468.41 307.59 469.974 308.01C470.14 308.055 470.306 308.1 470.472 308.144C470.639 308.188 470.808 308.231 470.974 308.274C471.824 308.494 472.62 308.818 473.353 309.227C478.343 306.181 483.186 302.596 487.78 298.375C487.537 297.895 487.338 297.388 487.189 296.862C477.868 295.919 468.987 293.483 460.79 289.799ZM426.365 261.739C425.265 262.021 424.135 262.073 423.04 261.913C421.697 267.911 421.009 273.811 420.85 279.573C422.439 280.024 423.941 280.873 425.19 282.127C425.431 282.369 425.675 282.61 425.918 282.85C426.478 283.4 426.957 284.004 427.359 284.64C433.326 284.209 439.417 283.201 445.584 281.476C445.612 281.336 445.644 281.194 445.68 281.054C438.26 275.685 431.734 269.159 426.365 261.739ZM397.074 248.001C395.896 249.186 394.406 250.093 392.682 250.574C391.473 250.912 390.252 251.01 389.072 250.9C386.582 256.871 384.674 262.906 383.203 268.836C385.074 269.908 386.694 271.476 387.838 273.486C388.009 273.786 388.182 274.085 388.355 274.384C389.48 276.323 390.02 278.439 390.038 280.531C396.195 282.238 402.679 283.566 409.407 284.287C409.847 283.505 410.4 282.768 411.067 282.103C411.897 281.276 412.838 280.627 413.84 280.152C413.986 272.87 414.916 265.354 416.864 257.68C416.683 257.372 416.505 257.061 416.328 256.75C416.159 256.453 416.011 256.15 415.881 255.843C409.106 253.807 402.85 251.134 397.074 248.001ZM365.621 222.667C364.827 223.162 363.974 223.569 363.074 223.878C364.479 239.29 368.481 253.945 374.636 267.4C375.225 267.287 375.817 267.22 376.409 267.193C377.983 260.841 380.049 254.327 382.773 247.854C381.675 246.706 380.835 245.277 380.378 243.64C380.267 243.245 380.157 242.847 380.051 242.451C379.521 240.47 379.626 238.468 380.24 236.662C374.829 232.255 369.972 227.507 365.621 222.667ZM409.452 219.83C404.983 224.36 401.163 229.174 397.896 234.161C398.539 235.084 399.039 236.132 399.347 237.281C399.435 237.61 399.525 237.941 399.617 238.269C399.929 239.388 400.034 240.517 399.962 241.614C404.982 244.371 410.38 246.747 416.183 248.616C416.559 247.896 417.04 247.225 417.62 246.63C413.936 238.432 411.5 229.55 410.558 220.228C410.178 220.121 409.809 219.987 409.452 219.83ZM383.7 192.202C378.74 196.365 374.264 200.845 370.225 205.428C371.048 207.101 371.51 208.984 371.502 210.975C371.502 211.149 371.5 211.324 371.5 211.498C371.5 211.672 371.502 211.847 371.502 212.021C371.51 213.95 371.079 215.779 370.304 217.414C374.585 222.229 379.35 226.925 384.656 231.246C385.409 230.807 386.231 230.457 387.114 230.22C388.821 229.763 390.543 229.779 392.143 230.184C395.696 224.78 399.869 219.549 404.772 214.624C404.522 213.832 404.386 212.989 404.38 212.115C404.378 211.91 404.378 211.703 404.378 211.498C404.378 211.293 404.378 211.086 404.38 210.881C404.386 209.928 404.55 209.012 404.846 208.159C400.17 203.515 396.15 198.594 392.694 193.508C390.913 194.116 388.94 194.23 386.982 193.725C385.768 193.411 384.665 192.887 383.7 192.202ZM415.971 173.948C410.103 175.877 404.653 178.328 399.59 181.163C399.849 182.577 399.807 184.069 399.409 185.549L399.147 186.549C398.915 187.447 398.565 188.284 398.123 189.05C401.395 193.935 405.208 198.647 409.652 203.079C409.946 202.959 410.248 202.855 410.558 202.768C411.5 193.447 413.937 184.566 417.62 176.368C416.925 175.655 416.371 174.833 415.971 173.948ZM374.636 155.597C368.482 169.053 364.479 183.708 363.074 199.12C363.92 199.41 364.726 199.786 365.479 200.242C369.736 195.462 374.48 190.759 379.763 186.379C379.393 184.843 379.382 183.196 379.804 181.559C379.855 181.361 379.908 181.16 379.961 180.961C380.013 180.763 380.066 180.562 380.119 180.364C380.621 178.497 381.622 176.896 382.937 175.666C380.061 169.026 377.891 162.33 376.243 155.797C375.706 155.766 375.169 155.7 374.636 155.597ZM408.203 138.281C401.901 139.045 395.822 140.333 390.032 141.953C390.105 144.21 389.571 146.514 388.355 148.61C388.182 148.909 388.009 149.21 387.838 149.51C386.665 151.571 384.994 153.172 383.062 154.245C384.633 160.446 386.687 166.753 389.389 172.975C390.366 172.938 391.364 173.043 392.358 173.31C393.731 173.68 394.959 174.322 396.002 175.157C402.149 171.699 408.851 168.761 416.156 166.563C416.211 166.457 416.268 166.351 416.328 166.246C416.469 165.999 416.611 165.752 416.754 165.507C414.801 158.068 413.808 150.774 413.564 143.694C412.435 143.218 411.374 142.525 410.446 141.614C409.45 140.634 408.701 139.497 408.203 138.281ZM427.375 137.732C426.888 138.832 426.196 139.864 425.292 140.765C425.05 141.006 424.809 141.251 424.57 141.495C423.414 142.67 422.039 143.496 420.574 143.977C420.798 149.574 421.523 155.296 422.868 161.109C424.017 160.917 425.207 160.962 426.365 161.258C431.734 153.839 438.26 147.313 445.68 141.944C445.583 141.565 445.512 141.181 445.469 140.797C439.345 139.117 433.298 138.14 427.375 137.732ZM418.699 102.189C406.415 110.964 395.673 121.778 386.963 134.138C387.288 134.51 387.591 134.898 387.867 135.302C394.224 133.509 400.963 132.076 407.994 131.261C408.462 129.888 409.24 128.595 410.326 127.491C410.613 127.198 410.903 126.907 411.193 126.617C412.219 125.595 413.412 124.845 414.683 124.361C415.784 116.858 417.586 109.711 419.774 103.019C419.403 102.764 419.044 102.486 418.699 102.189ZM437.919 99.5139C436.923 100.881 435.633 102.07 434.073 102.97C433.774 103.142 433.476 103.316 433.179 103.49C431.053 104.74 428.709 105.287 426.414 105.205C424.433 111.264 422.801 117.669 421.757 124.346C423.055 124.833 424.274 125.596 425.317 126.642C426.503 127.833 427.324 129.25 427.786 130.752C434.257 131.194 440.885 132.269 447.613 134.138C448.177 133.516 448.843 132.967 449.605 132.52C449.958 132.312 450.313 132.107 450.669 131.905C450.922 131.76 451.18 131.63 451.441 131.514C453.187 124.406 455.641 117.826 458.605 111.738C457.818 110.734 457.21 109.562 456.845 108.257C456.526 107.115 456.42 105.962 456.502 104.843C450.297 102.505 444.047 100.779 437.919 99.5139ZM473.675 113.171C472.656 113.962 471.465 114.567 470.14 114.922C469.81 115.01 469.479 115.1 469.15 115.191C467.619 115.619 466.072 115.663 464.61 115.386C462.184 120.455 460.145 125.873 458.617 131.663C459.409 132.052 460.142 132.568 460.79 133.199C468.988 129.515 477.868 127.078 487.189 126.136C487.401 125.388 487.712 124.68 488.108 124.031C483.513 119.807 478.668 116.218 473.675 113.171ZM487.808 83.9193C483.277 88.3061 478.892 93.1513 474.89 98.5009C475.955 99.6521 476.767 101.069 477.201 102.689C477.612 104.221 477.641 105.767 477.35 107.223C483.146 110.764 488.774 114.994 494.088 120.053C494.485 119.993 494.891 119.959 495.304 119.956C495.51 119.955 495.716 119.955 495.921 119.955C496.085 119.955 496.25 119.954 496.414 119.955V86.4527C496.25 86.452 496.085 86.4527 495.921 86.4527C495.747 86.4527 495.573 86.4539 495.399 86.4546C492.548 86.4661 489.916 85.5195 487.808 83.9193ZM483.543 78.0376C468.15 79.4607 453.515 83.511 440.083 89.7388C440.288 90.7805 440.357 91.8345 440.296 92.8758C446.576 94.2171 453.015 96.0308 459.435 98.4802C460.606 97.3178 462.08 96.4274 463.781 95.9524C464.176 95.8423 464.572 95.7341 464.968 95.628C466.165 95.3071 467.37 95.2204 468.535 95.3356C473.192 88.9672 478.34 83.2921 483.617 78.247C483.591 78.1779 483.567 78.1074 483.543 78.0376Z" fill="#005AFF"/>
</svg>
