<svg width="1001" height="231" viewBox="0 0 1001 231" fill="none" xmlns="http://www.w3.org/2000/svg">
<rect width="1000" height="230" transform="translate(0.114258 0.589844)" fill="white"/>
<path d="M67.0533 86.9627C71.6478 78.6033 78.1609 72.0886 86.601 67.4268C95.0411 62.7651 104.752 60.4258 115.733 60.4258C129.668 60.4258 141.382 64.0395 150.874 71.2753C160.374 78.5027 166.492 88.3293 169.235 100.738H140.692C137.847 100.738 135.256 99.2711 133.573 96.9654C131.89 94.6596 129.879 92.7899 127.522 91.3561C123.988 89.2013 119.899 88.1281 115.254 88.1281C108.076 88.1281 102.354 90.6183 98.0789 95.5903C93.8041 100.562 91.6667 107.203 91.6667 115.512C91.6667 123.821 93.8041 130.612 98.0789 135.593C102.354 140.565 108.076 143.055 115.254 143.055C119.899 143.055 123.988 141.982 127.522 139.827C129.879 138.393 131.898 136.523 133.573 134.218C135.247 131.912 137.847 130.436 140.692 130.436H169.235C166.492 142.845 160.374 152.663 150.874 159.899C141.373 167.127 129.66 170.749 115.733 170.749C104.752 170.749 95.0495 168.418 86.601 163.748C78.1525 159.086 71.6394 152.571 67.0533 144.212C62.4588 135.853 60.1699 126.286 60.1699 115.52C60.1699 104.755 62.4672 95.3388 67.0533 86.9794V86.9627Z" fill="#005AFF"/>
<path d="M337.365 61.5L298.892 169.962H259.157L220.533 61.5H253.78L279.109 139.803L304.278 61.5H337.365Z" fill="#005AFF"/>
<path d="M402.824 86.9627C407.418 78.6033 413.931 72.0886 422.371 67.4268C430.812 62.7651 440.522 60.4258 451.504 60.4258C465.439 60.4258 477.152 64.0395 486.644 71.2753C496.145 78.5027 502.262 88.3293 505.005 100.738H476.462C473.618 100.738 471.026 99.2711 469.343 96.9654C467.66 94.6596 465.649 92.7899 463.293 91.3561C459.759 89.2013 455.669 88.1281 451.024 88.1281C443.846 88.1281 438.124 90.6183 433.849 95.5903C429.575 100.562 427.437 107.203 427.437 115.512C427.437 123.821 429.575 130.612 433.849 135.593C438.124 140.565 443.846 143.055 451.024 143.055C455.669 143.055 459.759 141.982 463.293 139.827C465.649 138.393 467.669 136.523 469.343 134.218C471.018 131.912 473.618 130.436 476.462 130.436H505.005C502.262 142.845 496.145 152.663 486.644 159.899C477.144 167.127 465.43 170.749 451.504 170.749C440.522 170.749 430.82 168.418 422.371 163.748C413.923 159.086 407.41 152.571 402.824 144.212C398.229 135.853 395.94 126.286 395.94 115.52C395.94 104.755 398.238 95.3388 402.824 86.9794V86.9627Z" fill="#005AFF"/>
<path d="M664.449 85.6557V103.347H700.069V126.27H664.449V145.806H704.815V169.962H633.415V61.5H704.815V85.6557H664.449Z" fill="#005AFF"/>
<path d="M723.241 86.9627C727.836 78.6033 734.349 72.0886 742.789 67.4268C751.229 62.7651 760.94 60.4258 771.921 60.4258C785.856 60.4258 797.57 64.0395 807.07 71.2753C816.57 78.5027 822.688 88.3293 825.431 100.738H796.888C794.044 100.738 791.452 99.2711 789.769 96.9654C788.095 94.6596 786.075 92.7899 783.719 91.3561C780.185 89.2013 776.095 88.1281 771.45 88.1281C764.272 88.1281 758.55 90.6183 754.275 95.5903C750.001 100.562 747.863 107.203 747.863 115.512C747.863 123.821 750.001 130.612 754.275 135.593C758.55 140.565 764.272 143.055 771.45 143.055C776.095 143.055 780.185 141.982 783.719 139.827C786.075 138.393 788.095 136.523 789.769 134.218C791.452 131.903 794.044 130.436 796.888 130.436H825.431C822.688 142.845 816.562 152.663 807.07 159.899C797.57 167.127 785.856 170.749 771.921 170.749C760.94 170.749 751.237 168.418 742.789 163.748C734.34 159.086 727.827 152.571 723.241 144.212C718.647 135.853 716.358 126.286 716.358 115.52C716.358 104.755 718.655 95.3388 723.241 86.9794V86.9627Z" fill="#005AFF"/>
<path d="M940.059 61.5V169.962H909.033V126.421H871.2V169.962H840.174V61.5H871.2V102.265H909.033V61.5H940.059Z" fill="#005AFF"/>
<path d="M207.98 169.668V141.178H214.998V61.5H183.973V169.962H208.94L207.98 169.668Z" fill="#005AFF"/>
<path d="M207.97 138.965H176.86V169.962H207.97V138.965Z" fill="#005AFF"/>
<path d="M531.617 61.5V85.4964H561.061V169.962H585.094V141.488H592.095V85.4964H621.85V61.5H531.617Z" fill="#005AFF"/>
<path d="M585.097 138.965H553.987V169.962H585.097V138.965Z" fill="#005AFF"/>
<path d="M375.006 61.5H350.99V169.962H382.024V89.9737H375.006V61.5Z" fill="#005AFF"/>
<path d="M374.994 61.5H343.885V92.4974H374.994V61.5Z" fill="#005AFF"/>
</svg>
