<svg width="501" height="501" viewBox="0 0 501 501" fill="none" xmlns="http://www.w3.org/2000/svg">
<rect width="500" height="500" transform="translate(0.123047 0.589844)" fill="white"/>
<path d="M181.142 276.199V293.346H215.553V315.581H181.142V334.522H220.142V357.934H151.142V252.758H220.142V276.169H181.142V276.199Z" fill="#005AFF"/>
<path d="M237.958 277.454C242.399 269.336 248.693 263.042 256.84 258.513C264.987 253.983 274.37 251.719 284.987 251.719C298.458 251.719 309.781 255.219 318.957 262.248C328.134 269.248 334.046 278.777 336.693 290.807H309.105C306.369 290.807 303.869 289.395 302.222 287.13C300.575 284.866 298.664 283.071 296.369 281.689C292.958 279.601 288.987 278.542 284.517 278.542C277.575 278.542 272.046 280.954 267.928 285.777C263.811 290.601 261.723 297.042 261.723 305.101C261.723 313.16 263.781 319.748 267.928 324.571C272.046 329.395 277.575 331.806 284.517 331.806C289.017 331.806 292.958 330.748 296.369 328.659C298.634 327.277 300.605 325.454 302.222 323.218C303.84 320.983 306.34 319.542 309.105 319.542H336.693C334.046 331.571 328.134 341.1 318.957 348.1C309.781 355.1 298.458 358.63 284.987 358.63C274.37 358.63 264.987 356.365 256.84 351.836C248.693 347.306 242.399 340.983 237.958 332.895C233.517 324.777 231.311 315.512 231.311 305.071C231.311 294.63 233.517 285.513 237.958 277.395V277.454Z" fill="#005AFF"/>
<path d="M447.434 252.758V357.934H417.464V315.699H380.905V357.934H350.935V252.758H380.905V292.287H417.464V252.758H447.434Z" fill="#005AFF"/>
<path d="M52.7861 252.758V276.052H81.2565V357.963H104.462V330.346H111.227V276.052H139.991V252.758H52.7861Z" fill="#005AFF"/>
<path d="M104.455 327.891H74.396V357.949H104.455V327.891Z" fill="#005AFF"/>
<path d="M41.8481 152.665C46.2892 144.547 52.5833 138.253 60.7303 133.724C68.9067 129.194 78.289 126.93 88.9066 126.93C102.377 126.93 113.701 130.43 122.877 137.459C132.053 144.459 137.965 153.988 140.612 166.018H113.024C110.289 166.018 107.789 164.606 106.142 162.341C104.495 160.077 102.583 158.282 100.289 156.9C96.8771 154.812 92.9065 153.753 88.436 153.753C81.4949 153.753 75.9655 156.165 71.8479 160.988C67.7302 165.812 65.642 172.253 65.642 180.312C65.642 188.37 67.7008 194.959 71.8479 199.782C75.9655 204.606 81.4949 207.017 88.436 207.017C92.936 207.017 96.8771 205.959 100.289 203.87C102.554 202.488 104.524 200.664 106.142 198.429C107.759 196.194 110.259 194.753 113.024 194.753H140.612C137.965 206.782 132.053 216.311 122.877 223.311C113.701 230.311 102.377 233.841 88.9066 233.841C78.289 233.841 68.9067 231.576 60.7597 227.047C52.6127 222.517 46.3186 216.194 41.8775 208.106C37.4363 199.988 35.2305 190.723 35.2305 180.282C35.2305 169.841 37.4363 160.724 41.8775 152.606L41.8481 152.665Z" fill="#005AFF"/>
<path d="M303.051 127.984L265.875 233.16H227.493L190.17 127.984H222.287L246.758 203.925L271.081 127.984H303.051Z" fill="#005AFF"/>
<path d="M366.278 152.665C370.72 144.547 377.014 138.253 385.161 133.724C393.308 129.194 402.69 126.93 413.307 126.93C426.778 126.93 438.101 130.43 447.278 137.459C456.454 144.459 462.366 153.988 465.013 166.018H437.425C434.69 166.018 432.19 164.606 430.543 162.341C428.896 160.077 426.984 158.282 424.69 156.9C421.278 154.812 417.307 153.753 412.837 153.753C405.896 153.753 400.366 156.165 396.249 160.988C392.131 165.812 390.043 172.253 390.043 180.312C390.043 188.37 392.102 194.959 396.249 199.782C400.366 204.606 405.896 207.017 412.837 207.017C417.337 207.017 421.278 205.959 424.69 203.87C426.954 202.488 428.925 200.664 430.543 198.429C432.16 196.194 434.66 194.753 437.425 194.753H465.013C462.366 206.782 456.454 216.311 447.278 223.311C438.101 230.311 426.778 233.841 413.307 233.841C402.69 233.841 393.308 231.576 385.161 227.047C377.014 222.517 370.72 216.194 366.278 208.106C361.837 199.988 359.631 190.723 359.631 180.282C359.631 169.841 361.837 160.724 366.278 152.606V152.665Z" fill="#005AFF"/>
<path d="M178.024 232.866V205.249H184.818V127.984H154.818V233.16H178.936L178.024 232.866Z" fill="#005AFF"/>
<path d="M178.018 203.102H147.959V233.16H178.018V203.102Z" fill="#005AFF"/>
<path d="M339.397 127.984H316.191V233.16H346.161V155.572H339.397V127.984Z" fill="#005AFF"/>
<path d="M339.402 127.984H309.343V158.043H339.402V127.984Z" fill="#005AFF"/>
<path d="M184.259 387.691V417.926H179.112V397.221L169.523 417.926H165.935L156.288 397.221V417.926H151.141V387.691H156.7L167.729 411.397L178.729 387.691H184.259Z" fill="#000035"/>
<path d="M197.312 416.253C194.841 414.93 192.9 413.106 191.488 410.724C190.047 408.371 189.341 405.695 189.341 402.754C189.341 399.812 190.047 397.136 191.488 394.783C192.93 392.43 194.871 390.607 197.312 389.283C199.782 387.96 202.459 387.312 205.4 387.312C208.341 387.312 211.047 387.96 213.518 389.283C215.988 390.607 217.9 392.43 219.341 394.783C220.753 397.136 221.459 399.783 221.459 402.754C221.459 405.724 220.753 408.371 219.341 410.724C217.929 413.077 215.988 414.93 213.518 416.253C211.047 417.577 208.341 418.224 205.4 418.224C202.459 418.224 199.782 417.577 197.312 416.253ZM210.959 412.577C212.576 411.665 213.871 410.371 214.782 408.665C215.694 406.959 216.165 405.018 216.165 402.783C216.165 400.548 215.694 398.607 214.782 396.901C213.871 395.224 212.576 393.93 210.959 393.018C209.341 392.107 207.488 391.665 205.4 391.665C203.312 391.665 201.459 392.107 199.841 393.018C198.224 393.93 196.929 395.195 196.018 396.901C195.106 398.577 194.635 400.548 194.635 402.783C194.635 405.018 195.106 406.989 196.018 408.665C196.929 410.371 198.224 411.665 199.841 412.577C201.459 413.489 203.312 413.959 205.4 413.959C207.488 413.959 209.341 413.489 210.959 412.577Z" fill="#000035"/>
<path d="M252.343 417.932H247.196L231.667 395.344V417.932H226.52V387.668H231.667L247.196 410.197V387.668H252.343V417.932Z" fill="#000035"/>
<path d="M259.549 394.783C260.99 392.43 262.931 390.607 265.372 389.283C267.843 387.96 270.519 387.312 273.461 387.312C276.813 387.312 279.784 388.107 282.402 389.695C285.019 391.283 286.902 393.518 288.078 396.401H281.872C281.049 394.812 279.931 393.607 278.49 392.842C277.049 392.048 275.372 391.665 273.461 391.665C271.372 391.665 269.519 392.107 267.902 393.018C266.284 393.93 264.99 395.195 264.078 396.901C263.167 398.577 262.696 400.548 262.696 402.783C262.696 405.018 263.167 406.959 264.078 408.665C264.99 410.342 266.284 411.636 267.902 412.548C269.519 413.459 271.372 413.93 273.461 413.93C275.372 413.93 277.049 413.548 278.49 412.754C279.931 411.959 281.078 410.783 281.872 409.195H288.078C286.902 412.106 285.019 414.342 282.402 415.901C279.784 417.459 276.813 418.253 273.461 418.253C270.49 418.253 267.814 417.606 265.372 416.283C262.931 414.959 260.99 413.136 259.549 410.783C258.108 408.43 257.402 405.783 257.402 402.812C257.402 399.842 258.108 397.195 259.549 394.842V394.783Z" fill="#000035"/>
<path d="M314.407 387.691V391.75H306.025V417.926H300.878V391.75H292.466V387.691H314.407Z" fill="#000035"/>
<path d="M325.873 416.253C323.402 414.93 321.461 413.106 320.049 410.724C318.608 408.371 317.902 405.695 317.902 402.754C317.902 399.812 318.608 397.136 320.049 394.783C321.491 392.43 323.432 390.607 325.873 389.283C328.343 387.96 331.02 387.312 333.961 387.312C336.902 387.312 339.608 387.96 342.079 389.283C344.549 390.607 346.461 392.43 347.902 394.783C349.314 397.136 350.02 399.783 350.02 402.754C350.02 405.724 349.314 408.371 347.902 410.724C346.49 413.077 344.549 414.93 342.079 416.253C339.608 417.577 336.902 418.224 333.961 418.224C331.02 418.224 328.343 417.577 325.873 416.253ZM339.52 412.577C341.137 411.665 342.432 410.371 343.343 408.665C344.255 406.959 344.726 405.018 344.726 402.783C344.726 400.548 344.255 398.607 343.343 396.901C342.432 395.224 341.137 393.93 339.52 393.018C337.902 392.107 336.049 391.665 333.961 391.665C331.873 391.665 330.02 392.107 328.402 393.018C326.785 393.93 325.491 395.195 324.579 396.901C323.667 398.577 323.196 400.548 323.196 402.783C323.196 405.018 323.667 406.989 324.579 408.665C325.491 410.371 326.785 411.665 328.402 412.577C330.02 413.489 331.873 413.959 333.961 413.959C336.049 413.959 337.902 413.489 339.52 412.577Z" fill="#000035"/>
<path d="M380.904 417.932H375.757L360.228 395.344V417.932H355.081V387.668H360.228L375.757 410.197V387.668H380.904V417.932Z" fill="#000035"/>
</svg>
