<svg width="1001" height="231" viewBox="0 0 1001 231" fill="none" xmlns="http://www.w3.org/2000/svg">
<rect width="1000" height="230" transform="translate(0.114258 0.589844)" fill="#005AFF"/>
<path d="M67.0523 86.9627C71.6468 78.6033 78.1599 72.0886 86.6 67.4268C95.0401 62.7651 104.751 60.4258 115.732 60.4258C129.667 60.4258 141.381 64.0395 150.873 71.2753C160.373 78.5027 166.491 88.3293 169.234 100.738H140.691C137.846 100.738 135.255 99.2711 133.572 96.9654C131.889 94.6596 129.878 92.7899 127.521 91.3561C123.987 89.2013 119.898 88.1281 115.253 88.1281C108.075 88.1281 102.353 90.6183 98.0779 95.5903C93.8031 100.562 91.6658 107.203 91.6658 115.512C91.6658 123.821 93.8031 130.612 98.0779 135.593C102.353 140.565 108.075 143.055 115.253 143.055C119.898 143.055 123.987 141.982 127.521 139.827C129.878 138.393 131.897 136.523 133.572 134.218C135.246 131.912 137.846 130.436 140.691 130.436H169.234C166.491 142.845 160.373 152.663 150.873 159.899C141.372 167.127 129.659 170.749 115.732 170.749C104.751 170.749 95.0485 168.418 86.6 163.748C78.1515 159.086 71.6384 152.571 67.0523 144.212C62.4578 135.853 60.1689 126.286 60.1689 115.52C60.1689 104.755 62.4662 95.3388 67.0523 86.9794V86.9627Z" fill="white"/>
<path d="M337.364 61.5L298.891 169.962H259.156L220.532 61.5H253.779L279.108 139.803L304.277 61.5H337.364Z" fill="white"/>
<path d="M402.823 86.9627C407.417 78.6033 413.93 72.0886 422.371 67.4268C430.811 62.7651 440.521 60.4258 451.503 60.4258C465.438 60.4258 477.151 64.0395 486.643 71.2753C496.144 78.5027 502.261 88.3293 505.004 100.738H476.461C473.617 100.738 471.025 99.2711 469.342 96.9654C467.659 94.6596 465.648 92.7899 463.292 91.3561C459.758 89.2013 455.668 88.1281 451.023 88.1281C443.845 88.1281 438.123 90.6183 433.848 95.5903C429.574 100.562 427.436 107.203 427.436 115.512C427.436 123.821 429.574 130.612 433.848 135.593C438.123 140.565 443.845 143.055 451.023 143.055C455.668 143.055 459.758 141.982 463.292 139.827C465.648 138.393 467.668 136.523 469.342 134.218C471.017 131.912 473.617 130.436 476.461 130.436H505.004C502.261 142.845 496.144 152.663 486.643 159.899C477.143 167.127 465.429 170.749 451.503 170.749C440.521 170.749 430.819 168.418 422.371 163.748C413.922 159.086 407.409 152.571 402.823 144.212C398.228 135.853 395.939 126.286 395.939 115.52C395.939 104.755 398.237 95.3388 402.823 86.9794V86.9627Z" fill="white"/>
<path d="M664.448 85.6557V103.347H700.068V126.27H664.448V145.806H704.814V169.962H633.414V61.5H704.814V85.6557H664.448Z" fill="white"/>
<path d="M723.24 86.9627C727.835 78.6033 734.348 72.0886 742.788 67.4268C751.228 62.7651 760.939 60.4258 771.92 60.4258C785.855 60.4258 797.569 64.0395 807.069 71.2753C816.569 78.5027 822.687 88.3293 825.43 100.738H796.887C794.043 100.738 791.451 99.2711 789.768 96.9654C788.094 94.6596 786.074 92.7899 783.718 91.3561C780.184 89.2013 776.094 88.1281 771.449 88.1281C764.271 88.1281 758.549 90.6183 754.274 95.5903C750 100.562 747.862 107.203 747.862 115.512C747.862 123.821 750 130.612 754.274 135.593C758.549 140.565 764.271 143.055 771.449 143.055C776.094 143.055 780.184 141.982 783.718 139.827C786.074 138.393 788.094 136.523 789.768 134.218C791.451 131.903 794.043 130.436 796.887 130.436H825.43C822.687 142.845 816.561 152.663 807.069 159.899C797.569 167.127 785.855 170.749 771.92 170.749C760.939 170.749 751.236 168.418 742.788 163.748C734.339 159.086 727.826 152.571 723.24 144.212C718.646 135.853 716.357 126.286 716.357 115.52C716.357 104.755 718.654 95.3388 723.24 86.9794V86.9627Z" fill="white"/>
<path d="M940.058 61.5V169.962H909.032V126.421H871.199V169.962H840.173V61.5H871.199V102.265H909.032V61.5H940.058Z" fill="white"/>
<path d="M207.979 169.668V141.178H214.997V61.5H183.972V169.962H208.939L207.979 169.668Z" fill="white"/>
<path d="M207.969 138.965H176.859V169.962H207.969V138.965Z" fill="white"/>
<path d="M531.616 61.5V85.4964H561.06V169.962H585.093V141.488H592.094V85.4964H621.849V61.5H531.616Z" fill="white"/>
<path d="M585.096 138.965H553.986V169.962H585.096V138.965Z" fill="white"/>
<path d="M375.005 61.5H350.989V169.962H382.023V89.9737H375.005V61.5Z" fill="white"/>
<path d="M374.994 61.5H343.884V92.4974H374.994V61.5Z" fill="white"/>
</svg>
