<svg width="501" height="501" viewBox="0 0 501 501" fill="none" xmlns="http://www.w3.org/2000/svg">
<path d="M181.133 276.199V293.346H215.545V315.581H181.133V334.522H220.133V357.934H151.133V252.758H220.133V276.169H181.133V276.199Z" fill="#000035"/>
<path d="M237.949 277.454C242.39 269.336 248.684 263.042 256.831 258.513C264.978 253.983 274.361 251.719 284.978 251.719C298.449 251.719 309.772 255.219 318.949 262.248C328.125 269.248 334.037 278.777 336.684 290.807H309.096C306.361 290.807 303.861 289.395 302.214 287.13C300.566 284.866 298.655 283.071 296.361 281.689C292.949 279.601 288.978 278.542 284.508 278.542C277.567 278.542 272.037 280.954 267.92 285.777C263.802 290.601 261.714 297.042 261.714 305.101C261.714 313.16 263.773 319.748 267.92 324.571C272.037 329.395 277.567 331.806 284.508 331.806C289.008 331.806 292.949 330.748 296.361 328.659C298.625 327.277 300.596 325.454 302.214 323.218C303.831 320.983 306.331 319.542 309.096 319.542H336.684C334.037 331.571 328.125 341.1 318.949 348.1C309.772 355.1 298.449 358.63 284.978 358.63C274.361 358.63 264.978 356.365 256.831 351.836C248.684 347.306 242.39 340.983 237.949 332.895C233.508 324.777 231.302 315.512 231.302 305.071C231.302 294.63 233.508 285.513 237.949 277.395V277.454Z" fill="#000035"/>
<path d="M447.425 252.758V357.934H417.455V315.699H380.896V357.934H350.926V252.758H380.896V292.287H417.455V252.758H447.425Z" fill="#000035"/>
<path d="M52.7773 252.758V276.052H81.2477V357.963H104.453V330.346H111.218V276.052H139.983V252.758H52.7773Z" fill="#000035"/>
<path d="M104.446 327.891H74.3872V357.949H104.446V327.891Z" fill="#000035"/>
<path d="M41.8393 152.665C46.2804 144.547 52.5745 138.253 60.7215 133.724C68.8979 129.194 78.2802 126.93 88.8978 126.93C102.368 126.93 113.692 130.43 122.868 137.459C132.045 144.459 137.956 153.988 140.603 166.018H113.015C110.28 166.018 107.78 164.606 106.133 162.341C104.486 160.077 102.574 158.282 100.28 156.9C96.8683 154.812 92.8978 153.753 88.4272 153.753C81.4861 153.753 75.9567 156.165 71.8391 160.988C67.7215 165.812 65.6332 172.253 65.6332 180.312C65.6332 188.37 67.692 194.959 71.8391 199.782C75.9567 204.606 81.4861 207.017 88.4272 207.017C92.9272 207.017 96.8683 205.959 100.28 203.87C102.545 202.488 104.515 200.664 106.133 198.429C107.751 196.194 110.251 194.753 113.015 194.753H140.603C137.956 206.782 132.045 216.311 122.868 223.311C113.692 230.311 102.368 233.841 88.8978 233.841C78.2802 233.841 68.8979 231.576 60.7509 227.047C52.6039 222.517 46.3098 216.194 41.8687 208.106C37.4275 199.988 35.2217 190.723 35.2217 180.282C35.2217 169.841 37.4275 160.724 41.8687 152.606L41.8393 152.665Z" fill="#000035"/>
<path d="M303.043 127.984L265.866 233.16H227.484L190.161 127.984H222.279L246.749 203.925L271.072 127.984H303.043Z" fill="#000035"/>
<path d="M366.27 152.665C370.711 144.547 377.005 138.253 385.152 133.724C393.299 129.194 402.681 126.93 413.299 126.93C426.769 126.93 438.093 130.43 447.269 137.459C456.445 144.459 462.357 153.988 465.004 166.018H437.416C434.681 166.018 432.181 164.606 430.534 162.341C428.887 160.077 426.975 158.282 424.681 156.9C421.269 154.812 417.299 153.753 412.828 153.753C405.887 153.753 400.358 156.165 396.24 160.988C392.122 165.812 390.034 172.253 390.034 180.312C390.034 188.37 392.093 194.959 396.24 199.782C400.358 204.606 405.887 207.017 412.828 207.017C417.328 207.017 421.269 205.959 424.681 203.87C426.946 202.488 428.916 200.664 430.534 198.429C432.151 196.194 434.651 194.753 437.416 194.753H465.004C462.357 206.782 456.445 216.311 447.269 223.311C438.093 230.311 426.769 233.841 413.299 233.841C402.681 233.841 393.299 231.576 385.152 227.047C377.005 222.517 370.711 216.194 366.27 208.106C361.828 199.988 359.623 190.723 359.623 180.282C359.623 169.841 361.828 160.724 366.27 152.606V152.665Z" fill="#000035"/>
<path d="M178.015 232.866V205.249H184.809V127.984H154.81V233.16H178.927L178.015 232.866Z" fill="#000035"/>
<path d="M178.009 203.102H147.951V233.16H178.009V203.102Z" fill="#000035"/>
<path d="M339.388 127.984H316.182V233.16H346.153V155.572H339.388V127.984Z" fill="#000035"/>
<path d="M339.393 127.984H309.334V158.043H339.393V127.984Z" fill="#000035"/>
<path d="M184.25 387.691V417.926H179.103V397.221L169.515 417.926H165.926L156.279 397.221V417.926H151.132V387.691H156.691L167.72 411.397L178.72 387.691H184.25Z" fill="#000035"/>
<path d="M197.303 416.253C194.832 414.93 192.891 413.106 191.48 410.724C190.038 408.371 189.333 405.695 189.333 402.754C189.333 399.812 190.038 397.136 191.48 394.783C192.921 392.43 194.862 390.607 197.303 389.283C199.774 387.96 202.45 387.312 205.391 387.312C208.332 387.312 211.038 387.96 213.509 389.283C215.979 390.607 217.891 392.43 219.332 394.783C220.744 397.136 221.45 399.783 221.45 402.754C221.45 405.724 220.744 408.371 219.332 410.724C217.921 413.077 215.979 414.93 213.509 416.253C211.038 417.577 208.332 418.224 205.391 418.224C202.45 418.224 199.774 417.577 197.303 416.253ZM210.95 412.577C212.568 411.665 213.862 410.371 214.774 408.665C215.685 406.959 216.156 405.018 216.156 402.783C216.156 400.548 215.685 398.607 214.774 396.901C213.862 395.224 212.568 393.93 210.95 393.018C209.332 392.107 207.479 391.665 205.391 391.665C203.303 391.665 201.45 392.107 199.832 393.018C198.215 393.93 196.921 395.195 196.009 396.901C195.097 398.577 194.627 400.548 194.627 402.783C194.627 405.018 195.097 406.989 196.009 408.665C196.921 410.371 198.215 411.665 199.832 412.577C201.45 413.489 203.303 413.959 205.391 413.959C207.479 413.959 209.332 413.489 210.95 412.577Z" fill="#000035"/>
<path d="M252.335 417.932H247.188L231.658 395.344V417.932H226.511V387.668H231.658L247.188 410.197V387.668H252.335V417.932Z" fill="#000035"/>
<path d="M259.54 394.783C260.981 392.43 262.922 390.607 265.364 389.283C267.834 387.96 270.511 387.312 273.452 387.312C276.805 387.312 279.775 388.107 282.393 389.695C285.011 391.283 286.893 393.518 288.069 396.401H281.863C281.04 394.812 279.922 393.607 278.481 392.842C277.04 392.048 275.364 391.665 273.452 391.665C271.364 391.665 269.511 392.107 267.893 393.018C266.275 393.93 264.981 395.195 264.069 396.901C263.158 398.577 262.687 400.548 262.687 402.783C262.687 405.018 263.158 406.959 264.069 408.665C264.981 410.342 266.275 411.636 267.893 412.548C269.511 413.459 271.364 413.93 273.452 413.93C275.364 413.93 277.04 413.548 278.481 412.754C279.922 411.959 281.069 410.783 281.863 409.195H288.069C286.893 412.106 285.011 414.342 282.393 415.901C279.775 417.459 276.805 418.253 273.452 418.253C270.481 418.253 267.805 417.606 265.364 416.283C262.922 414.959 260.981 413.136 259.54 410.783C258.099 408.43 257.393 405.783 257.393 402.812C257.393 399.842 258.099 397.195 259.54 394.842V394.783Z" fill="#000035"/>
<path d="M314.399 387.691V391.75H306.016V417.926H300.869V391.75H292.458V387.691H314.399Z" fill="#000035"/>
<path d="M325.864 416.253C323.394 414.93 321.452 413.106 320.041 410.724C318.599 408.371 317.894 405.695 317.894 402.754C317.894 399.812 318.599 397.136 320.041 394.783C321.482 392.43 323.423 390.607 325.864 389.283C328.335 387.96 331.011 387.312 333.952 387.312C336.893 387.312 339.599 387.96 342.07 389.283C344.54 390.607 346.452 392.43 347.893 394.783C349.305 397.136 350.011 399.783 350.011 402.754C350.011 405.724 349.305 408.371 347.893 410.724C346.482 413.077 344.54 414.93 342.07 416.253C339.599 417.577 336.893 418.224 333.952 418.224C331.011 418.224 328.335 417.577 325.864 416.253ZM339.511 412.577C341.129 411.665 342.423 410.371 343.335 408.665C344.246 406.959 344.717 405.018 344.717 402.783C344.717 400.548 344.246 398.607 343.335 396.901C342.423 395.224 341.129 393.93 339.511 393.018C337.893 392.107 336.04 391.665 333.952 391.665C331.864 391.665 330.011 392.107 328.393 393.018C326.776 393.93 325.482 395.195 324.57 396.901C323.658 398.577 323.188 400.548 323.188 402.783C323.188 405.018 323.658 406.989 324.57 408.665C325.482 410.371 326.776 411.665 328.393 412.577C330.011 413.489 331.864 413.959 333.952 413.959C336.04 413.959 337.893 413.489 339.511 412.577Z" fill="#000035"/>
<path d="M380.896 417.932H375.749L360.219 395.344V417.932H355.072V387.668H360.219L375.749 410.197V387.668H380.896V417.932Z" fill="#000035"/>
</svg>
