<svg width="570" height="231" viewBox="0 0 570 231" fill="none" xmlns="http://www.w3.org/2000/svg">
<path d="M192.43 37.3047V72.0558H235.069V194.377H269.873V153.142H280.012V72.0558H323.103V37.3047H192.43Z" fill="white"/>
<path d="M269.878 149.484H224.825V194.374H269.878V149.484Z" fill="white"/>
<path d="M533.015 149.484H487.963V194.374H533.015V149.484Z" fill="white"/>
<path d="M522.727 37.3047V152.986H479.06V107.707L449.428 194.374H412.89L383.036 107.039V194.374H339.368V37.3047H392.17L431.605 139.344L470.148 37.3047H522.727Z" fill="white"/>
<path d="M116.791 36.4805C152.972 36.6455 183.445 60.9748 192.903 94.1605H163.43L163.431 94.1595H158.798C151.584 94.1595 146.62 90.0556 144.039 87.4745C143.857 87.2931 143.652 87.1199 143.428 86.9535C136.589 80.5917 127.501 76.6153 117.488 76.3505C115.655 76.352 113.235 76.1876 112.086 74.4195C107.421 74.871 102.98 76.0882 98.8918 77.9465C98.8143 79.4267 98.0093 80.8384 96.6258 81.6265C96.4723 81.7139 96.319 81.802 96.1668 81.8915C94.7938 82.6981 93.168 82.6932 91.8458 82.0225C88.1204 84.6932 84.8524 87.961 82.1818 91.6865C82.8523 93.0086 82.8585 94.6336 82.0518 96.0065C81.9624 96.1586 81.8742 96.312 81.7868 96.4655C80.9984 97.8492 79.5865 98.6554 78.1058 98.7325C76.2478 102.821 75.0302 107.262 74.5788 111.926C75.8226 112.735 76.6423 114.139 76.6318 115.732C76.6312 115.821 76.6308 115.911 76.6308 115.999C76.6308 116.088 76.6312 116.178 76.6318 116.266C76.6422 117.86 75.8228 119.265 74.5788 120.072C75.0303 124.738 76.2475 129.179 78.1058 133.267C79.5866 133.345 80.9985 134.15 81.7868 135.533C81.8742 135.687 81.9624 135.84 82.0518 135.992C82.8586 137.366 82.8531 138.991 82.1818 140.313C84.8525 144.039 88.1214 147.306 91.8468 149.976C93.169 149.306 94.794 149.3 96.1668 150.106C96.3192 150.196 96.4722 150.285 96.6258 150.372C98.0093 151.161 98.8134 152.572 98.8908 154.052C102.98 155.911 107.421 157.128 112.087 157.579C113.237 155.81 115.053 155.648 117.495 155.648C127.797 155.374 137.119 151.17 144.02 144.482C144.194 144.346 144.356 144.206 144.502 144.06C146.931 141.631 151.471 137.856 158.01 137.419H193.02C183.697 170.827 153.109 195.363 116.764 195.516C113.41 195.516 110.247 193.887 109.422 190.457C100.71 189.672 92.4313 187.38 84.8458 183.841C82.787 185.995 79.4533 186.553 76.7578 184.997C76.5674 184.888 76.3772 184.777 76.1878 184.665C73.5056 183.088 72.3463 179.913 73.2038 177.059C66.2516 172.116 60.181 166.004 55.2748 159.009C52.417 159.85 49.2495 158.671 47.6878 155.979C47.5776 155.789 47.4675 155.598 47.3588 155.407C45.8197 152.703 46.3966 149.374 48.5618 147.327C45.0674 139.733 42.8037 131.449 42.0288 122.736C39.135 122.039 36.9789 119.44 36.9658 116.33V115.668C36.9785 112.559 39.1349 109.961 42.0288 109.263C42.8036 100.551 45.0676 92.268 48.5618 84.6735C46.3955 82.6274 45.8195 79.2955 47.3588 76.5905C47.4675 76.3995 47.5776 76.2084 47.6878 76.0185C49.2498 73.3268 52.4175 72.1484 55.2758 72.9895C60.1818 65.9956 66.2522 59.8849 73.2038 54.9415C72.3446 52.0878 73.5049 48.9117 76.1878 47.3335C76.3771 47.2221 76.5675 47.1113 76.7578 47.0015C79.454 45.4458 82.7889 46.0036 84.8478 48.1585C92.4329 44.6205 100.711 42.3286 109.422 41.5435C110.247 38.1056 113.023 36.4803 116.791 36.4805ZM96.8458 175.519C93.4249 176.838 89.9911 177.814 86.6418 178.535C86.716 179.2 86.69 179.878 86.5578 180.547C93.6786 183.849 101.438 185.996 109.599 186.75C109.652 186.595 109.71 186.441 109.775 186.291C107.11 183.741 104.508 180.886 102.134 177.699C101.532 177.759 100.909 177.715 100.289 177.555C100.184 177.528 100.078 177.501 99.9728 177.473C99.8672 177.446 99.7611 177.417 99.6558 177.388C98.4952 177.077 97.5289 176.402 96.8458 175.519ZM114.771 164.393C112.169 166.838 109.427 168.914 106.607 170.675C106.944 171.632 107.011 172.696 106.739 173.751C106.513 174.627 106.079 175.395 105.506 176.016C107.573 178.727 109.824 181.19 112.145 183.426C113.211 182.703 114.498 182.282 115.883 182.287H116.421V164.527C116.334 164.528 116.247 164.528 116.16 164.528C116.051 164.528 115.942 164.528 115.833 164.527C115.467 164.525 115.111 164.478 114.771 164.393ZM90.3038 156.712C87.0045 157.623 83.7503 158.174 80.5658 158.432C80.3993 159.484 79.9167 160.496 79.1138 161.312C78.5354 161.901 77.8528 162.326 77.1248 162.586C77.6993 165.988 78.5556 169.252 79.5818 172.343C80.7115 172.349 81.8549 172.641 82.8988 173.255C83.0563 173.348 83.2145 173.44 83.3728 173.531C84.0817 173.941 84.6849 174.462 85.1758 175.059C88.6589 174.344 92.2191 173.351 95.7428 171.975C95.7634 171.619 95.8207 171.259 95.9168 170.901C96.0989 170.224 96.4054 169.613 96.8038 169.085C95.1779 165.836 93.8264 162.317 92.8568 158.511C92.6235 158.426 92.3939 158.32 92.1708 158.193C91.9822 158.086 91.7938 157.977 91.6068 157.867C91.0855 157.561 90.6484 157.166 90.3038 156.712ZM59.0258 156.163C58.841 156.46 58.6317 156.744 58.3988 157.01C63.0165 163.563 68.7108 169.296 75.2228 173.947C75.4737 173.731 75.7389 173.536 76.0158 173.361C74.8927 169.954 73.9586 166.322 73.3588 162.513C72.7303 162.261 72.1402 161.881 71.6268 161.376C71.4717 161.224 71.3163 161.07 71.1628 160.916C70.4077 160.159 69.93 159.228 69.7288 158.253C65.9922 157.842 62.4085 157.102 59.0258 156.163ZM97.5358 157.508C97.2544 157.782 96.942 158.016 96.6068 158.204C97.4583 161.374 98.5964 164.332 99.9518 167.092C100.739 166.928 101.575 166.94 102.405 167.162C102.493 167.186 102.581 167.21 102.669 167.233C102.757 167.257 102.847 167.28 102.935 167.302C103.386 167.419 103.807 167.591 104.196 167.807C106.841 166.193 109.409 164.292 111.844 162.054C111.715 161.8 111.61 161.532 111.531 161.252C106.589 160.753 101.882 159.461 97.5358 157.508ZM79.2868 142.633C78.7035 142.783 78.1042 142.81 77.5238 142.725C76.8119 145.905 76.4474 149.033 76.3628 152.087C77.2056 152.327 78.0014 152.777 78.6638 153.441C78.7916 153.57 78.9207 153.698 79.0498 153.824C79.3467 154.116 79.6004 154.436 79.8138 154.773C82.9768 154.545 86.2055 154.01 89.4748 153.096C89.4899 153.022 89.5068 152.947 89.5258 152.872C85.5926 150.026 82.1329 146.567 79.2868 142.633ZM63.7588 135.35C63.1346 135.978 62.3446 136.459 61.4308 136.714C60.7896 136.893 60.1424 136.946 59.5168 136.887C58.197 140.052 57.1855 143.252 56.4058 146.395C57.3977 146.964 58.2564 147.795 58.8628 148.86C58.9533 149.019 59.045 149.178 59.1368 149.336C59.7331 150.364 60.0194 151.486 60.0288 152.595C63.2931 153.5 66.7301 154.204 70.2968 154.586C70.53 154.172 70.8232 153.781 71.1768 153.428C71.617 152.99 72.1157 152.646 72.6468 152.394C72.7245 148.534 73.2175 144.549 74.2498 140.481C74.1542 140.318 74.0597 140.153 73.9658 139.988C73.8762 139.831 73.7976 139.67 73.7288 139.507C70.1373 138.428 66.8207 137.011 63.7588 135.35ZM47.0848 121.92C46.6643 122.183 46.2117 122.399 45.7348 122.562C46.4795 130.732 48.6014 138.502 51.8638 145.634C52.1761 145.575 52.4901 145.539 52.8038 145.524C53.6382 142.157 54.7339 138.704 56.1778 135.272C55.5954 134.664 55.1502 133.907 54.9078 133.038C54.8494 132.829 54.7911 132.618 54.7348 132.408C54.4535 131.358 54.5095 130.297 54.8348 129.339C51.9665 127.003 49.3915 124.486 47.0848 121.92ZM70.3208 120.416C67.9514 122.818 65.9265 125.37 64.1948 128.013C64.5355 128.503 64.8005 129.058 64.9638 129.667C65.0107 129.842 65.0582 130.017 65.1068 130.191C65.2723 130.785 65.3283 131.383 65.2898 131.964C67.9511 133.426 70.8126 134.686 73.8888 135.676C74.088 135.295 74.3434 134.939 74.6508 134.623C72.6979 130.278 71.4063 125.569 70.9068 120.627C70.7054 120.571 70.5097 120.5 70.3208 120.416ZM56.6688 105.77C54.0397 107.977 51.667 110.352 49.5258 112.781C49.9618 113.669 50.2071 114.667 50.2028 115.722C50.2024 115.814 50.2018 115.907 50.2018 115.999C50.2018 116.092 50.2024 116.184 50.2028 116.276C50.2069 117.299 49.9787 118.269 49.5678 119.135C51.837 121.688 54.3628 124.178 57.1758 126.468C57.5749 126.235 58.0109 126.05 58.4788 125.924C59.3839 125.682 60.2967 125.691 61.1448 125.905C63.0285 123.04 65.2407 120.267 67.8398 117.656C67.707 117.237 67.635 116.79 67.6318 116.326C67.6311 116.218 67.6308 116.108 67.6308 115.999C67.6308 115.891 67.6311 115.781 67.6318 115.672C67.6352 115.167 67.7223 114.682 67.8788 114.229C65.4003 111.767 63.2692 109.159 61.4368 106.462C60.4928 106.785 59.4469 106.845 58.4088 106.577C57.7654 106.411 57.1804 106.133 56.6688 105.77ZM73.7768 96.0935C70.666 97.1162 67.7769 98.4152 65.0928 99.9185C65.23 100.668 65.2077 101.459 64.9968 102.243L64.8578 102.773C64.7349 103.25 64.5492 103.693 64.3148 104.099C66.0495 106.689 68.0708 109.187 70.4268 111.536C70.5826 111.473 70.7429 111.418 70.9068 111.371C71.4062 106.43 72.6981 101.722 74.6508 97.3765C74.2825 96.9982 73.9888 96.5628 73.7768 96.0935ZM51.8638 86.3655C48.6015 93.4984 46.4794 101.268 45.7348 109.437C46.1834 109.592 46.6107 109.791 47.0098 110.032C49.2665 107.498 51.7811 105.005 54.5818 102.683C54.386 101.869 54.3802 100.996 54.6038 100.128C54.631 100.023 54.6591 99.9168 54.6868 99.8115C54.7146 99.7061 54.7426 99.5996 54.7708 99.4945C55.0369 98.5047 55.5674 97.6564 56.2648 97.0045C54.7401 93.4842 53.5893 89.9343 52.7158 86.4715C52.4314 86.4547 52.1468 86.4198 51.8638 86.3655ZM69.6588 77.1855C66.3178 77.5909 63.095 78.2736 60.0258 79.1325C60.0644 80.3286 59.7816 81.5501 59.1368 82.6615C59.045 82.8198 58.9534 82.9793 58.8628 83.1385C58.2409 84.2309 57.355 85.0796 56.3308 85.6485C57.1638 88.9355 58.2526 92.2791 59.6848 95.5775C60.2027 95.558 60.7322 95.614 61.2588 95.7555C61.9869 95.9512 62.6377 96.2915 63.1908 96.7345C66.4492 94.9013 70.0023 93.3439 73.8748 92.1785C73.9038 92.1222 73.9342 92.0659 73.9658 92.0105C74.0404 91.8795 74.1161 91.7487 74.1918 91.6185C73.1562 87.675 72.6299 83.8085 72.5008 80.0555C71.9022 79.803 71.3394 79.4356 70.8478 78.9525C70.3197 78.4332 69.9228 77.8301 69.6588 77.1855ZM79.8218 76.8945C79.5638 77.4778 79.1968 78.0251 78.7178 78.5025C78.5895 78.6303 78.4619 78.7602 78.3348 78.8895C77.7224 79.5122 76.9931 79.9504 76.2168 80.2055C76.3353 83.1721 76.72 86.2059 77.4328 89.2875C78.0417 89.1857 78.6728 89.2092 79.2868 89.3665C82.1328 85.4331 85.5925 81.9736 89.5258 79.1275C89.4743 78.9263 89.4368 78.723 89.4138 78.5195C86.1676 77.629 82.9621 77.111 79.8218 76.8945ZM75.2228 58.0525C68.7108 62.7043 63.0164 68.4369 58.3988 74.9895C58.571 75.1868 58.7318 75.3923 58.8778 75.6065C62.2482 74.6561 65.8204 73.8964 69.5478 73.4645C69.7961 72.7362 70.2084 72.0509 70.7838 71.4655C70.9363 71.3104 71.0899 71.1559 71.2438 71.0025C71.7875 70.4607 72.4201 70.0631 73.0938 69.8065C73.6774 65.829 74.6327 62.0402 75.7928 58.4925C75.5958 58.3572 75.4056 58.21 75.2228 58.0525ZM85.4118 56.6345C84.8835 57.3593 84.1997 57.9894 83.3728 58.4665C83.2145 58.5578 83.0563 58.6498 82.8988 58.7425C81.772 59.4052 80.5291 59.695 79.3128 59.6515C78.2626 62.8635 77.3974 66.2587 76.8438 69.7985C77.532 70.0568 78.1781 70.4609 78.7308 71.0155C79.3598 71.6468 79.7952 72.3979 80.0398 73.1945C83.4705 73.4286 86.9842 73.9987 90.5508 74.9895C90.8497 74.6598 91.2029 74.3688 91.6068 74.1315C91.7939 74.0216 91.9822 73.9129 92.1708 73.8055C92.305 73.729 92.4416 73.6597 92.5798 73.5985C93.5058 69.8304 94.8063 66.3418 96.3778 63.1145C95.9604 62.5827 95.638 61.9612 95.4448 61.2695C95.2758 60.6637 95.2194 60.0526 95.2628 59.4595C91.9737 58.2204 88.6602 57.3052 85.4118 56.6345ZM104.367 63.8745C103.826 64.2937 103.195 64.6143 102.493 64.8025C102.318 64.8494 102.142 64.8968 101.968 64.9455C101.156 65.1719 100.336 65.1957 99.5608 65.0485C98.2751 67.7357 97.1943 70.6079 96.3838 73.6775C96.8037 73.8835 97.1927 74.1573 97.5358 74.4915C101.882 72.5385 106.589 71.247 111.531 70.7475C111.643 70.3507 111.808 69.9758 112.018 69.6315C109.582 67.392 107.014 65.4899 104.367 63.8745ZM111.859 48.3675C109.457 50.693 107.133 53.2615 105.011 56.0975C105.575 56.7077 106.006 57.459 106.236 58.3175C106.453 59.1297 106.469 59.9491 106.315 60.7215C109.387 62.5982 112.371 64.841 115.188 67.5225C115.398 67.4908 115.614 67.4729 115.833 67.4715C115.942 67.4707 116.051 67.4705 116.16 67.4705C116.247 67.4705 116.334 67.47 116.421 67.4705V49.7105C116.334 49.7101 116.247 49.7105 116.16 49.7105C116.068 49.7105 115.975 49.7111 115.883 49.7115C114.371 49.7176 112.976 49.2157 111.859 48.3675ZM109.598 45.2495C101.438 46.0039 93.6792 48.151 86.5588 51.4525C86.6678 52.0047 86.7043 52.5635 86.6718 53.1155C90.0009 53.8265 93.4146 54.788 96.8178 56.0865C97.4383 55.4703 98.2197 54.9983 99.1218 54.7465C99.331 54.6881 99.5409 54.6307 99.7508 54.5745C100.386 54.4043 101.024 54.3584 101.642 54.4195C104.111 51.0434 106.839 48.035 109.637 45.3605C109.623 45.3238 109.611 45.2864 109.598 45.2495Z" fill="white"/>
</svg>
