<svg width="570" height="230" viewBox="0 0 570 230" fill="none" xmlns="http://www.w3.org/2000/svg">
<rect width="570" height="230" transform="translate(-0.00878906)" fill="white"/>
<path d="M192.43 36.3047V71.0558H235.069V193.377H269.873V152.142H280.012V71.0558H323.103V36.3047H192.43Z" fill="#005AFF"/>
<path d="M269.878 148.484H224.825V193.374H269.878V148.484Z" fill="#005AFF"/>
<path d="M533.015 148.484H487.963V193.374H533.015V148.484Z" fill="#005AFF"/>
<path d="M522.727 36.3047V151.986H479.06V106.707L449.428 193.374H412.89L383.036 106.039V193.374H339.368V36.3047H392.17L431.605 138.344L470.148 36.3047H522.727Z" fill="#005AFF"/>
<path d="M116.791 35.4805C152.972 35.6455 183.445 59.9748 192.903 93.1605H163.43L163.431 93.1595H158.798C151.584 93.1595 146.62 89.0556 144.039 86.4745C143.857 86.2931 143.652 86.1199 143.428 85.9535C136.589 79.5917 127.501 75.6153 117.488 75.3505C115.655 75.352 113.235 75.1876 112.086 73.4195C107.421 73.871 102.98 75.0882 98.8918 76.9465C98.8143 78.4267 98.0093 79.8384 96.6258 80.6265C96.4723 80.7139 96.319 80.802 96.1668 80.8915C94.7938 81.6981 93.168 81.6932 91.8458 81.0225C88.1204 83.6932 84.8524 86.961 82.1818 90.6865C82.8523 92.0086 82.8585 93.6336 82.0518 95.0065C81.9624 95.1586 81.8742 95.312 81.7868 95.4655C80.9984 96.8492 79.5865 97.6554 78.1058 97.7325C76.2478 101.821 75.0302 106.262 74.5788 110.926C75.8226 111.735 76.6423 113.139 76.6318 114.732C76.6312 114.821 76.6308 114.911 76.6308 114.999C76.6308 115.088 76.6312 115.178 76.6318 115.266C76.6422 116.86 75.8228 118.265 74.5788 119.072C75.0303 123.738 76.2475 128.179 78.1058 132.267C79.5866 132.345 80.9985 133.15 81.7868 134.533C81.8742 134.687 81.9624 134.84 82.0518 134.992C82.8586 136.366 82.8531 137.991 82.1818 139.313C84.8525 143.039 88.1214 146.306 91.8468 148.976C93.169 148.306 94.794 148.3 96.1668 149.106C96.3192 149.196 96.4722 149.285 96.6258 149.372C98.0093 150.161 98.8134 151.572 98.8908 153.052C102.98 154.911 107.421 156.128 112.087 156.579C113.237 154.81 115.053 154.648 117.495 154.648C127.797 154.374 137.119 150.17 144.02 143.482C144.194 143.346 144.356 143.206 144.502 143.06C146.931 140.631 151.471 136.856 158.01 136.419H193.02C183.697 169.827 153.109 194.363 116.764 194.516C113.41 194.516 110.247 192.887 109.422 189.457C100.71 188.672 92.4313 186.38 84.8458 182.841C82.787 184.995 79.4533 185.553 76.7578 183.997C76.5674 183.888 76.3772 183.777 76.1878 183.665C73.5056 182.088 72.3463 178.913 73.2038 176.059C66.2516 171.116 60.181 165.004 55.2748 158.009C52.417 158.85 49.2495 157.671 47.6878 154.979C47.5776 154.789 47.4675 154.598 47.3588 154.407C45.8197 151.703 46.3966 148.374 48.5618 146.327C45.0674 138.733 42.8037 130.449 42.0288 121.736C39.135 121.039 36.9789 118.44 36.9658 115.33V114.668C36.9785 111.559 39.1349 108.961 42.0288 108.263C42.8036 99.5509 45.0676 91.268 48.5618 83.6735C46.3955 81.6274 45.8195 78.2955 47.3588 75.5905C47.4675 75.3995 47.5776 75.2084 47.6878 75.0185C49.2498 72.3268 52.4175 71.1484 55.2758 71.9895C60.1818 64.9956 66.2522 58.8849 73.2038 53.9415C72.3446 51.0878 73.5049 47.9117 76.1878 46.3335C76.3771 46.2221 76.5675 46.1113 76.7578 46.0015C79.454 44.4458 82.7889 45.0036 84.8478 47.1585C92.4329 43.6205 100.711 41.3286 109.422 40.5435C110.247 37.1056 113.023 35.4803 116.791 35.4805ZM96.8458 174.519C93.4249 175.838 89.9911 176.814 86.6418 177.535C86.716 178.2 86.69 178.878 86.5578 179.547C93.6786 182.849 101.438 184.996 109.599 185.75C109.652 185.595 109.71 185.441 109.775 185.291C107.11 182.741 104.508 179.886 102.134 176.699C101.532 176.759 100.909 176.715 100.289 176.555C100.184 176.528 100.078 176.501 99.9728 176.473C99.8672 176.446 99.7611 176.417 99.6558 176.388C98.4952 176.077 97.5289 175.402 96.8458 174.519ZM114.771 163.393C112.169 165.838 109.427 167.914 106.607 169.675C106.944 170.632 107.011 171.696 106.739 172.751C106.513 173.627 106.079 174.395 105.506 175.016C107.573 177.727 109.824 180.19 112.145 182.426C113.211 181.703 114.498 181.282 115.883 181.287H116.421V163.527C116.334 163.528 116.247 163.528 116.16 163.528C116.051 163.528 115.942 163.528 115.833 163.527C115.467 163.525 115.111 163.478 114.771 163.393ZM90.3038 155.712C87.0045 156.623 83.7503 157.174 80.5658 157.432C80.3993 158.484 79.9167 159.496 79.1138 160.312C78.5354 160.901 77.8528 161.326 77.1248 161.586C77.6993 164.988 78.5556 168.252 79.5818 171.343C80.7115 171.349 81.8549 171.641 82.8988 172.255C83.0563 172.348 83.2145 172.44 83.3728 172.531C84.0817 172.941 84.6849 173.462 85.1758 174.059C88.6589 173.344 92.2191 172.351 95.7428 170.975C95.7634 170.619 95.8207 170.259 95.9168 169.901C96.0989 169.224 96.4054 168.613 96.8038 168.085C95.1779 164.836 93.8264 161.317 92.8568 157.511C92.6235 157.426 92.3939 157.32 92.1708 157.193C91.9822 157.086 91.7938 156.977 91.6068 156.867C91.0855 156.561 90.6484 156.166 90.3038 155.712ZM59.0258 155.163C58.841 155.46 58.6317 155.744 58.3988 156.01C63.0165 162.563 68.7108 168.296 75.2228 172.947C75.4737 172.731 75.7389 172.536 76.0158 172.361C74.8927 168.954 73.9586 165.322 73.3588 161.513C72.7303 161.261 72.1402 160.881 71.6268 160.376C71.4717 160.224 71.3163 160.07 71.1628 159.916C70.4077 159.159 69.93 158.228 69.7288 157.253C65.9922 156.842 62.4085 156.102 59.0258 155.163ZM97.5358 156.508C97.2544 156.782 96.942 157.016 96.6068 157.204C97.4583 160.374 98.5964 163.332 99.9518 166.092C100.739 165.928 101.575 165.94 102.405 166.162C102.493 166.186 102.581 166.21 102.669 166.233C102.757 166.257 102.847 166.28 102.935 166.302C103.386 166.419 103.807 166.591 104.196 166.807C106.841 165.193 109.409 163.292 111.844 161.054C111.715 160.8 111.61 160.532 111.531 160.252C106.589 159.753 101.882 158.461 97.5358 156.508ZM79.2868 141.633C78.7035 141.783 78.1042 141.81 77.5238 141.725C76.8119 144.905 76.4474 148.033 76.3628 151.087C77.2056 151.327 78.0014 151.777 78.6638 152.441C78.7916 152.57 78.9207 152.698 79.0498 152.824C79.3467 153.116 79.6004 153.436 79.8138 153.773C82.9768 153.545 86.2055 153.01 89.4748 152.096C89.4899 152.022 89.5068 151.947 89.5258 151.872C85.5926 149.026 82.1329 145.567 79.2868 141.633ZM63.7588 134.35C63.1346 134.978 62.3446 135.459 61.4308 135.714C60.7896 135.893 60.1424 135.946 59.5168 135.887C58.197 139.052 57.1855 142.252 56.4058 145.395C57.3977 145.964 58.2564 146.795 58.8628 147.86C58.9533 148.019 59.045 148.178 59.1368 148.336C59.7331 149.364 60.0194 150.486 60.0288 151.595C63.2931 152.5 66.7301 153.204 70.2968 153.586C70.53 153.172 70.8232 152.781 71.1768 152.428C71.617 151.99 72.1157 151.646 72.6468 151.394C72.7245 147.534 73.2175 143.549 74.2498 139.481C74.1542 139.318 74.0597 139.153 73.9658 138.988C73.8762 138.831 73.7976 138.67 73.7288 138.507C70.1373 137.428 66.8207 136.011 63.7588 134.35ZM47.0848 120.92C46.6643 121.183 46.2117 121.399 45.7348 121.562C46.4795 129.732 48.6014 137.502 51.8638 144.634C52.1761 144.575 52.4901 144.539 52.8038 144.524C53.6382 141.157 54.7339 137.704 56.1778 134.272C55.5954 133.664 55.1502 132.907 54.9078 132.038C54.8494 131.829 54.7911 131.618 54.7348 131.408C54.4535 130.358 54.5095 129.297 54.8348 128.339C51.9665 126.003 49.3915 123.486 47.0848 120.92ZM70.3208 119.416C67.9514 121.818 65.9265 124.37 64.1948 127.013C64.5355 127.503 64.8005 128.058 64.9638 128.667C65.0107 128.842 65.0582 129.017 65.1068 129.191C65.2723 129.785 65.3283 130.383 65.2898 130.964C67.9511 132.426 70.8126 133.686 73.8888 134.676C74.088 134.295 74.3434 133.939 74.6508 133.623C72.6979 129.278 71.4063 124.569 70.9068 119.627C70.7054 119.571 70.5097 119.5 70.3208 119.416ZM56.6688 104.77C54.0397 106.977 51.667 109.352 49.5258 111.781C49.9618 112.669 50.2071 113.667 50.2028 114.722C50.2024 114.814 50.2018 114.907 50.2018 114.999C50.2018 115.092 50.2024 115.184 50.2028 115.276C50.2069 116.299 49.9787 117.269 49.5678 118.135C51.837 120.688 54.3628 123.178 57.1758 125.468C57.5749 125.235 58.0109 125.05 58.4788 124.924C59.3839 124.682 60.2967 124.691 61.1448 124.905C63.0285 122.04 65.2407 119.267 67.8398 116.656C67.707 116.237 67.635 115.79 67.6318 115.326C67.6311 115.218 67.6308 115.108 67.6308 114.999C67.6308 114.891 67.6311 114.781 67.6318 114.672C67.6352 114.167 67.7223 113.682 67.8788 113.229C65.4003 110.767 63.2692 108.159 61.4368 105.462C60.4928 105.785 59.4469 105.845 58.4088 105.577C57.7654 105.411 57.1804 105.133 56.6688 104.77ZM73.7768 95.0935C70.666 96.1162 67.7769 97.4152 65.0928 98.9185C65.23 99.6678 65.2077 100.459 64.9968 101.243L64.8578 101.773C64.7349 102.25 64.5492 102.693 64.3148 103.099C66.0495 105.689 68.0708 108.187 70.4268 110.536C70.5826 110.473 70.7429 110.418 70.9068 110.371C71.4062 105.43 72.6981 100.722 74.6508 96.3765C74.2825 95.9982 73.9888 95.5628 73.7768 95.0935ZM51.8638 85.3655C48.6015 92.4984 46.4794 100.268 45.7348 108.437C46.1834 108.592 46.6107 108.791 47.0098 109.032C49.2665 106.498 51.7811 104.005 54.5818 101.683C54.386 100.869 54.3802 99.996 54.6038 99.1285C54.631 99.0231 54.6591 98.9168 54.6868 98.8115C54.7146 98.7061 54.7426 98.5996 54.7708 98.4945C55.0369 97.5047 55.5674 96.6564 56.2648 96.0045C54.7401 92.4842 53.5893 88.9343 52.7158 85.4715C52.4314 85.4547 52.1468 85.4198 51.8638 85.3655ZM69.6588 76.1855C66.3178 76.5909 63.095 77.2736 60.0258 78.1325C60.0644 79.3286 59.7816 80.5501 59.1368 81.6615C59.045 81.8198 58.9534 81.9793 58.8628 82.1385C58.2409 83.2309 57.355 84.0796 56.3308 84.6485C57.1638 87.9355 58.2526 91.2791 59.6848 94.5775C60.2027 94.558 60.7322 94.614 61.2588 94.7555C61.9869 94.9512 62.6377 95.2915 63.1908 95.7345C66.4492 93.9013 70.0023 92.3439 73.8748 91.1785C73.9038 91.1222 73.9342 91.0659 73.9658 91.0105C74.0404 90.8795 74.1161 90.7487 74.1918 90.6185C73.1562 86.675 72.6299 82.8085 72.5008 79.0555C71.9022 78.803 71.3394 78.4356 70.8478 77.9525C70.3197 77.4332 69.9228 76.8301 69.6588 76.1855ZM79.8218 75.8945C79.5638 76.4778 79.1968 77.0251 78.7178 77.5025C78.5895 77.6303 78.4619 77.7602 78.3348 77.8895C77.7224 78.5122 76.9931 78.9504 76.2168 79.2055C76.3353 82.1721 76.72 85.2059 77.4328 88.2875C78.0417 88.1857 78.6728 88.2092 79.2868 88.3665C82.1328 84.4331 85.5925 80.9736 89.5258 78.1275C89.4743 77.9263 89.4368 77.723 89.4138 77.5195C86.1676 76.629 82.9621 76.111 79.8218 75.8945ZM75.2228 57.0525C68.7108 61.7043 63.0164 67.4369 58.3988 73.9895C58.571 74.1868 58.7318 74.3923 58.8778 74.6065C62.2482 73.6561 65.8204 72.8964 69.5478 72.4645C69.7961 71.7362 70.2084 71.0509 70.7838 70.4655C70.9363 70.3104 71.0899 70.1559 71.2438 70.0025C71.7875 69.4607 72.4201 69.0631 73.0938 68.8065C73.6774 64.829 74.6327 61.0402 75.7928 57.4925C75.5958 57.3572 75.4056 57.21 75.2228 57.0525ZM85.4118 55.6345C84.8835 56.3593 84.1997 56.9894 83.3728 57.4665C83.2145 57.5578 83.0563 57.6498 82.8988 57.7425C81.772 58.4052 80.5291 58.695 79.3128 58.6515C78.2626 61.8635 77.3974 65.2587 76.8438 68.7985C77.532 69.0568 78.1781 69.4609 78.7308 70.0155C79.3598 70.6468 79.7952 71.3979 80.0398 72.1945C83.4705 72.4286 86.9842 72.9987 90.5508 73.9895C90.8497 73.6598 91.2029 73.3688 91.6068 73.1315C91.7939 73.0216 91.9822 72.9129 92.1708 72.8055C92.305 72.729 92.4416 72.6597 92.5798 72.5985C93.5058 68.8304 94.8063 65.3418 96.3778 62.1145C95.9604 61.5827 95.638 60.9612 95.4448 60.2695C95.2758 59.6637 95.2194 59.0526 95.2628 58.4595C91.9737 57.2204 88.6602 56.3052 85.4118 55.6345ZM104.367 62.8745C103.826 63.2937 103.195 63.6143 102.493 63.8025C102.318 63.8494 102.142 63.8968 101.968 63.9455C101.156 64.1719 100.336 64.1957 99.5608 64.0485C98.2751 66.7357 97.1943 69.6079 96.3838 72.6775C96.8037 72.8835 97.1927 73.1573 97.5358 73.4915C101.882 71.5385 106.589 70.247 111.531 69.7475C111.643 69.3507 111.808 68.9758 112.018 68.6315C109.582 66.392 107.014 64.4899 104.367 62.8745ZM111.859 47.3675C109.457 49.693 107.133 52.2615 105.011 55.0975C105.575 55.7077 106.006 56.459 106.236 57.3175C106.453 58.1297 106.469 58.9491 106.315 59.7215C109.387 61.5982 112.371 63.841 115.188 66.5225C115.398 66.4908 115.614 66.4729 115.833 66.4715C115.942 66.4707 116.051 66.4705 116.16 66.4705C116.247 66.4705 116.334 66.47 116.421 66.4705V48.7105C116.334 48.7101 116.247 48.7105 116.16 48.7105C116.068 48.7105 115.975 48.7111 115.883 48.7115C114.371 48.7176 112.976 48.2157 111.859 47.3675ZM109.598 44.2495C101.438 45.0039 93.6792 47.151 86.5588 50.4525C86.6678 51.0047 86.7043 51.5635 86.6718 52.1155C90.0009 52.8265 93.4146 53.788 96.8178 55.0865C97.4383 54.4703 98.2197 53.9983 99.1218 53.7465C99.331 53.6881 99.5409 53.6307 99.7508 53.5745C100.386 53.4043 101.024 53.3584 101.642 53.4195C104.111 50.0434 106.839 47.035 109.637 44.3605C109.623 44.3238 109.611 44.2864 109.598 44.2495Z" fill="#005AFF"/>
</svg>
