<svg width="1100" height="1101" viewBox="0 0 1100 1101" fill="none" xmlns="http://www.w3.org/2000/svg">
<path d="M559.61 125.59C752.988 126.472 915.856 256.505 966.406 433.872H808.881L808.886 433.867H784.124C745.568 433.867 719.037 411.933 705.242 398.138C704.273 397.168 703.175 396.243 701.976 395.353C665.423 361.351 616.853 340.098 563.335 338.683C553.539 338.691 540.605 337.813 534.463 328.362C509.529 330.776 485.796 337.281 463.945 347.213C463.53 355.125 459.228 362.67 451.834 366.882C451.013 367.349 450.194 367.82 449.38 368.298C442.042 372.609 433.353 372.583 426.286 368.998C406.375 383.272 388.908 400.738 374.635 420.649C378.218 427.716 378.251 436.401 373.94 443.739C373.462 444.552 372.991 445.372 372.524 446.192C368.31 453.587 360.764 457.896 352.85 458.308C342.919 480.159 336.411 503.894 333.999 528.826C340.647 533.146 345.028 540.653 344.972 549.168C344.969 549.642 344.966 550.12 344.966 550.595C344.966 551.07 344.969 551.548 344.972 552.022C345.027 560.538 340.648 568.047 333.999 572.364C336.412 597.298 342.918 621.036 352.85 642.888C360.764 643.299 368.31 647.602 372.524 654.999C372.991 655.819 373.462 656.639 373.94 657.452C378.252 664.792 378.223 673.48 374.635 680.546C388.909 700.457 406.38 717.919 426.291 732.192C433.358 728.607 442.043 728.575 449.38 732.887C450.195 733.365 451.013 733.841 451.834 734.309C459.228 738.522 463.526 746.065 463.939 753.977C485.793 763.91 509.531 770.415 534.468 772.828C540.613 763.371 550.321 762.507 563.372 762.507C618.436 761.041 668.258 738.574 705.14 702.828C706.071 702.1 706.937 701.353 707.717 700.573C720.7 687.59 744.963 667.412 779.913 665.079H967.031C917.205 843.632 753.719 974.769 559.465 975.59C541.538 975.59 524.633 966.882 520.224 948.551C473.663 944.355 429.415 932.102 388.873 913.19C377.869 924.7 360.052 927.68 345.645 919.369C344.627 918.782 343.611 918.19 342.599 917.594C328.263 909.163 322.067 892.192 326.65 876.943C289.493 850.52 257.047 817.854 230.825 780.471C215.55 784.962 198.622 778.66 190.275 764.276C189.686 763.261 189.097 762.24 188.516 761.219C180.29 746.765 183.374 728.97 194.946 718.034C176.269 677.442 164.17 633.17 160.029 586.602C144.563 582.874 133.039 568.983 132.969 552.364V548.826C133.036 532.206 144.562 518.322 160.029 514.593C164.17 468.027 176.271 423.758 194.946 383.167C183.367 372.232 180.289 354.423 188.516 339.966C189.097 338.945 189.686 337.924 190.275 336.909C198.623 322.523 215.554 316.224 230.83 320.72C257.051 283.339 289.495 250.679 326.65 224.258C322.058 209.006 328.259 192.031 342.599 183.596C343.61 183.001 344.628 182.408 345.645 181.821C360.056 173.507 377.879 176.488 388.884 188.005C429.424 169.096 473.666 156.846 520.224 152.65C524.634 134.276 539.473 125.589 559.61 125.59ZM453.01 868.712C434.725 875.758 416.373 880.974 398.472 884.831C398.868 888.383 398.73 892.009 398.023 895.585C436.082 913.231 477.555 924.707 521.17 928.738C521.457 927.907 521.766 927.086 522.111 926.285C507.867 912.652 493.961 897.394 481.272 880.363C478.055 880.682 474.724 880.448 471.411 879.594C470.849 879.449 470.285 879.304 469.722 879.155C469.158 879.007 468.591 878.852 468.028 878.701C461.825 877.034 456.661 873.427 453.01 868.712ZM548.813 809.247C534.906 822.314 520.253 833.407 505.179 842.822C506.979 847.935 507.34 853.62 505.885 859.262C504.676 863.944 502.359 868.048 499.295 871.368C510.345 885.856 522.376 899.018 534.778 910.972C540.474 907.107 547.353 904.855 554.757 904.885H557.632V809.963C557.167 809.965 556.702 809.968 556.237 809.968C555.654 809.968 555.071 809.967 554.489 809.963C552.532 809.95 550.632 809.7 548.813 809.247ZM418.044 768.194C400.41 773.062 383.018 776.004 365.998 777.387C365.108 783.005 362.528 788.414 358.237 792.78C355.146 795.923 351.498 798.198 347.607 799.589C350.677 817.766 355.254 835.214 360.739 851.737C366.777 851.766 372.888 853.33 378.467 856.611C379.309 857.107 380.154 857.598 381 858.087C384.789 860.273 388.013 863.063 390.637 866.253C409.253 862.428 428.281 857.122 447.114 849.77C447.224 847.867 447.53 845.943 448.044 844.03C449.018 840.409 450.655 837.143 452.785 834.324C444.095 816.955 436.871 798.151 431.689 777.809C430.443 777.353 429.215 776.788 428.023 776.11C427.015 775.535 426.008 774.954 425.009 774.367C422.222 772.73 419.886 770.617 418.044 768.194ZM250.873 765.26C249.885 766.845 248.766 768.361 247.522 769.787C272.202 804.807 302.636 835.448 337.441 860.31C338.782 859.154 340.199 858.109 341.679 857.178C335.677 838.967 330.684 819.555 327.478 799.199C324.119 797.847 320.965 795.818 318.221 793.122C317.392 792.307 316.562 791.486 315.742 790.663C311.706 786.613 309.153 781.641 308.077 776.43C288.106 774.231 268.952 770.274 250.873 765.26ZM456.697 772.448C455.193 773.913 453.524 775.162 451.732 776.168C456.283 793.106 462.366 808.919 469.61 823.672C473.817 822.794 478.287 822.855 482.721 824.046C483.19 824.172 483.661 824.302 484.132 824.426C484.603 824.55 485.082 824.673 485.553 824.794C487.963 825.416 490.218 826.335 492.293 827.494C506.433 818.865 520.155 808.705 533.169 796.745C532.482 795.386 531.918 793.951 531.496 792.459C505.086 789.789 479.924 782.886 456.697 772.448ZM359.162 692.946C356.044 693.745 352.841 693.891 349.739 693.438C345.934 710.431 343.986 727.148 343.534 743.475C348.039 744.753 352.292 747.159 355.832 750.712C356.515 751.397 357.205 752.08 357.895 752.759C359.482 754.318 360.838 756.028 361.979 757.831C378.884 756.611 396.14 753.752 413.614 748.868C413.694 748.468 413.785 748.067 413.886 747.67C392.864 732.459 374.373 713.968 359.162 692.946ZM276.169 654.021C272.833 657.377 268.611 659.947 263.727 661.311C260.3 662.267 256.841 662.547 253.497 662.235C246.443 679.151 241.037 696.25 236.87 713.053C242.171 716.09 246.761 720.533 250.002 726.227C250.485 727.077 250.976 727.926 251.466 728.772C254.653 734.265 256.183 740.263 256.234 746.19C273.68 751.026 292.05 754.789 311.113 756.831C312.359 754.614 313.926 752.526 315.816 750.642C318.169 748.298 320.834 746.461 323.673 745.116C324.088 724.482 326.723 703.186 332.241 681.444C331.729 680.57 331.224 679.69 330.723 678.809C330.244 677.969 329.824 677.108 329.456 676.238C310.261 670.471 292.534 662.898 276.169 654.021ZM187.052 582.241C184.804 583.645 182.385 584.797 179.836 585.672C183.817 629.338 195.157 670.863 212.594 708.985C214.263 708.665 215.941 708.474 217.618 708.398C222.078 690.4 227.934 671.944 235.651 653.604C232.538 650.35 230.159 646.303 228.863 641.664C228.551 640.545 228.24 639.419 227.939 638.296C226.435 632.684 226.734 627.011 228.473 621.894C213.143 609.406 199.38 595.955 187.052 582.241ZM311.241 574.203C298.577 587.036 287.755 600.678 278.5 614.806C280.32 617.422 281.737 620.391 282.61 623.647C282.86 624.58 283.114 625.517 283.374 626.447C284.259 629.617 284.558 632.816 284.352 635.923C298.576 643.736 313.87 650.468 330.311 655.763C331.376 653.722 332.741 651.823 334.384 650.135C323.946 626.907 317.043 601.742 314.373 575.33C313.297 575.027 312.251 574.647 311.241 574.203ZM238.275 495.924C224.224 507.718 211.542 520.412 200.098 533.396C202.428 538.138 203.739 543.473 203.717 549.115C203.715 549.607 203.711 550.103 203.711 550.595C203.711 551.088 203.715 551.584 203.717 552.076C203.738 557.542 202.518 562.726 200.323 567.356C212.451 581 225.95 594.305 240.985 606.549C243.118 605.303 245.448 604.312 247.949 603.641C252.787 602.345 257.666 602.392 262.198 603.54C272.266 588.227 284.09 573.406 297.981 559.451C297.271 557.209 296.886 554.819 296.869 552.343C296.866 551.762 296.864 551.177 296.864 550.595C296.864 550.013 296.866 549.428 296.869 548.847C296.887 546.147 297.353 543.553 298.19 541.135C284.943 527.976 273.552 514.033 263.759 499.623C258.714 501.345 253.124 501.668 247.575 500.237C244.136 499.35 241.01 497.864 238.275 495.924ZM329.713 444.204C313.086 449.67 297.645 456.613 283.299 464.647C284.032 468.652 283.913 472.88 282.786 477.073L282.043 479.906C281.386 482.451 280.394 484.823 279.141 486.993C288.412 500.833 299.215 514.183 311.808 526.742C312.64 526.401 313.497 526.107 314.373 525.86C317.042 499.449 323.947 474.288 334.384 451.061C332.415 449.039 330.846 446.712 329.713 444.204ZM212.594 392.21C195.158 430.334 183.816 471.858 179.836 515.523C182.234 516.347 184.518 517.411 186.651 518.703C198.712 505.159 212.152 491.835 227.121 479.425C226.075 475.073 226.043 470.406 227.239 465.769C227.384 465.206 227.534 464.638 227.682 464.075C227.831 463.512 227.98 462.943 228.131 462.381C229.553 457.091 232.389 452.557 236.116 449.073C227.967 430.258 221.817 411.285 217.148 392.777C215.628 392.687 214.107 392.5 212.594 392.21ZM307.703 343.146C289.846 345.313 272.621 348.961 256.218 353.552C256.424 359.945 254.912 366.474 251.466 372.414C250.975 373.26 250.486 374.112 250.002 374.963C246.678 380.802 241.943 385.338 236.469 388.378C240.921 405.947 246.74 423.817 254.395 441.446C257.163 441.342 259.993 441.641 262.808 442.397C266.699 443.443 270.177 445.262 273.134 447.63C290.549 437.832 309.539 429.508 330.236 423.279C330.391 422.979 330.554 422.678 330.723 422.381C331.121 421.681 331.526 420.982 331.931 420.286C326.396 399.209 323.582 378.544 322.893 358.485C319.693 357.136 316.685 355.172 314.058 352.59C311.235 349.815 309.114 346.591 307.703 343.146ZM362.021 341.591C360.642 344.709 358.681 347.634 356.121 350.185C355.435 350.868 354.753 351.563 354.074 352.253C350.8 355.582 346.903 357.923 342.754 359.287C343.387 375.143 345.443 391.357 349.253 407.828C352.507 407.283 355.88 407.409 359.162 408.25C374.373 387.227 392.864 368.737 413.886 353.525C413.611 352.45 413.411 351.363 413.288 350.276C395.937 345.517 378.805 342.748 362.021 341.591ZM337.441 240.886C302.636 265.749 272.202 296.388 247.522 331.409C248.442 332.464 249.301 333.562 250.082 334.707C268.096 329.627 287.188 325.567 307.11 323.258C308.437 319.366 310.64 315.703 313.716 312.574C314.531 311.745 315.352 310.92 316.174 310.1C319.08 307.204 322.461 305.079 326.062 303.707C329.181 282.449 334.287 262.199 340.487 243.237C339.435 242.515 338.418 241.728 337.441 240.886ZM391.898 233.307C389.074 237.181 385.42 240.548 381 243.098C380.154 243.587 379.309 244.079 378.467 244.574C372.444 248.116 365.802 249.665 359.301 249.432C353.688 266.599 349.064 284.746 346.105 303.665C349.783 305.045 353.236 307.205 356.19 310.169C359.552 313.543 361.879 317.558 363.186 321.815C381.522 323.067 400.302 326.114 419.365 331.409C420.962 329.647 422.85 328.092 425.009 326.823C426.008 326.236 427.015 325.655 428.023 325.081C428.74 324.672 429.47 324.302 430.209 323.974C435.158 303.836 442.109 285.19 450.508 267.941C448.277 265.098 446.554 261.777 445.522 258.08C444.618 254.842 444.317 251.576 444.549 248.406C426.969 241.783 409.26 236.892 391.898 233.307ZM493.207 272.003C490.319 274.243 486.943 275.957 483.191 276.962C482.255 277.213 481.318 277.466 480.385 277.727C476.047 278.937 471.664 279.064 467.52 278.277C460.649 292.64 454.872 307.991 450.54 324.397C452.784 325.498 454.863 326.961 456.697 328.747C479.925 318.309 505.085 311.406 531.496 308.737C532.095 306.616 532.977 304.612 534.099 302.772C521.08 290.803 507.353 280.637 493.207 272.003ZM533.25 189.122C520.412 201.552 507.989 215.28 496.649 230.437C499.665 233.698 501.966 237.714 503.196 242.302C504.359 246.643 504.442 251.023 503.618 255.151C520.04 265.181 535.988 277.168 551.042 291.5C552.168 291.331 553.318 291.235 554.489 291.228C555.071 291.224 555.654 291.222 556.237 291.222C556.702 291.222 557.167 291.22 557.632 291.222V196.3C557.168 196.298 556.702 196.3 556.237 196.3C555.744 196.3 555.249 196.304 554.757 196.306C546.678 196.338 539.223 193.656 533.25 189.122ZM521.165 172.458C477.552 176.49 436.085 187.965 398.029 205.611C398.611 208.562 398.806 211.549 398.633 214.499C416.426 218.299 434.67 223.438 452.86 230.378C456.176 227.085 460.353 224.562 465.174 223.216C466.292 222.904 467.414 222.598 468.536 222.297C471.928 221.388 475.343 221.142 478.643 221.468C491.839 203.425 506.423 187.345 521.374 173.051C521.302 172.855 521.233 172.655 521.165 172.458Z" fill="white"/>
<path d="M484.87 517.149C487.407 512.532 491.004 508.934 495.666 506.359C500.327 503.784 505.691 502.492 511.756 502.492C519.452 502.492 525.921 504.488 531.164 508.484C536.411 512.476 539.789 517.903 541.305 524.757H525.54C523.969 524.757 522.538 523.946 521.608 522.673C520.679 521.4 519.568 520.367 518.267 519.575C516.315 518.385 514.056 517.792 511.491 517.792C507.526 517.792 504.366 519.168 502.005 521.914C499.644 524.66 498.464 528.327 498.464 532.916C498.464 537.505 499.644 541.256 502.005 544.007C504.366 546.753 507.526 548.128 511.491 548.128C514.056 548.128 516.315 547.536 518.267 546.345C519.568 545.554 520.683 544.521 521.608 543.247C522.533 541.974 523.969 541.159 525.54 541.159H541.305C539.789 548.013 536.411 553.435 531.164 557.431C525.917 561.423 519.447 563.424 511.756 563.424C505.691 563.424 500.332 562.136 495.666 559.557C491 556.982 487.402 553.384 484.87 548.767C482.332 544.15 481.068 538.867 481.068 532.921C481.068 526.975 482.337 521.775 484.87 517.158V517.149Z" fill="white"/>
<path d="M634.165 503.086L612.917 562.989H590.971L569.639 503.086H588.001L601.99 546.333L615.891 503.086H634.165Z" fill="white"/>
<path d="M670.319 517.149C672.856 512.532 676.453 508.934 681.115 506.359C685.776 503.784 691.139 502.492 697.205 502.492C704.901 502.492 711.37 504.488 716.613 508.484C721.86 512.476 725.238 517.903 726.754 524.757H710.989C709.418 524.757 707.987 523.946 707.057 522.673C706.128 521.4 705.017 520.367 703.716 519.575C701.764 518.385 699.505 517.792 696.94 517.792C692.975 517.792 689.815 519.168 687.454 521.914C685.093 524.66 683.913 528.327 683.913 532.916C683.913 537.505 685.093 541.256 687.454 544.007C689.815 546.753 692.975 548.128 696.94 548.128C699.505 548.128 701.764 547.536 703.716 546.345C705.017 545.554 706.132 544.521 707.057 543.247C707.982 541.974 709.418 541.159 710.989 541.159H726.754C725.238 548.013 721.86 553.435 716.613 557.431C711.366 561.423 704.896 563.424 697.205 563.424C691.139 563.424 685.781 562.136 681.115 559.557C676.449 556.982 672.851 553.384 670.319 548.767C667.781 544.15 666.517 538.867 666.517 532.921C666.517 526.975 667.786 521.775 670.319 517.158V517.149Z" fill="white"/>
<path d="M814.81 516.427V526.198H834.483V538.859H814.81V549.648H837.104V562.989H797.669V503.086H837.104V516.427H814.81Z" fill="white"/>
<path d="M847.283 517.149C849.82 512.532 853.417 508.934 858.079 506.359C862.74 503.784 868.104 502.492 874.169 502.492C881.865 502.492 888.334 504.488 893.581 508.484C898.828 512.476 902.207 517.903 903.722 524.757H887.958C886.387 524.757 884.956 523.946 884.026 522.673C883.101 521.4 881.986 520.367 880.684 519.575C878.732 518.385 876.474 517.792 873.908 517.792C869.944 517.792 866.784 519.168 864.423 521.914C862.062 524.66 860.881 528.327 860.881 532.916C860.881 537.505 862.062 541.256 864.423 544.007C866.784 546.753 869.944 548.128 873.908 548.128C876.474 548.128 878.732 547.536 880.684 546.345C881.986 545.554 883.101 544.521 884.026 543.247C884.956 541.969 886.387 541.159 887.958 541.159H903.722C902.207 548.013 898.824 553.435 893.581 557.431C888.334 561.423 881.865 563.424 874.169 563.424C868.104 563.424 862.745 562.136 858.079 559.557C853.413 556.982 849.816 553.384 847.283 548.767C844.745 544.15 843.481 538.867 843.481 532.921C843.481 526.975 844.75 521.775 847.283 517.158V517.149Z" fill="white"/>
<path d="M967.031 503.086V562.989H949.896V538.942H929V562.989H911.865V503.086H929V525.601H949.896V503.086H967.031Z" fill="white"/>
<path d="M562.703 562.827V547.092H566.579V503.086H549.444V562.989H563.233L562.703 562.827Z" fill="white"/>
<path d="M562.698 545.867H545.516V562.987H562.698V545.867Z" fill="white"/>
<path d="M741.449 503.086V516.339H757.711V562.989H770.984V547.263H774.851V516.339H791.285V503.086H741.449Z" fill="white"/>
<path d="M770.985 545.867H753.803V562.987H770.985V545.867Z" fill="white"/>
<path d="M654.952 503.086H641.688V562.989H658.828V518.812H654.952V503.086Z" fill="white"/>
<path d="M654.947 503.086H637.765V520.206H654.947V503.086Z" fill="white"/>
<path d="M784.58 584.066V612.119H779.805V592.908L770.909 612.119H767.58L758.629 592.908V612.119H753.854V584.066H759.011L769.244 606.061L779.45 584.066H784.58Z" fill="white"/>
<path d="M796.694 610.567C794.402 609.339 792.601 607.647 791.291 605.437C789.954 603.253 789.299 600.77 789.299 598.041C789.299 595.312 789.954 592.829 791.291 590.646C792.628 588.463 794.429 586.771 796.694 585.543C798.986 584.315 801.47 583.715 804.198 583.715C806.927 583.715 809.438 584.315 811.73 585.543C814.022 586.771 815.796 588.463 817.133 590.646C818.443 592.829 819.098 595.285 819.098 598.041C819.098 600.798 818.443 603.253 817.133 605.437C815.823 607.62 814.022 609.339 811.73 610.567C809.438 611.795 806.927 612.395 804.198 612.395C801.47 612.395 798.986 611.795 796.694 610.567ZM809.356 607.156C810.857 606.31 812.058 605.109 812.903 603.526C813.749 601.944 814.186 600.143 814.186 598.069C814.186 595.995 813.749 594.194 812.903 592.611C812.058 591.055 810.857 589.855 809.356 589.009C807.855 588.163 806.136 587.754 804.198 587.754C802.261 587.754 800.542 588.163 799.041 589.009C797.54 589.855 796.339 591.028 795.493 592.611C794.647 594.166 794.211 595.995 794.211 598.069C794.211 600.143 794.647 601.971 795.493 603.526C796.339 605.109 797.54 606.31 799.041 607.156C800.542 608.002 802.261 608.438 804.198 608.438C806.136 608.438 807.855 608.002 809.356 607.156Z" fill="white"/>
<path d="M847.749 612.123H842.974L828.566 591.165V612.123H823.79V584.043H828.566L842.974 604.946V584.043H847.749V612.123Z" fill="white"/>
<path d="M854.437 590.646C855.774 588.463 857.575 586.771 859.84 585.543C862.132 584.315 864.615 583.715 867.344 583.715C870.455 583.715 873.211 584.452 875.64 585.925C878.069 587.399 879.815 589.473 880.907 592.147H875.149C874.385 590.673 873.348 589.555 872.01 588.845C870.673 588.108 869.118 587.754 867.344 587.754C865.407 587.754 863.687 588.163 862.187 589.009C860.686 589.855 859.485 591.028 858.639 592.611C857.793 594.166 857.357 595.995 857.357 598.069C857.357 600.143 857.793 601.944 858.639 603.526C859.485 605.082 860.686 606.283 862.187 607.128C863.687 607.974 865.407 608.411 867.344 608.411C869.118 608.411 870.673 608.056 872.01 607.319C873.348 606.583 874.412 605.491 875.149 604.018H880.907C879.815 606.719 878.069 608.793 875.64 610.239C873.211 611.686 870.455 612.422 867.344 612.422C864.588 612.422 862.105 611.822 859.84 610.594C857.575 609.366 855.774 607.674 854.437 605.491C853.099 603.308 852.445 600.852 852.445 598.096C852.445 595.34 853.099 592.884 854.437 590.701V590.646Z" fill="white"/>
<path d="M905.334 584.066V587.832H897.557V612.119H892.781V587.832H884.977V584.066H905.334Z" fill="white"/>
<path d="M915.973 610.567C913.681 609.339 911.88 607.647 910.57 605.437C909.233 603.253 908.578 600.77 908.578 598.041C908.578 595.312 909.233 592.829 910.57 590.646C911.907 588.463 913.708 586.771 915.973 585.543C918.265 584.315 920.748 583.715 923.477 583.715C926.206 583.715 928.717 584.315 931.009 585.543C933.301 586.771 935.075 588.463 936.412 590.646C937.722 592.829 938.377 595.285 938.377 598.041C938.377 600.798 937.722 603.253 936.412 605.437C935.102 607.62 933.301 609.339 931.009 610.567C928.717 611.795 926.206 612.395 923.477 612.395C920.748 612.395 918.265 611.795 915.973 610.567ZM928.635 607.156C930.136 606.31 931.336 605.109 932.182 603.526C933.028 601.944 933.465 600.143 933.465 598.069C933.465 595.995 933.028 594.194 932.182 592.611C931.336 591.055 930.136 589.855 928.635 589.009C927.134 588.163 925.415 587.754 923.477 587.754C921.54 587.754 919.821 588.163 918.32 589.009C916.819 589.855 915.618 591.028 914.772 592.611C913.926 594.166 913.49 595.995 913.49 598.069C913.49 600.143 913.926 601.971 914.772 603.526C915.618 605.109 916.819 606.31 918.32 607.156C919.821 608.002 921.54 608.438 923.477 608.438C925.415 608.438 927.134 608.002 928.635 607.156Z" fill="white"/>
<path d="M967.031 612.123H962.256L947.848 591.165V612.123H943.072V584.043H947.848L962.256 604.946V584.043H967.031V612.123Z" fill="white"/>
</svg>
