<svg width="500" height="501" viewBox="0 0 500 501" fill="none" xmlns="http://www.w3.org/2000/svg">
<rect width="500" height="500" transform="translate(0 0.589844)" fill="#000035"/>
<path d="M253.975 74.793C333.964 75.1577 401.332 128.944 422.241 202.31H357.083L357.085 202.308H346.843C330.895 202.308 319.92 193.235 314.214 187.529C313.813 187.128 313.359 186.745 312.863 186.377C297.743 172.313 277.653 163.522 255.516 162.936C251.464 162.94 246.114 162.577 243.573 158.667C233.26 159.666 223.443 162.357 214.404 166.465C214.233 169.737 212.453 172.858 209.395 174.601C209.055 174.794 208.716 174.989 208.38 175.186C205.345 176.97 201.75 176.959 198.827 175.476C190.591 181.38 183.366 188.605 177.462 196.841C178.945 199.764 178.958 203.356 177.175 206.391C176.977 206.728 176.782 207.067 176.589 207.406C174.846 210.465 171.725 212.248 168.451 212.418C164.344 221.456 161.652 231.274 160.654 241.587C163.404 243.374 165.216 246.479 165.193 250.001C165.191 250.197 165.19 250.395 165.19 250.591C165.19 250.788 165.191 250.985 165.193 251.182C165.215 254.704 163.404 257.81 160.654 259.596C161.652 269.91 164.343 279.728 168.451 288.767C171.725 288.937 174.846 290.717 176.589 293.777C176.782 294.116 176.977 294.455 177.175 294.791C178.959 297.828 178.946 301.421 177.462 304.344C183.367 312.58 190.593 319.803 198.829 325.707C201.752 324.224 205.345 324.211 208.38 325.994C208.717 326.192 209.055 326.389 209.395 326.582C212.453 328.325 214.231 331.445 214.402 334.718C223.442 338.827 233.261 341.517 243.576 342.515C246.117 338.604 250.133 338.246 255.531 338.246C278.308 337.64 298.916 328.346 314.172 313.561C314.557 313.26 314.915 312.95 315.238 312.628C320.608 307.258 330.644 298.911 345.101 297.946H422.5C401.89 371.803 334.266 426.046 253.915 426.385C246.5 426.385 239.507 422.784 237.684 415.201C218.424 413.465 200.122 408.397 183.352 400.575C178.8 405.336 171.43 406.568 165.471 403.13C165.05 402.887 164.63 402.643 164.211 402.396C158.281 398.909 155.718 391.889 157.614 385.581C142.244 374.652 128.824 361.14 117.977 345.677C111.659 347.535 104.657 344.928 101.204 338.978C100.96 338.558 100.717 338.136 100.477 337.714C97.0739 331.735 98.3493 324.374 103.136 319.851C95.4107 303.06 90.4062 284.747 88.6931 265.485C82.2956 263.943 77.5289 258.197 77.5 251.323V249.86C77.5279 242.985 82.2953 237.242 88.6931 235.7C90.4059 216.438 95.4113 198.127 103.136 181.337C98.3468 176.813 97.0734 169.447 100.477 163.467C100.717 163.045 100.96 162.622 101.204 162.203C104.657 156.252 111.66 153.647 117.979 155.506C128.825 140.044 142.245 126.535 157.614 115.606C155.714 109.297 158.28 102.276 164.211 98.7865C164.629 98.5403 165.05 98.2953 165.471 98.0525C171.432 94.6133 178.804 95.8464 183.356 100.61C200.125 92.7886 218.426 87.7218 237.684 85.9861C239.508 78.3858 245.646 74.7925 253.975 74.793ZM209.881 382.177C202.318 385.091 194.727 387.249 187.322 388.844C187.486 390.313 187.429 391.813 187.137 393.292C202.879 400.592 220.034 405.338 238.075 407.006C238.193 406.662 238.322 406.323 238.464 405.991C232.572 400.352 226.82 394.041 221.572 386.996C220.241 387.128 218.863 387.031 217.493 386.678C217.26 386.618 217.027 386.558 216.794 386.496C216.561 386.435 216.326 386.371 216.093 386.309C213.527 385.619 211.391 384.127 209.881 382.177ZM249.509 357.58C243.757 362.985 237.695 367.573 231.46 371.468C232.205 373.582 232.354 375.934 231.752 378.268C231.253 380.204 230.294 381.902 229.026 383.275C233.597 389.268 238.574 394.712 243.704 399.657C246.06 398.058 248.905 397.127 251.968 397.139H253.157V357.876C252.965 357.877 252.772 357.878 252.58 357.878C252.339 357.878 252.098 357.877 251.857 357.876C251.048 357.87 250.261 357.767 249.509 357.58ZM195.418 340.599C188.124 342.612 180.93 343.829 173.89 344.401C173.522 346.725 172.455 348.962 170.68 350.768C169.401 352.069 167.892 353.009 166.282 353.585C167.553 361.104 169.446 368.32 171.714 375.155C174.212 375.167 176.74 375.814 179.047 377.171C179.396 377.376 179.745 377.58 180.095 377.782C181.663 378.686 182.996 379.84 184.081 381.16C191.782 379.577 199.652 377.382 207.443 374.342C207.488 373.555 207.615 372.759 207.827 371.967C208.23 370.469 208.907 369.118 209.788 367.953C206.194 360.768 203.206 352.99 201.062 344.576C200.547 344.387 200.039 344.154 199.546 343.873C199.129 343.635 198.712 343.395 198.299 343.152C197.146 342.475 196.18 341.601 195.418 340.599ZM126.27 339.385C125.861 340.041 125.398 340.668 124.884 341.257C135.092 355.743 147.681 368.417 162.078 378.701C162.632 378.223 163.219 377.791 163.831 377.406C161.348 369.873 159.283 361.844 157.957 353.423C156.567 352.864 155.263 352.025 154.128 350.91C153.785 350.573 153.441 350.233 153.102 349.893C151.432 348.217 150.376 346.161 149.932 344.005C141.671 343.096 133.748 341.459 126.27 339.385ZM211.407 342.358C210.784 342.964 210.094 343.481 209.353 343.897C211.235 350.903 213.751 357.444 216.748 363.546C218.488 363.183 220.337 363.208 222.171 363.701C222.365 363.753 222.56 363.807 222.754 363.858C222.949 363.91 223.148 363.96 223.343 364.011C224.339 364.268 225.272 364.648 226.13 365.127C231.979 361.558 237.655 357.356 243.038 352.409C242.754 351.846 242.521 351.253 242.346 350.636C231.422 349.531 221.014 346.676 211.407 342.358ZM171.062 309.473C169.773 309.803 168.448 309.864 167.165 309.677C165.591 316.706 164.785 323.62 164.598 330.374C166.461 330.902 168.22 331.898 169.685 333.367C169.967 333.651 170.253 333.933 170.538 334.214C171.194 334.859 171.755 335.566 172.227 336.312C179.22 335.807 186.358 334.625 193.585 332.604C193.619 332.439 193.656 332.273 193.698 332.109C185.003 325.817 177.354 318.169 171.062 309.473ZM136.733 293.372C135.353 294.761 133.607 295.824 131.587 296.388C130.169 296.783 128.738 296.899 127.355 296.77C124.437 303.767 122.201 310.84 120.477 317.79C122.67 319.046 124.569 320.884 125.909 323.24C126.109 323.591 126.312 323.942 126.515 324.292C127.833 326.564 128.466 329.045 128.487 331.497C135.704 333.497 143.302 335.054 151.187 335.899C151.703 334.982 152.351 334.118 153.133 333.338C154.106 332.369 155.208 331.609 156.383 331.053C156.554 322.518 157.644 313.709 159.926 304.716C159.715 304.354 159.506 303.99 159.299 303.626C159.101 303.278 158.927 302.922 158.775 302.562C150.835 300.177 143.502 297.044 136.733 293.372ZM99.8708 263.681C98.9412 264.262 97.9405 264.739 96.8863 265.101C98.5326 283.162 103.224 300.339 110.436 316.108C111.126 315.975 111.821 315.896 112.514 315.865C114.359 308.42 116.781 300.786 119.973 293.2C118.686 291.854 117.702 290.18 117.166 288.261C117.037 287.798 116.908 287.332 116.783 286.868C116.161 284.546 116.285 282.2 117.004 280.083C110.663 274.918 104.97 269.354 99.8708 263.681ZM151.24 260.356C146.002 265.665 141.526 271.308 137.697 277.152C138.45 278.234 139.036 279.462 139.397 280.808C139.501 281.195 139.606 281.582 139.713 281.967C140.079 283.278 140.203 284.601 140.118 285.886C146.001 289.118 152.328 291.903 159.128 294.093C159.569 293.248 160.133 292.463 160.813 291.765C156.495 282.157 153.64 271.748 152.536 260.823C152.091 260.697 151.658 260.54 151.24 260.356ZM121.059 227.977C115.246 232.856 110.001 238.106 105.267 243.477C106.231 245.439 106.773 247.645 106.764 249.979C106.763 250.182 106.762 250.388 106.762 250.591C106.762 250.795 106.763 251 106.764 251.204C106.773 253.465 106.268 255.609 105.36 257.524C110.377 263.168 115.961 268.671 122.18 273.736C123.062 273.221 124.026 272.811 125.06 272.533C127.061 271.997 129.079 272.016 130.954 272.491C135.119 266.158 140.009 260.027 145.755 254.255C145.462 253.327 145.303 252.338 145.296 251.314C145.294 251.074 145.293 250.832 145.293 250.591C145.293 250.351 145.294 250.109 145.296 249.869C145.303 248.752 145.496 247.678 145.842 246.678C140.362 241.235 135.651 235.468 131.6 229.507C129.513 230.22 127.201 230.353 124.906 229.762C123.483 229.394 122.19 228.78 121.059 227.977ZM158.881 206.584C152.003 208.845 145.616 211.717 139.682 215.04C139.986 216.697 139.936 218.446 139.47 220.18L139.163 221.352C138.891 222.404 138.481 223.385 137.962 224.283C141.797 230.008 146.266 235.53 151.475 240.725C151.819 240.584 152.174 240.462 152.536 240.36C153.64 229.436 156.496 219.028 160.813 209.42C159.999 208.584 159.349 207.621 158.881 206.584ZM110.436 185.077C103.224 200.847 98.5324 218.023 96.8863 236.084C97.8779 236.425 98.8227 236.865 99.705 237.4C104.694 231.797 110.253 226.286 116.445 221.153C116.012 219.352 115.999 217.422 116.494 215.504C116.554 215.271 116.616 215.036 116.677 214.803C116.738 214.571 116.8 214.335 116.863 214.103C117.451 211.915 118.624 210.039 120.166 208.598C116.795 200.815 114.251 192.967 112.32 185.312C111.691 185.275 111.062 185.197 110.436 185.077ZM149.777 164.782C142.391 165.679 135.266 167.188 128.48 169.087C128.566 171.731 127.94 174.432 126.515 176.889C126.312 177.239 126.11 177.591 125.909 177.943C124.534 180.358 122.576 182.235 120.312 183.492C122.153 190.759 124.56 198.151 127.727 205.443C128.871 205.4 130.042 205.524 131.206 205.837C132.816 206.269 134.255 207.022 135.478 208.001C142.681 203.948 150.536 200.505 159.097 197.929C159.162 197.804 159.229 197.68 159.299 197.557C159.464 197.268 159.631 196.979 159.798 196.691C157.509 187.972 156.345 179.424 156.06 171.127C154.736 170.569 153.492 169.757 152.405 168.689C151.238 167.541 150.36 166.208 149.777 164.782ZM172.245 164.139C171.674 165.429 170.863 166.639 169.804 167.694C169.521 167.977 169.238 168.264 168.957 168.55C167.604 169.926 165.991 170.895 164.275 171.459C164.537 178.018 165.387 184.725 166.963 191.537C168.309 191.312 169.705 191.364 171.062 191.712C177.354 183.016 185.003 175.368 193.698 169.076C193.584 168.631 193.501 168.182 193.451 167.732C186.274 165.763 179.187 164.618 172.245 164.139ZM162.078 122.484C147.681 132.768 135.092 145.441 124.884 159.928C125.264 160.364 125.62 160.818 125.942 161.292C133.394 159.191 141.291 157.511 149.531 156.556C150.08 154.946 150.992 153.431 152.264 152.137C152.601 151.794 152.941 151.452 153.281 151.113C154.483 149.916 155.881 149.037 157.371 148.469C158.661 139.676 160.773 131.3 163.338 123.457C162.902 123.157 162.482 122.832 162.078 122.484ZM184.603 119.349C183.435 120.951 181.923 122.344 180.095 123.399C179.745 123.601 179.396 123.804 179.047 124.009C176.556 125.474 173.809 126.115 171.12 126.019C168.798 133.12 166.885 140.626 165.661 148.452C167.183 149.023 168.611 149.916 169.833 151.142C171.224 152.538 172.186 154.198 172.727 155.959C180.311 156.477 188.079 157.737 195.964 159.928C196.625 159.199 197.406 158.556 198.299 158.031C198.712 157.788 199.129 157.548 199.546 157.31C199.842 157.141 200.144 156.988 200.45 156.852C202.497 148.522 205.372 140.81 208.846 133.675C207.924 132.499 207.211 131.125 206.784 129.596C206.41 128.257 206.286 126.906 206.381 125.594C199.11 122.855 191.785 120.832 184.603 119.349ZM226.508 135.355C225.314 136.282 223.917 136.99 222.365 137.406C221.978 137.51 221.591 137.615 221.205 137.723C219.41 138.223 217.597 138.276 215.883 137.95C213.041 143.891 210.652 150.241 208.86 157.027C209.788 157.482 210.648 158.088 211.407 158.827C221.014 154.509 231.421 151.654 242.346 150.55C242.594 149.672 242.959 148.843 243.423 148.082C238.038 143.131 232.36 138.926 226.508 135.355ZM243.071 101.072C237.762 106.214 232.623 111.892 227.932 118.162C229.179 119.511 230.131 121.172 230.64 123.07C231.121 124.865 231.156 126.677 230.815 128.384C237.608 132.533 244.204 137.492 250.431 143.42C250.897 143.35 251.373 143.31 251.857 143.307C252.098 143.305 252.339 143.305 252.58 143.305C252.772 143.305 252.965 143.304 253.157 143.305V104.041C252.965 104.041 252.772 104.041 252.58 104.041C252.376 104.041 252.171 104.043 251.968 104.044C248.626 104.057 245.542 102.948 243.071 101.072ZM238.073 94.1792C220.033 95.847 202.88 100.594 187.139 107.893C187.38 109.114 187.46 110.349 187.389 111.569C194.749 113.141 202.295 115.267 209.819 118.137C211.191 116.775 212.918 115.732 214.913 115.175C215.375 115.046 215.839 114.919 216.303 114.795C217.707 114.419 219.119 114.317 220.484 114.452C225.942 106.988 231.975 100.337 238.159 94.4246C238.13 94.3436 238.101 94.261 238.073 94.1792Z" fill="white"/>
</svg>
