<svg width="1100" height="1101" viewBox="0 0 1100 1101" fill="none" xmlns="http://www.w3.org/2000/svg">
<rect width="1100" height="1100" transform="translate(0 0.589844)" fill="#000035"/>
<path d="M559.609 125.59C752.988 126.472 915.855 256.505 966.405 433.872H808.881L808.886 433.867H784.124C745.568 433.867 719.037 411.933 705.242 398.138C704.272 397.168 703.175 396.243 701.976 395.353C665.423 361.351 616.853 340.098 563.334 338.683C553.539 338.691 540.605 337.813 534.462 328.362C509.528 330.776 485.796 337.281 463.944 347.213C463.53 355.125 459.227 362.67 451.833 366.882C451.013 367.349 450.193 367.82 449.38 368.298C442.042 372.609 433.352 372.583 426.286 368.998C406.374 383.272 388.908 400.738 374.634 420.649C378.218 427.716 378.251 436.401 373.939 443.739C373.462 444.552 372.99 445.372 372.523 446.192C368.309 453.587 360.763 457.896 352.849 458.308C342.919 480.159 336.411 503.894 333.999 528.826C340.646 533.146 345.027 540.653 344.971 549.168C344.968 549.642 344.966 550.12 344.966 550.595C344.966 551.07 344.968 551.548 344.971 552.022C345.027 560.538 340.647 568.047 333.999 572.364C336.412 597.298 342.917 621.036 352.849 642.888C360.764 643.299 368.31 647.602 372.523 654.999C372.99 655.819 373.462 656.639 373.939 657.452C378.252 664.792 378.222 673.48 374.634 680.546C388.908 700.457 406.379 717.919 426.291 732.192C433.357 728.607 442.042 728.575 449.38 732.887C450.194 733.365 451.012 733.841 451.833 734.309C459.228 738.522 463.525 746.065 463.939 753.977C485.793 763.91 509.531 770.415 534.468 772.828C540.613 763.371 550.321 762.507 563.372 762.507C618.435 761.041 668.257 738.574 705.14 702.828C706.071 702.1 706.936 701.353 707.716 700.573C720.699 687.59 744.963 667.412 779.912 665.079H967.03C917.204 843.632 753.719 974.769 559.465 975.59C541.538 975.59 524.632 966.882 520.224 948.551C473.663 944.355 429.415 932.102 388.873 913.19C377.869 924.7 360.051 927.68 345.645 919.369C344.627 918.782 343.61 918.19 342.598 917.594C328.262 909.163 322.066 892.192 326.65 876.943C289.492 850.52 257.047 817.854 230.824 780.471C215.55 784.962 198.621 778.66 190.274 764.276C189.685 763.261 189.097 762.24 188.516 761.219C180.29 746.765 183.373 728.97 194.945 718.034C176.269 677.442 164.17 633.17 160.028 586.602C144.562 582.874 133.038 568.983 132.968 552.364V548.826C133.036 532.206 144.561 518.322 160.028 514.593C164.169 468.027 176.27 423.758 194.945 383.167C183.367 372.232 180.288 354.423 188.516 339.966C189.097 338.945 189.685 337.924 190.274 336.909C198.622 322.523 215.553 316.224 230.83 320.72C257.051 283.339 289.495 250.679 326.65 224.258C322.057 209.006 328.259 192.031 342.598 183.596C343.61 183.001 344.627 182.408 345.645 181.821C360.055 173.507 377.879 176.488 388.883 188.005C429.423 169.096 473.666 156.846 520.224 152.65C524.634 134.276 539.473 125.589 559.609 125.59ZM453.009 868.712C434.725 875.758 416.372 880.974 398.472 884.831C398.868 888.383 398.729 892.009 398.023 895.585C436.081 913.231 477.554 924.707 521.17 928.738C521.456 927.907 521.766 927.086 522.111 926.285C507.866 912.652 493.96 897.394 481.272 880.363C478.054 880.682 474.724 880.448 471.411 879.594C470.848 879.449 470.284 879.304 469.722 879.155C469.158 879.007 468.591 878.852 468.028 878.701C461.824 877.034 456.66 873.427 453.009 868.712ZM548.813 809.247C534.905 822.314 520.252 833.407 505.179 842.822C506.978 847.935 507.339 853.62 505.884 859.262C504.676 863.944 502.359 868.048 499.294 871.368C510.345 885.856 522.375 899.018 534.778 910.972C540.474 907.107 547.352 904.855 554.756 904.885H557.632V809.963C557.167 809.965 556.701 809.968 556.237 809.968C555.654 809.968 555.071 809.967 554.489 809.963C552.532 809.95 550.631 809.7 548.813 809.247ZM418.044 768.194C400.41 773.062 383.018 776.004 365.997 777.387C365.107 783.005 362.528 788.414 358.237 792.78C355.145 795.923 351.497 798.198 347.606 799.589C350.677 817.766 355.253 835.214 360.738 851.737C366.776 851.766 372.887 853.33 378.466 856.611C379.308 857.107 380.154 857.598 381 858.087C384.789 860.273 388.012 863.063 390.636 866.253C409.252 862.428 428.28 857.122 447.114 849.77C447.224 847.867 447.53 845.943 448.044 844.03C449.017 840.409 450.655 837.143 452.785 834.324C444.095 816.955 436.871 798.151 431.689 777.809C430.442 777.353 429.215 776.788 428.023 776.11C427.015 775.535 426.008 774.954 425.008 774.367C422.222 772.73 419.886 770.617 418.044 768.194ZM250.872 765.26C249.884 766.845 248.766 768.361 247.521 769.787C272.201 804.807 302.636 835.448 337.441 860.31C338.782 859.154 340.199 858.109 341.679 857.178C335.676 838.967 330.684 819.555 327.478 799.199C324.118 797.847 320.965 795.818 318.221 793.122C317.392 792.307 316.561 791.486 315.741 790.663C311.705 786.613 309.152 781.641 308.077 776.43C288.105 774.231 268.952 770.274 250.872 765.26ZM456.697 772.448C455.192 773.913 453.523 775.162 451.732 776.168C456.283 793.106 462.365 808.919 469.61 823.672C473.816 822.794 478.287 822.855 482.72 824.046C483.189 824.172 483.661 824.302 484.131 824.426C484.603 824.55 485.081 824.673 485.553 824.794C487.962 825.416 490.217 826.335 492.293 827.494C506.433 818.865 520.154 808.705 533.169 796.745C532.481 795.386 531.918 793.951 531.496 792.459C505.085 789.789 479.924 782.886 456.697 772.448ZM359.161 692.946C356.044 693.745 352.841 693.891 349.739 693.438C345.934 710.431 343.986 727.148 343.533 743.475C348.038 744.753 352.291 747.159 355.832 750.712C356.514 751.397 357.205 752.08 357.895 752.759C359.481 754.318 360.838 756.028 361.978 757.831C378.883 756.611 396.14 753.752 413.613 748.868C413.694 748.468 413.784 748.067 413.886 747.67C392.864 732.459 374.373 713.968 359.161 692.946ZM276.169 654.021C272.833 657.377 268.61 659.947 263.726 661.311C260.299 662.267 256.84 662.547 253.497 662.235C246.442 679.151 241.036 696.25 236.869 713.053C242.171 716.09 246.76 720.533 250.001 726.227C250.485 727.077 250.975 727.926 251.466 728.772C254.652 734.265 256.183 740.263 256.233 746.19C273.68 751.026 292.05 754.789 311.113 756.831C312.359 754.614 313.926 752.526 315.816 750.642C318.168 748.298 320.834 746.461 323.673 745.116C324.088 724.482 326.723 703.186 332.24 681.444C331.729 680.57 331.224 679.69 330.722 678.809C330.243 677.969 329.823 677.108 329.456 676.238C310.26 670.471 292.534 662.898 276.169 654.021ZM187.051 582.241C184.804 583.645 182.385 584.797 179.836 585.672C183.816 629.338 195.157 670.863 212.594 708.985C214.262 708.665 215.941 708.474 217.618 708.398C222.077 690.4 227.933 671.944 235.651 653.604C232.538 650.35 230.158 646.303 228.863 641.664C228.551 640.545 228.239 639.419 227.938 638.296C226.434 632.684 226.734 627.011 228.473 621.894C213.142 609.406 199.38 595.955 187.051 582.241ZM311.241 574.203C298.577 587.036 287.755 600.678 278.499 614.806C280.32 617.422 281.736 620.391 282.609 623.647C282.86 624.58 283.114 625.517 283.374 626.447C284.258 629.617 284.557 632.816 284.352 635.923C298.575 643.736 313.869 650.468 330.311 655.763C331.375 653.722 332.74 651.823 334.383 650.135C323.945 626.907 317.042 601.742 314.373 575.33C313.296 575.027 312.251 574.647 311.241 574.203ZM238.275 495.924C224.223 507.718 211.542 520.412 200.098 533.396C202.428 538.138 203.739 543.473 203.716 549.115C203.714 549.607 203.711 550.103 203.711 550.595C203.711 551.088 203.714 551.584 203.716 552.076C203.738 557.542 202.518 562.726 200.322 567.356C212.45 581 225.95 594.305 240.985 606.549C243.118 605.303 245.448 604.312 247.949 603.641C252.786 602.345 257.665 602.392 262.198 603.54C272.265 588.227 284.089 573.406 297.981 559.451C297.271 557.209 296.886 554.819 296.869 552.343C296.865 551.762 296.864 551.177 296.864 550.595C296.864 550.013 296.865 549.428 296.869 548.847C296.887 546.147 297.353 543.553 298.189 541.135C284.942 527.976 273.552 514.033 263.758 499.623C258.713 501.345 253.123 501.668 247.575 500.237C244.136 499.35 241.009 497.864 238.275 495.924ZM329.712 444.204C313.086 449.67 297.644 456.613 283.299 464.647C284.032 468.652 283.913 472.88 282.786 477.073L282.043 479.906C281.386 482.451 280.393 484.823 279.141 486.993C288.412 500.833 299.215 514.183 311.807 526.742C312.64 526.401 313.497 526.107 314.373 525.86C317.042 499.449 323.947 474.288 334.383 451.061C332.415 449.039 330.845 446.712 329.712 444.204ZM212.594 392.21C195.157 430.334 183.816 471.858 179.836 515.523C182.233 516.347 184.518 517.411 186.65 518.703C198.712 505.159 212.152 491.835 227.121 479.425C226.074 475.073 226.043 470.406 227.238 465.769C227.383 465.206 227.534 464.638 227.682 464.075C227.83 463.512 227.98 462.943 228.131 462.381C229.553 457.091 232.388 452.557 236.116 449.073C227.967 430.258 221.816 411.285 217.147 392.777C215.627 392.687 214.106 392.5 212.594 392.21ZM307.703 343.146C289.846 345.313 272.621 348.961 256.217 353.552C256.423 359.945 254.912 366.474 251.466 372.414C250.975 373.26 250.485 374.112 250.001 374.963C246.677 380.802 241.942 385.338 236.468 388.378C240.921 405.947 246.74 423.817 254.395 441.446C257.162 441.342 259.992 441.641 262.807 442.397C266.699 443.443 270.177 445.262 273.133 447.63C290.548 437.832 309.538 429.508 330.236 423.279C330.391 422.979 330.553 422.678 330.722 422.381C331.121 421.681 331.525 420.982 331.93 420.286C326.395 399.209 323.582 378.544 322.892 358.485C319.693 357.136 316.685 355.172 314.057 352.59C311.235 349.815 309.113 346.591 307.703 343.146ZM362.021 341.591C360.642 344.709 358.681 347.634 356.12 350.185C355.435 350.868 354.752 351.563 354.073 352.253C350.8 355.582 346.902 357.923 342.753 359.287C343.386 375.143 345.442 391.357 349.252 407.828C352.506 407.283 355.88 407.409 359.161 408.25C374.373 387.227 392.864 368.737 413.886 353.525C413.61 352.45 413.41 351.363 413.287 350.276C395.937 345.517 378.805 342.748 362.021 341.591ZM337.441 240.886C302.636 265.749 272.201 296.388 247.521 331.409C248.442 332.464 249.301 333.562 250.081 334.707C268.095 329.627 287.187 325.567 307.109 323.258C308.436 319.366 310.64 315.703 313.715 312.574C314.53 311.745 315.351 310.92 316.174 310.1C319.08 307.204 322.461 305.079 326.062 303.707C329.181 282.449 334.287 262.199 340.487 243.237C339.434 242.515 338.418 241.728 337.441 240.886ZM391.898 233.307C389.074 237.181 385.419 240.548 381 243.098C380.154 243.587 379.308 244.079 378.466 244.574C372.444 248.116 365.801 249.665 359.3 249.432C353.687 266.599 349.063 284.746 346.104 303.665C349.782 305.045 353.235 307.205 356.19 310.169C359.552 313.543 361.879 317.558 363.186 321.815C381.522 323.067 400.301 326.114 419.364 331.409C420.962 329.647 422.849 328.092 425.008 326.823C426.008 326.236 427.014 325.655 428.023 325.081C428.74 324.672 429.47 324.302 430.209 323.974C435.157 303.836 442.108 285.19 450.508 267.941C448.277 265.098 446.553 261.777 445.521 258.08C444.618 254.842 444.316 251.576 444.548 248.406C426.969 241.783 409.259 236.892 391.898 233.307ZM493.207 272.003C490.318 274.243 486.943 275.957 483.191 276.962C482.255 277.213 481.317 277.466 480.385 277.727C476.047 278.937 471.663 279.064 467.52 278.277C460.648 292.64 454.871 307.991 450.54 324.397C452.784 325.498 454.863 326.961 456.697 328.747C479.924 318.309 505.084 311.406 531.496 308.737C532.094 306.616 532.976 304.612 534.099 302.772C521.079 290.803 507.353 280.637 493.207 272.003ZM533.249 189.122C520.412 201.552 507.988 215.28 496.649 230.437C499.664 233.698 501.965 237.714 503.196 242.302C504.359 246.643 504.442 251.023 503.618 255.151C520.04 265.181 535.987 277.168 551.042 291.5C552.167 291.331 553.318 291.235 554.489 291.228C555.071 291.224 555.654 291.222 556.237 291.222C556.701 291.222 557.167 291.22 557.632 291.222V196.3C557.167 196.298 556.701 196.3 556.237 196.3C555.744 196.3 555.248 196.304 554.756 196.306C546.678 196.338 539.223 193.656 533.249 189.122ZM521.165 172.458C477.552 176.49 436.084 187.965 398.028 205.611C398.61 208.562 398.806 211.549 398.632 214.499C416.425 218.299 434.67 223.438 452.859 230.378C456.176 227.085 460.352 224.562 465.174 223.216C466.292 222.904 467.413 222.598 468.535 222.297C471.928 221.388 475.342 221.142 478.642 221.468C491.838 203.425 506.422 187.345 521.373 173.051C521.302 172.855 521.233 172.655 521.165 172.458Z" fill="white"/>
<path d="M484.869 517.149C487.407 512.532 491.004 508.934 495.665 506.359C500.327 503.784 505.69 502.492 511.755 502.492C519.451 502.492 525.921 504.488 531.163 508.484C536.41 512.476 539.789 517.903 541.304 524.757H525.54C523.969 524.757 522.537 523.946 521.608 522.673C520.678 521.4 519.568 520.367 518.266 519.575C516.314 518.385 514.056 517.792 511.49 517.792C507.526 517.792 504.365 519.168 502.005 521.914C499.644 524.66 498.463 528.327 498.463 532.916C498.463 537.505 499.644 541.256 502.005 544.007C504.365 546.753 507.526 548.128 511.49 548.128C514.056 548.128 516.314 547.536 518.266 546.345C519.568 545.554 520.683 544.521 521.608 543.247C522.533 541.974 523.969 541.159 525.54 541.159H541.304C539.789 548.013 536.41 553.435 531.163 557.431C525.916 561.423 519.447 563.424 511.755 563.424C505.69 563.424 500.331 562.136 495.665 559.557C490.999 556.982 487.402 553.384 484.869 548.767C482.332 544.15 481.067 538.867 481.067 532.921C481.067 526.975 482.336 521.775 484.869 517.158V517.149Z" fill="white"/>
<path d="M634.165 503.086L612.916 562.989H590.971L569.638 503.086H588.001L601.99 546.333L615.891 503.086H634.165Z" fill="white"/>
<path d="M670.318 517.149C672.856 512.532 676.453 508.934 681.114 506.359C685.776 503.784 691.139 502.492 697.204 502.492C704.9 502.492 711.37 504.488 716.612 508.484C721.859 512.476 725.238 517.903 726.753 524.757H710.989C709.418 524.757 707.986 523.946 707.057 522.673C706.127 521.4 705.017 520.367 703.715 519.575C701.763 518.385 699.505 517.792 696.939 517.792C692.975 517.792 689.814 519.168 687.454 521.914C685.093 524.66 683.912 528.327 683.912 532.916C683.912 537.505 685.093 541.256 687.454 544.007C689.814 546.753 692.975 548.128 696.939 548.128C699.505 548.128 701.763 547.536 703.715 546.345C705.017 545.554 706.132 544.521 707.057 543.247C707.982 541.974 709.418 541.159 710.989 541.159H726.753C725.238 548.013 721.859 553.435 716.612 557.431C711.365 561.423 704.896 563.424 697.204 563.424C691.139 563.424 685.78 562.136 681.114 559.557C676.448 556.982 672.851 553.384 670.318 548.767C667.78 544.15 666.516 538.867 666.516 532.921C666.516 526.975 667.785 521.775 670.318 517.158V517.149Z" fill="white"/>
<path d="M814.809 516.427V526.198H834.482V538.859H814.809V549.648H837.103V562.989H797.669V503.086H837.103V516.427H814.809Z" fill="white"/>
<path d="M847.282 517.149C849.82 512.532 853.417 508.934 858.078 506.359C862.74 503.784 868.103 502.492 874.168 502.492C881.864 502.492 888.334 504.488 893.581 508.484C898.828 512.476 902.207 517.903 903.722 524.757H887.957C886.386 524.757 884.955 523.946 884.026 522.673C883.101 521.4 881.985 520.367 880.684 519.575C878.732 518.385 876.473 517.792 873.908 517.792C869.944 517.792 866.783 519.168 864.422 521.914C862.061 524.66 860.881 528.327 860.881 532.916C860.881 537.505 862.061 541.256 864.422 544.007C866.783 546.753 869.944 548.128 873.908 548.128C876.473 548.128 878.732 547.536 880.684 546.345C881.985 545.554 883.101 544.521 884.026 543.247C884.955 541.969 886.386 541.159 887.957 541.159H903.722C902.207 548.013 898.823 553.435 893.581 557.431C888.334 561.423 881.864 563.424 874.168 563.424C868.103 563.424 862.744 562.136 858.078 559.557C853.412 556.982 849.815 553.384 847.282 548.767C844.745 544.15 843.48 538.867 843.48 532.921C843.48 526.975 844.749 521.775 847.282 517.158V517.149Z" fill="white"/>
<path d="M967.031 503.086V562.989H949.895V538.942H929V562.989H911.865V503.086H929V525.601H949.895V503.086H967.031Z" fill="white"/>
<path d="M562.703 562.827V547.092H566.579V503.086H549.443V562.989H563.232L562.703 562.827Z" fill="white"/>
<path d="M562.697 545.867H545.515V562.987H562.697V545.867Z" fill="white"/>
<path d="M741.449 503.086V516.339H757.71V562.989H770.984V547.263H774.851V516.339H791.284V503.086H741.449Z" fill="white"/>
<path d="M770.985 545.867H753.803V562.987H770.985V545.867Z" fill="white"/>
<path d="M654.952 503.086H641.688V562.989H658.828V518.812H654.952V503.086Z" fill="white"/>
<path d="M654.947 503.086H637.765V520.206H654.947V503.086Z" fill="white"/>
<path d="M784.58 584.066V612.119H779.804V592.908L770.908 612.119H767.579L758.629 592.908V612.119H753.853V584.066H759.011L769.244 606.061L779.45 584.066H784.58Z" fill="white"/>
<path d="M796.694 610.567C794.401 609.339 792.6 607.647 791.29 605.437C789.953 603.253 789.298 600.77 789.298 598.041C789.298 595.312 789.953 592.829 791.29 590.646C792.628 588.463 794.429 586.771 796.694 585.543C798.986 584.315 801.469 583.715 804.198 583.715C806.927 583.715 809.437 584.315 811.73 585.543C814.022 586.771 815.796 588.463 817.133 590.646C818.443 592.829 819.097 595.285 819.097 598.041C819.097 600.798 818.443 603.253 817.133 605.437C815.823 607.62 814.022 609.339 811.73 610.567C809.437 611.795 806.927 612.395 804.198 612.395C801.469 612.395 798.986 611.795 796.694 610.567ZM809.355 607.156C810.856 606.31 812.057 605.109 812.903 603.526C813.749 601.944 814.186 600.143 814.186 598.069C814.186 595.995 813.749 594.194 812.903 592.611C812.057 591.055 810.856 589.855 809.355 589.009C807.855 588.163 806.135 587.754 804.198 587.754C802.26 587.754 800.541 588.163 799.04 589.009C797.539 589.855 796.339 591.028 795.493 592.611C794.647 594.166 794.21 595.995 794.21 598.069C794.21 600.143 794.647 601.971 795.493 603.526C796.339 605.109 797.539 606.31 799.04 607.156C800.541 608.002 802.26 608.438 804.198 608.438C806.135 608.438 807.855 608.002 809.355 607.156Z" fill="white"/>
<path d="M847.749 612.123H842.973L828.565 591.165V612.123H823.79V584.043H828.565L842.973 604.946V584.043H847.749V612.123Z" fill="white"/>
<path d="M854.436 590.646C855.773 588.463 857.574 586.771 859.839 585.543C862.132 584.315 864.615 583.715 867.344 583.715C870.455 583.715 873.211 584.452 875.639 585.925C878.068 587.399 879.815 589.473 880.906 592.147H875.148C874.384 590.673 873.347 589.555 872.01 588.845C870.673 588.108 869.117 587.754 867.344 587.754C865.406 587.754 863.687 588.163 862.186 589.009C860.685 589.855 859.485 591.028 858.639 592.611C857.793 594.166 857.356 595.995 857.356 598.069C857.356 600.143 857.793 601.944 858.639 603.526C859.485 605.082 860.685 606.283 862.186 607.128C863.687 607.974 865.406 608.411 867.344 608.411C869.117 608.411 870.673 608.056 872.01 607.319C873.347 606.583 874.411 605.491 875.148 604.018H880.906C879.815 606.719 878.068 608.793 875.639 610.239C873.211 611.686 870.455 612.422 867.344 612.422C864.588 612.422 862.104 611.822 859.839 610.594C857.574 609.366 855.773 607.674 854.436 605.491C853.099 603.308 852.444 600.852 852.444 598.096C852.444 595.34 853.099 592.884 854.436 590.701V590.646Z" fill="white"/>
<path d="M905.333 584.066V587.832H897.556V612.119H892.781V587.832H884.976V584.066H905.333Z" fill="white"/>
<path d="M915.972 610.567C913.68 609.339 911.879 607.647 910.569 605.437C909.232 603.253 908.577 600.77 908.577 598.041C908.577 595.312 909.232 592.829 910.569 590.646C911.906 588.463 913.707 586.771 915.972 585.543C918.265 584.315 920.748 583.715 923.477 583.715C926.206 583.715 928.716 584.315 931.008 585.543C933.301 586.771 935.074 588.463 936.412 590.646C937.721 592.829 938.376 595.285 938.376 598.041C938.376 600.798 937.721 603.253 936.412 605.437C935.102 607.62 933.301 609.339 931.008 610.567C928.716 611.795 926.206 612.395 923.477 612.395C920.748 612.395 918.265 611.795 915.972 610.567ZM928.634 607.156C930.135 606.31 931.336 605.109 932.182 603.526C933.028 601.944 933.464 600.143 933.464 598.069C933.464 595.995 933.028 594.194 932.182 592.611C931.336 591.055 930.135 589.855 928.634 589.009C927.133 588.163 925.414 587.754 923.477 587.754C921.539 587.754 919.82 588.163 918.319 589.009C916.818 589.855 915.618 591.028 914.772 592.611C913.926 594.166 913.489 595.995 913.489 598.069C913.489 600.143 913.926 601.971 914.772 603.526C915.618 605.109 916.818 606.31 918.319 607.156C919.82 608.002 921.539 608.438 923.477 608.438C925.414 608.438 927.133 608.002 928.634 607.156Z" fill="white"/>
<path d="M967.031 612.123H962.255L947.847 591.165V612.123H943.072V584.043H947.847L962.255 604.946V584.043H967.031V612.123Z" fill="white"/>
</svg>
